<?xml version="1.0" encoding="UTF-8" standalone="no"?>
<svg
   xmlns:dc="http://purl.org/dc/elements/1.1/"
   xmlns:cc="http://creativecommons.org/ns#"
   xmlns:rdf="http://www.w3.org/1999/02/22-rdf-syntax-ns#"
   xmlns:svg="http://www.w3.org/2000/svg"
   xmlns="http://www.w3.org/2000/svg"
   xmlns:sodipodi="http://sodipodi.sourceforge.net/DTD/sodipodi-0.dtd"
   xmlns:inkscape="http://www.inkscape.org/namespaces/inkscape"
   sodipodi:docname="Qs1.svg"
   inkscape:version="1.0 (1.0+r73+1)"
   id="svg7321"
   version="1.1"
   viewBox="0 0 78.539193 20.449793"
   height="20.449793mm"
   width="78.539192mm">
  <defs
     id="defs7315">
    <marker
       inkscape:stockid="Arrow2Lend"
       orient="auto"
       refY="0"
       refX="0"
       id="Arrow2Lend"
       style="overflow:visible"
       inkscape:isstock="true">
      <path
         id="path943"
         style="fill:#e3e94c;fill-opacity:1;fill-rule:evenodd;stroke:#e3e94c;stroke-width:0.625;stroke-linejoin:round;stroke-opacity:1"
         d="M 8.7185878,4.0337352 -2.2072895,0.01601326 8.7185884,-4.0017078 c -1.7454984,2.3720609 -1.7354408,5.6174519 -6e-7,8.035443 z"
         transform="matrix(-1.1,0,0,-1.1,-1.1,0)" />
    </marker>
    <marker
       inkscape:isstock="true"
       style="overflow:visible"
       id="Arrow1Lend"
       refX="0"
       refY="0"
       orient="auto"
       inkscape:stockid="Arrow1Lend">
      <path
         transform="matrix(-0.8,0,0,-0.8,-10,0)"
         style="fill:#c42222;fill-opacity:1;fill-rule:evenodd;stroke:#c42222;stroke-width:1pt;stroke-opacity:1"
         d="M 0,0 5,-5 -12.5,0 5,5 Z"
         id="path7952" />
    </marker>
    <filter
       style="color-interpolation-filters:sRGB"
       inkscape:label="Drop Shadow"
       id="filter1250"
       x="-1.5"
       y="-1.5"
       width="3"
       height="4">
      <feFlood
         flood-opacity="0.498039"
         flood-color="rgb(0,0,0)"
         result="flood"
         id="feFlood1240" />
      <feComposite
         in="flood"
         in2="SourceGraphic"
         operator="in"
         result="composite1"
         id="feComposite1242" />
      <feGaussianBlur
         in="composite1"
         stdDeviation="0.5"
         result="blur"
         id="feGaussianBlur1244" />
      <feOffset
         dx="3"
         dy="3"
         result="offset"
         id="feOffset1246" />
      <feComposite
         in="SourceGraphic"
         in2="offset"
         operator="over"
         result="composite2"
         id="feComposite1248" />
    </filter>
  </defs>
  <sodipodi:namedview
     inkscape:window-maximized="1"
     inkscape:window-y="0"
     inkscape:window-x="3840"
     inkscape:window-height="2055"
     inkscape:window-width="3840"
     fit-margin-bottom="2"
     fit-margin-right="2"
     fit-margin-left="2"
     fit-margin-top="2"
     showgrid="false"
     inkscape:document-rotation="0"
     inkscape:current-layer="layer1"
     inkscape:document-units="mm"
     inkscape:cy="501.99878"
     inkscape:cx="381.20816"
     inkscape:zoom="0.98994949"
     inkscape:pageshadow="2"
     inkscape:pageopacity="0.0"
     borderopacity="1.0"
     bordercolor="#666666"
     pagecolor="#ffffff"
     id="base" />
  <metadata
     id="metadata7318">
    <rdf:RDF>
      <cc:Work
         rdf:about="">
        <dc:format>image/svg+xml</dc:format>
        <dc:type
           rdf:resource="http://purl.org/dc/dcmitype/StillImage" />
        <dc:title></dc:title>
      </cc:Work>
    </rdf:RDF>
  </metadata>
  <g
     transform="translate(-53.739279,-80.48939)"
     id="layer1"
     inkscape:groupmode="layer"
     inkscape:label="Στρώση 1">
    <g
       id="g7313"
       transform="translate(-60.403429,43.220519)">
      <rect
         style="fill:#cbc7f7;fill-opacity:1;stroke:#9e9fee;stroke-width:0.449792;stroke-linecap:round;stroke-linejoin:miter;stroke-miterlimit:4;stroke-dasharray:none;stroke-opacity:1"
         id="rect833-4"
         width="56"
         height="16"
         x="134.457"
         y="39.493767" />
      <g
         style="font-style:normal;font-variant:normal;font-weight:normal;font-stretch:normal;font-size:5.64444px;line-height:1.25;font-family:'SF Mono';-inkscape-font-specification:'SF Mono';letter-spacing:0px;word-spacing:0px;fill:#000000;fill-opacity:1;stroke:none;stroke-width:0.264583"
         id="text837-3"
         aria-label="System Topology">
        <path
           id="path7268"
           style="font-style:normal;font-variant:normal;font-weight:normal;font-stretch:normal;font-size:5.64444px;font-family:'Noto Sans';-inkscape-font-specification:'Noto Sans';text-align:center;text-anchor:middle;stroke-width:0.264583"
           d="m 142.69021,47.883231 q 0,0.536222 -0.38947,0.835377 -0.38946,0.299155 -1.04986,0.299155 -0.33867,0 -0.62654,-0.0508 -0.28786,-0.0508 -0.47977,-0.141111 v -0.485421 q 0.2032,0.09031 0.50235,0.163688 0.3048,0.07338 0.62653,0.07338 0.45156,0 0.67734,-0.174978 0.23142,-0.174977 0.23142,-0.474133 0,-0.197555 -0.0847,-0.333022 -0.0847,-0.135466 -0.29351,-0.248355 -0.2032,-0.118533 -0.57009,-0.248355 -0.51364,-0.186267 -0.77893,-0.4572 -0.25964,-0.270933 -0.25964,-0.739422 0,-0.321733 0.16369,-0.54751 0.16368,-0.231422 0.45155,-0.3556 0.29351,-0.124178 0.67169,-0.124178 0.33302,0 0.6096,0.06209 0.27658,0.06209 0.50235,0.163689 l -0.15804,0.434622 q -0.20884,-0.09031 -0.4572,-0.1524 -0.24271,-0.06209 -0.508,-0.06209 -0.37818,0 -0.57009,0.163689 -0.19191,0.158044 -0.19191,0.423333 0,0.2032 0.0847,0.338666 0.0847,0.135467 0.27657,0.242711 0.19192,0.107245 0.51929,0.231422 0.3556,0.129822 0.59831,0.282222 0.24836,0.146756 0.37254,0.3556 0.12982,0.208844 0.12982,0.524933 z" />
        <path
           id="path7270"
           style="font-style:normal;font-variant:normal;font-weight:normal;font-stretch:normal;font-size:5.64444px;font-family:'Noto Sans';-inkscape-font-specification:'Noto Sans';text-align:center;text-anchor:middle;stroke-width:0.264583"
           d="m 142.96114,45.935899 h 0.53058 l 0.65475,1.721554 q 0.0847,0.225778 0.1524,0.434622 0.0677,0.2032 0.1016,0.389467 h 0.0226 q 0.0339,-0.141111 0.10725,-0.366889 0.0734,-0.231422 0.1524,-0.462844 l 0.61524,-1.71591 h 0.53622 l -1.30386,3.443109 q -0.15805,0.428977 -0.41205,0.682977 -0.24835,0.254 -0.68862,0.254 -0.13547,0 -0.23707,-0.01693 -0.1016,-0.01129 -0.17497,-0.02822 v -0.395111 q 0.0621,0.01129 0.14675,0.02258 0.0903,0.01129 0.18627,0.01129 0.25964,0 0.41769,-0.146756 0.16368,-0.146755 0.254,-0.389466 l 0.15804,-0.400755 z" />
        <path
           id="path7272"
           style="font-style:normal;font-variant:normal;font-weight:normal;font-stretch:normal;font-size:5.64444px;font-family:'Noto Sans';-inkscape-font-specification:'Noto Sans';text-align:center;text-anchor:middle;stroke-width:0.264583"
           d="m 148.28384,48.125942 q 0,0.440266 -0.32738,0.666044 -0.32738,0.225777 -0.88053,0.225777 -0.31609,0 -0.54751,-0.0508 -0.22578,-0.0508 -0.40076,-0.141111 v -0.451555 q 0.18062,0.09031 0.43462,0.169333 0.25965,0.07338 0.52494,0.07338 0.37817,0 0.54751,-0.118533 0.16933,-0.124178 0.16933,-0.327378 0,-0.112888 -0.0621,-0.2032 -0.0621,-0.09031 -0.22578,-0.180622 -0.15804,-0.09031 -0.45719,-0.203199 -0.29352,-0.112889 -0.50236,-0.225778 -0.20884,-0.112889 -0.32173,-0.270933 -0.11289,-0.158044 -0.11289,-0.4064 0,-0.383822 0.31044,-0.592666 0.31609,-0.208844 0.82409,-0.208844 0.27658,0 0.51364,0.05644 0.24272,0.0508 0.45156,0.146755 l -0.16933,0.395111 q -0.19191,-0.07902 -0.40076,-0.135466 -0.20884,-0.05644 -0.42898,-0.05644 -0.3048,0 -0.46848,0.1016 -0.15805,0.09596 -0.15805,0.265289 0,0.124178 0.0734,0.214489 0.0734,0.08467 0.24271,0.169333 0.17498,0.07902 0.46284,0.191911 0.28787,0.107244 0.49107,0.220133 0.2032,0.112889 0.31044,0.276578 0.10725,0.158044 0.10725,0.400755 z" />
        <path
           id="path7274"
           style="font-style:normal;font-variant:normal;font-weight:normal;font-stretch:normal;font-size:5.64444px;font-family:'Noto Sans';-inkscape-font-specification:'Noto Sans';text-align:center;text-anchor:middle;stroke-width:0.264583"
           d="m 150.02796,48.611364 q 0.11289,0 0.23142,-0.01693 0.11854,-0.02258 0.19191,-0.04516 v 0.378177 q -0.079,0.03951 -0.22577,0.06209 -0.14676,0.02822 -0.28223,0.02822 -0.23706,0 -0.44026,-0.07902 -0.19756,-0.08467 -0.32174,-0.287866 -0.12417,-0.2032 -0.12417,-0.570089 v -1.761065 h -0.42898 v -0.237067 l 0.43462,-0.197555 0.19756,-0.643466 h 0.29351 v 0.694266 h 0.87489 v 0.383822 h -0.87489 v 1.749776 q 0,0.276578 0.12982,0.412045 0.13547,0.129822 0.34431,0.129822 z" />
        <path
           id="path7276"
           style="font-style:normal;font-variant:normal;font-weight:normal;font-stretch:normal;font-size:5.64444px;font-family:'Noto Sans';-inkscape-font-specification:'Noto Sans';text-align:center;text-anchor:middle;stroke-width:0.264583"
           d="m 152.22364,45.879455 q 0.38946,0 0.66604,0.169333 0.28222,0.169333 0.42898,0.479777 0.1524,0.3048 0.1524,0.716844 v 0.299155 h -2.07151 q 0.0113,0.513645 0.25964,0.784578 0.254,0.265288 0.70556,0.265288 0.28786,0 0.508,-0.0508 0.22578,-0.05644 0.46284,-0.158044 v 0.434622 q -0.23142,0.1016 -0.4572,0.146755 -0.22578,0.0508 -0.53622,0.0508 -0.42898,0 -0.762,-0.174977 -0.32738,-0.174978 -0.51364,-0.519289 -0.18062,-0.349955 -0.18062,-0.85231 0,-0.496711 0.16368,-0.852311 0.16934,-0.355599 0.46849,-0.54751 0.3048,-0.191911 0.70556,-0.191911 z m -0.006,0.406399 q -0.3556,0 -0.56444,0.231422 -0.2032,0.225778 -0.24271,0.632178 h 1.54093 q -0.006,-0.383822 -0.18062,-0.620889 -0.17498,-0.242711 -0.55316,-0.242711 z" />
        <path
           id="path7278"
           style="font-style:normal;font-variant:normal;font-weight:normal;font-stretch:normal;font-size:5.64444px;font-family:'Noto Sans';-inkscape-font-specification:'Noto Sans';text-align:center;text-anchor:middle;stroke-width:0.264583"
           d="m 157.55763,45.879455 q 0.51364,0 0.76764,0.265288 0.254,0.259645 0.254,0.846666 v 1.96991 h -0.49106 v -1.947332 q 0,-0.716844 -0.61525,-0.716844 -0.44026,0 -0.63218,0.254 -0.18626,0.254 -0.18626,0.739422 v 1.670754 h -0.49107 v -1.947332 q 0,-0.716844 -0.62089,-0.716844 -0.4572,0 -0.63217,0.282222 -0.17498,0.282222 -0.17498,0.8128 v 1.569154 h -0.49671 v -3.02542 h 0.40075 l 0.0734,0.412044 h 0.0282 q 0.14111,-0.237066 0.37818,-0.349955 0.24271,-0.118533 0.51364,-0.118533 0.7112,0 0.92569,0.507999 h 0.0282 q 0.1524,-0.259644 0.41205,-0.383822 0.26529,-0.124177 0.5588,-0.124177 z" />
        <path
           id="path7280"
           style="font-style:normal;font-variant:normal;font-weight:normal;font-stretch:normal;font-size:5.64444px;font-family:'Noto Sans';-inkscape-font-specification:'Noto Sans';text-align:center;text-anchor:middle;stroke-width:0.264583"
           d="m 162.32717,48.961319 h -0.508 v -3.58422 h -1.25871 v -0.44591 h 3.01977 v 0.44591 h -1.25306 z" />
        <path
           id="path7282"
           style="font-style:normal;font-variant:normal;font-weight:normal;font-stretch:normal;font-size:5.64444px;font-family:'Noto Sans';-inkscape-font-specification:'Noto Sans';text-align:center;text-anchor:middle;stroke-width:0.264583"
           d="m 166.35729,47.442965 q 0,0.75071 -0.38382,1.162754 -0.37818,0.412044 -1.02729,0.412044 -0.40076,0 -0.71685,-0.180622 -0.31044,-0.186266 -0.49106,-0.536222 -0.18062,-0.355599 -0.18062,-0.857954 0,-0.750711 0.37817,-1.157111 0.37818,-0.406399 1.02729,-0.406399 0.41205,0 0.72249,0.186266 0.31609,0.180622 0.49107,0.530578 0.18062,0.34431 0.18062,0.846666 z m -2.286,0 q 0,0.536221 0.20884,0.85231 0.21449,0.310444 0.67734,0.310444 0.4572,0 0.67169,-0.310444 0.21448,-0.316089 0.21448,-0.85231 0,-0.536222 -0.21448,-0.841022 -0.21449,-0.3048 -0.67734,-0.3048 -0.46284,0 -0.67169,0.3048 -0.20884,0.3048 -0.20884,0.841022 z" />
        <path
           id="path7284"
           style="font-style:normal;font-variant:normal;font-weight:normal;font-stretch:normal;font-size:5.64444px;font-family:'Noto Sans';-inkscape-font-specification:'Noto Sans';text-align:center;text-anchor:middle;stroke-width:0.264583"
           d="m 168.58119,45.879455 q 0.5588,0 0.89747,0.389466 0.34431,0.389466 0.34431,1.174044 0,0.773288 -0.34431,1.174043 -0.33867,0.400755 -0.90311,0.400755 -0.34996,0 -0.58138,-0.129822 -0.22578,-0.135466 -0.3556,-0.310444 h -0.0339 q 0.0113,0.09596 0.0226,0.242711 0.0113,0.146755 0.0113,0.254 v 1.241777 h -0.49671 v -4.380086 h 0.4064 l 0.0677,0.412044 h 0.0226 q 0.13547,-0.197555 0.3556,-0.333022 0.22014,-0.135466 0.58702,-0.135466 z m -0.0903,0.417688 q -0.46284,0 -0.65475,0.259644 -0.18627,0.259645 -0.19756,0.790222 v 0.09596 q 0,0.558799 0.18062,0.863599 0.18627,0.299155 0.68298,0.299155 0.27658,0 0.45156,-0.1524 0.18062,-0.1524 0.26529,-0.412044 0.0903,-0.265288 0.0903,-0.603955 0,-0.519288 -0.2032,-0.829733 -0.19756,-0.310444 -0.61525,-0.310444 z" />
        <path
           id="path7286"
           style="font-style:normal;font-variant:normal;font-weight:normal;font-stretch:normal;font-size:5.64444px;font-family:'Noto Sans';-inkscape-font-specification:'Noto Sans';text-align:center;text-anchor:middle;stroke-width:0.264583"
           d="m 173.2435,47.442965 q 0,0.75071 -0.38382,1.162754 -0.37818,0.412044 -1.02729,0.412044 -0.40075,0 -0.71684,-0.180622 -0.31045,-0.186266 -0.49107,-0.536222 -0.18062,-0.355599 -0.18062,-0.857954 0,-0.750711 0.37818,-1.157111 0.37817,-0.406399 1.02728,-0.406399 0.41205,0 0.72249,0.186266 0.31609,0.180622 0.49107,0.530578 0.18062,0.34431 0.18062,0.846666 z m -2.286,0 q 0,0.536221 0.20885,0.85231 0.21449,0.310444 0.67733,0.310444 0.4572,0 0.67169,-0.310444 0.21449,-0.316089 0.21449,-0.85231 0,-0.536222 -0.21449,-0.841022 -0.21449,-0.3048 -0.67733,-0.3048 -0.46285,0 -0.67169,0.3048 -0.20885,0.3048 -0.20885,0.841022 z" />
        <path
           id="path7288"
           style="font-style:normal;font-variant:normal;font-weight:normal;font-stretch:normal;font-size:5.64444px;font-family:'Noto Sans';-inkscape-font-specification:'Noto Sans';text-align:center;text-anchor:middle;stroke-width:0.264583"
           d="m 174.52479,48.961319 h -0.49672 v -4.289775 h 0.49672 z" />
        <path
           id="path7290"
           style="font-style:normal;font-variant:normal;font-weight:normal;font-stretch:normal;font-size:5.64444px;font-family:'Noto Sans';-inkscape-font-specification:'Noto Sans';text-align:center;text-anchor:middle;stroke-width:0.264583"
           d="m 178.11465,47.442965 q 0,0.75071 -0.38382,1.162754 -0.37818,0.412044 -1.02729,0.412044 -0.40076,0 -0.71685,-0.180622 -0.31044,-0.186266 -0.49106,-0.536222 -0.18062,-0.355599 -0.18062,-0.857954 0,-0.750711 0.37817,-1.157111 0.37818,-0.406399 1.02729,-0.406399 0.41205,0 0.72249,0.186266 0.31609,0.180622 0.49107,0.530578 0.18062,0.34431 0.18062,0.846666 z m -2.286,0 q 0,0.536221 0.20884,0.85231 0.21449,0.310444 0.67734,0.310444 0.4572,0 0.67169,-0.310444 0.21448,-0.316089 0.21448,-0.85231 0,-0.536222 -0.21448,-0.841022 -0.21449,-0.3048 -0.67734,-0.3048 -0.46284,0 -0.67169,0.3048 -0.20884,0.3048 -0.20884,0.841022 z" />
        <path
           id="path7292"
           style="font-style:normal;font-variant:normal;font-weight:normal;font-stretch:normal;font-size:5.64444px;font-family:'Noto Sans';-inkscape-font-specification:'Noto Sans';text-align:center;text-anchor:middle;stroke-width:0.264583"
           d="m 179.97167,45.879455 q 0.29915,0 0.53622,0.112888 0.24271,0.112889 0.41204,0.344311 h 0.0282 l 0.0677,-0.400755 h 0.39511 v 3.07622 q 0,0.649111 -0.33302,0.976488 -0.32738,0.327378 -1.02165,0.327378 -0.66604,0 -1.08937,-0.191911 v -0.4572 q 0.44591,0.237066 1.11759,0.237066 0.38947,0 0.6096,-0.231422 0.22578,-0.225777 0.22578,-0.620888 v -0.118533 q 0,-0.06773 0.006,-0.191911 0.006,-0.129822 0.0113,-0.180622 h -0.0226 q -0.3048,0.457199 -0.93698,0.457199 -0.58702,0 -0.92004,-0.412044 -0.32738,-0.412044 -0.32738,-1.151466 0,-0.722488 0.32738,-1.145821 0.33302,-0.428977 0.9144,-0.428977 z m 0.0677,0.417688 q -0.37818,0 -0.58702,0.3048 -0.20885,0.299155 -0.20885,0.857955 0,0.558799 0.2032,0.857955 0.20885,0.293511 0.60396,0.293511 0.4572,0 0.66604,-0.242711 0.20885,-0.248356 0.20885,-0.795866 v -0.118534 q 0,-0.620888 -0.21449,-0.886177 -0.21449,-0.270933 -0.67169,-0.270933 z" />
        <path
           id="path7294"
           style="font-style:normal;font-variant:normal;font-weight:normal;font-stretch:normal;font-size:5.64444px;font-family:'Noto Sans';-inkscape-font-specification:'Noto Sans';text-align:center;text-anchor:middle;stroke-width:0.264583"
           d="m 181.89642,45.935899 h 0.53058 l 0.65475,1.721554 q 0.0847,0.225778 0.1524,0.434622 0.0677,0.2032 0.1016,0.389467 h 0.0226 q 0.0339,-0.141111 0.10724,-0.366889 0.0734,-0.231422 0.1524,-0.462844 l 0.61525,-1.71591 h 0.53622 l -1.30387,3.443109 q -0.15804,0.428977 -0.41204,0.682977 -0.24836,0.254 -0.68862,0.254 -0.13547,0 -0.23707,-0.01693 -0.1016,-0.01129 -0.17498,-0.02822 v -0.395111 q 0.0621,0.01129 0.14676,0.02258 0.0903,0.01129 0.18626,0.01129 0.25965,0 0.41769,-0.146756 0.16369,-0.146755 0.254,-0.389466 l 0.15805,-0.400755 z" />
      </g>
    </g>
    <g
       style="opacity:1;fill:#e94c4c;fill-opacity:1"
       id="g906">
      <path
         id="path918"
         d="m 56.28125,88.625 a 0.52916503,0.52916503 0 0 0 -0.320312,0.09766 0.52916503,0.52916503 0 0 0 -0.123047,0.738282 c 1.511184,2.112897 4.331127,3.314035 8.009765,4.166015 3.678638,0.85198 8.257741,1.344654 13.394532,1.896485 a 0.52916503,0.52916503 0 0 0 0.582031,-0.46875 0.52916503,0.52916503 0 0 0 -0.46875,-0.582032 c -5.136164,-0.551763 -9.690072,-1.048395 -13.267578,-1.876953 -3.577507,-0.828558 -6.13634,-1.999023 -7.388672,-3.75 A 0.52916503,0.52916503 0 0 0 56.28125,88.625 Z"
         style="color:#000000;font-style:normal;font-variant:normal;font-weight:normal;font-stretch:normal;font-size:medium;line-height:normal;font-family:sans-serif;font-variant-ligatures:normal;font-variant-position:normal;font-variant-caps:normal;font-variant-numeric:normal;font-variant-alternates:normal;font-variant-east-asian:normal;font-feature-settings:normal;font-variation-settings:normal;text-indent:0;text-align:start;text-decoration:none;text-decoration-line:none;text-decoration-style:solid;text-decoration-color:#000000;letter-spacing:normal;word-spacing:normal;text-transform:none;writing-mode:lr-tb;direction:ltr;text-orientation:mixed;dominant-baseline:auto;baseline-shift:baseline;text-anchor:start;white-space:normal;shape-padding:0;shape-margin:0;inline-size:0;clip-rule:nonzero;display:inline;overflow:visible;visibility:visible;isolation:auto;mix-blend-mode:normal;color-interpolation:sRGB;color-interpolation-filters:linearRGB;solid-color:#000000;solid-opacity:1;vector-effect:none;fill:#e94c4c;fill-opacity:1;fill-rule:nonzero;stroke:none;stroke-width:1.05833;stroke-linecap:round;stroke-linejoin:miter;stroke-miterlimit:4;stroke-dasharray:none;stroke-dashoffset:0;stroke-opacity:1;color-rendering:auto;image-rendering:auto;shape-rendering:auto;text-rendering:auto;enable-background:accumulate;stop-color:#000000;stop-opacity:1" />
      <g
         id="g908"
         style="fill:#e94c4c;fill-opacity:1">
        <g
           style="opacity:1;fill:#e94c4c;fill-opacity:1"
           id="g912">
          <path
             id="path914"
             d="m 66.55127,89.120351 12.147145,6.009127 -13.14633,3.291923 c 2.315379,-2.52862 2.707292,-6.286421 0.999185,-9.30105 z"
             style="color:#000000;font-style:normal;font-variant:normal;font-weight:normal;font-stretch:normal;font-size:medium;line-height:normal;font-family:sans-serif;font-variant-ligatures:normal;font-variant-position:normal;font-variant-caps:normal;font-variant-numeric:normal;font-variant-alternates:normal;font-variant-east-asian:normal;font-feature-settings:normal;font-variation-settings:normal;text-indent:0;text-align:start;text-decoration:none;text-decoration-line:none;text-decoration-style:solid;text-decoration-color:#000000;letter-spacing:normal;word-spacing:normal;text-transform:none;writing-mode:lr-tb;direction:ltr;text-orientation:mixed;dominant-baseline:auto;baseline-shift:baseline;text-anchor:start;white-space:normal;shape-padding:0;shape-margin:0;inline-size:0;clip-rule:nonzero;display:inline;overflow:visible;visibility:visible;isolation:auto;mix-blend-mode:normal;color-interpolation:sRGB;color-interpolation-filters:linearRGB;solid-color:#000000;solid-opacity:1;vector-effect:none;fill:#e94c4c;fill-opacity:1;fill-rule:evenodd;stroke:none;stroke-width:0.727602;stroke-linecap:butt;stroke-linejoin:round;stroke-miterlimit:4;stroke-dasharray:none;stroke-dashoffset:0;stroke-opacity:1;color-rendering:auto;image-rendering:auto;shape-rendering:auto;text-rendering:auto;enable-background:accumulate;stop-color:#000000;stop-opacity:1" />
          <path
             id="path916"
             d="m 66.515625,88.757812 a 0.36383738,0.36383738 0 0 0 -0.28125,0.541016 c 1.632417,2.881045 1.256782,6.465652 -0.951172,8.876953 a 0.36383738,0.36383738 0 0 0 0.357422,0.597657 l 13.146484,-3.291016 a 0.36383738,0.36383738 0 0 0 0.07227,-0.679688 L 66.712891,88.794922 a 0.36383738,0.36383738 0 0 0 -0.197266,-0.03711 z m 0.693359,1.09375 10.44336,5.166016 -11.291016,2.826172 c 1.662789,-2.335876 1.972843,-5.326255 0.847656,-7.992188 z"
             style="color:#000000;font-style:normal;font-variant:normal;font-weight:normal;font-stretch:normal;font-size:medium;line-height:normal;font-family:sans-serif;font-variant-ligatures:normal;font-variant-position:normal;font-variant-caps:normal;font-variant-numeric:normal;font-variant-alternates:normal;font-variant-east-asian:normal;font-feature-settings:normal;font-variation-settings:normal;text-indent:0;text-align:start;text-decoration:none;text-decoration-line:none;text-decoration-style:solid;text-decoration-color:#000000;letter-spacing:normal;word-spacing:normal;text-transform:none;writing-mode:lr-tb;direction:ltr;text-orientation:mixed;dominant-baseline:auto;baseline-shift:baseline;text-anchor:start;white-space:normal;shape-padding:0;shape-margin:0;inline-size:0;clip-rule:nonzero;display:inline;overflow:visible;visibility:visible;isolation:auto;mix-blend-mode:normal;color-interpolation:sRGB;color-interpolation-filters:linearRGB;solid-color:#000000;solid-opacity:1;vector-effect:none;fill:#e94c4c;fill-opacity:1;fill-rule:evenodd;stroke:none;stroke-width:0.727602;stroke-linecap:butt;stroke-linejoin:round;stroke-miterlimit:4;stroke-dasharray:none;stroke-dashoffset:0;stroke-opacity:1;color-rendering:auto;image-rendering:auto;shape-rendering:auto;text-rendering:auto;enable-background:accumulate;stop-color:#000000;stop-opacity:1" />
        </g>
      </g>
    </g>
  </g>
</svg>
