<?xml version="1.0" encoding="UTF-8" standalone="no"?>
<svg
   xmlns:dc="http://purl.org/dc/elements/1.1/"
   xmlns:cc="http://creativecommons.org/ns#"
   xmlns:rdf="http://www.w3.org/1999/02/22-rdf-syntax-ns#"
   xmlns:svg="http://www.w3.org/2000/svg"
   xmlns="http://www.w3.org/2000/svg"
   xmlns:sodipodi="http://sodipodi.sourceforge.net/DTD/sodipodi-0.dtd"
   xmlns:inkscape="http://www.inkscape.org/namespaces/inkscape"
   sodipodi:docname="Qs7.svg"
   inkscape:version="1.0 (1.0+r73+1)"
   id="svg7321"
   version="1.1"
   viewBox="0 0 185.07487 106.92292"
   height="106.92292mm"
   width="185.07486mm">
  <defs
     id="defs7315">
    <marker
       inkscape:stockid="Arrow2Mend"
       orient="auto"
       refY="0"
       refX="0"
       id="marker12676"
       style="overflow:visible"
       inkscape:isstock="true">
      <path
         id="path12674"
         style="fill:#e3e94c;fill-opacity:1;fill-rule:evenodd;stroke:#e3e94c;stroke-width:0.625;stroke-linejoin:round;stroke-opacity:1"
         d="M 8.7185878,4.0337352 -2.2072895,0.01601326 8.7185884,-4.0017078 c -1.7454984,2.3720609 -1.7354408,5.6174519 -6e-7,8.035443 z"
         transform="scale(-0.6)" />
    </marker>
    <filter
       id="filter11652"
       inkscape:label="Drop Shadow"
       style="color-interpolation-filters:sRGB">
      <feFlood
         id="feFlood11642"
         result="flood"
         flood-color="rgb(0,0,0)"
         flood-opacity="0.498039" />
      <feComposite
         id="feComposite11644"
         result="composite1"
         operator="in"
         in2="SourceGraphic"
         in="flood" />
      <feGaussianBlur
         id="feGaussianBlur11646"
         result="blur"
         stdDeviation="0.5"
         in="composite1" />
      <feOffset
         id="feOffset11648"
         result="offset"
         dy="3"
         dx="3" />
      <feComposite
         id="feComposite11650"
         result="composite2"
         operator="over"
         in2="offset"
         in="SourceGraphic" />
    </filter>
    <marker
       inkscape:isstock="true"
       style="overflow:visible"
       id="marker12676-2"
       refX="0"
       refY="0"
       orient="auto"
       inkscape:stockid="Arrow2Mend">
      <path
         transform="scale(-0.6)"
         d="M 8.7185878,4.0337352 -2.2072895,0.01601326 8.7185884,-4.0017078 c -1.7454984,2.3720609 -1.7354408,5.6174519 -6e-7,8.035443 z"
         style="fill:#e3e94c;fill-opacity:1;fill-rule:evenodd;stroke:#e3e94c;stroke-width:0.625;stroke-linejoin:round;stroke-opacity:1"
         id="path12674-5" />
    </marker>
    <filter
       style="color-interpolation-filters:sRGB"
       inkscape:label="Drop Shadow"
       id="filter11652-4">
      <feFlood
         flood-opacity="0.498039"
         flood-color="rgb(0,0,0)"
         result="flood"
         id="feFlood11642-4" />
      <feComposite
         in="flood"
         in2="SourceGraphic"
         operator="in"
         result="composite1"
         id="feComposite11644-9" />
      <feGaussianBlur
         in="composite1"
         stdDeviation="0.5"
         result="blur"
         id="feGaussianBlur11646-9" />
      <feOffset
         dx="3"
         dy="3"
         result="offset"
         id="feOffset11648-3" />
      <feComposite
         in="SourceGraphic"
         in2="offset"
         operator="over"
         result="composite2"
         id="feComposite11650-6" />
    </filter>
  </defs>
  <sodipodi:namedview
     inkscape:window-maximized="1"
     inkscape:window-y="0"
     inkscape:window-x="3840"
     inkscape:window-height="2055"
     inkscape:window-width="3840"
     fit-margin-bottom="2"
     fit-margin-right="2"
     fit-margin-left="2"
     fit-margin-top="2"
     showgrid="false"
     inkscape:document-rotation="0"
     inkscape:current-layer="layer1"
     inkscape:document-units="mm"
     inkscape:cy="251.3625"
     inkscape:cx="293.80892"
     inkscape:zoom="1.979899"
     inkscape:pageshadow="2"
     inkscape:pageopacity="0.0"
     borderopacity="1.0"
     bordercolor="#666666"
     pagecolor="#ffffff"
     id="base" />
  <metadata
     id="metadata7318">
    <rdf:RDF>
      <cc:Work
         rdf:about="">
        <dc:format>image/svg+xml</dc:format>
        <dc:type
           rdf:resource="http://purl.org/dc/dcmitype/StillImage" />
        <dc:title></dc:title>
      </cc:Work>
    </rdf:RDF>
  </metadata>
  <g
     transform="translate(0.66584199,-134.53086)"
     id="layer1"
     inkscape:groupmode="layer"
     inkscape:label="Στρώση 1">
    <g
       id="g7225"
       transform="translate(293.46311,-94.09589)">
      <g
         transform="translate(-304.78261,105.5723)"
         id="g4989">
        <path
           id="path5021"
           d="M 114.48581,227.97737 H 35.243107 v -51.46146 -51.46146 h 79.242703 79.24271 v 51.46146 51.46146 z"
           style="fill:#e3e6fb;stroke-width:0.264583" />
        <path
           id="path5019"
           d="M 115.14727,224.80237 H 38.947274 v -43.65625 -43.65625 h 76.199996 76.2 v 43.65625 43.65625 z m 0.13229,-0.52917 h 75.80312 V 181.14612 138.01903 H 115.27956 39.47644 v 43.12709 43.12708 z m -0.15538,-2.91041 H 42.934642 l -0.273893,-0.51178 -0.273892,-0.51177 v -39.12516 -39.12516 l 0.330729,-0.44905 0.330729,-0.44906 72.363535,0.0678 72.36354,0.0678 0.067,39.65935 0.067,39.65934 -0.29784,0.35889 -0.29785,0.35888 z m 0.18754,-0.79375 h 72.0668 l -0.059,-39.48907 -0.059,-39.48906 -0.1465,6.48229 -0.1465,6.48229 -0.059,-6.41614 -0.059,-6.41615 h -41.14271 -41.1427 v 6.35 6.35 h -0.26459 -0.26458 v -6.35 -6.35 H 73.638547 43.242324 l -0.11322,0.46302 -0.11322,0.46302 0.114522,38.9599 0.114522,38.9599 z M 58.509417,171.35653 H 55.84656 l 0.08317,-2.77868 0.08317,-2.77868 -2.050521,5.6e-4 -2.050521,5.5e-4 v -0.26458 -0.26458 h 26.326041 26.326041 v 0.26458 0.26458 H 80.619147 56.674356 v 2.51355 2.51354 h 2.248958 2.248959 v 0.26458 0.26458 z m 4.382647,-1.85208 h -0.132291 v -0.13229 -0.13229 h 0.132291 0.132292 v 0.13229 0.13229 z m -14.367759,-8.1206 -1.000284,0.97675 -1.113374,-1.13444 -1.113374,-1.13445 v -0.37441 -0.37441 l 1.003343,0.97974 1.003343,0.97974 h 0.242272 0.242273 l 1.003343,-0.97974 1.003343,-0.97974 v 0.31828 0.31828 h 1.190625 1.190625 v 0.2842 0.2842 l -1.325926,-0.0704 -1.325925,-0.0704 z m -1.073461,-3.94075 -0.227679,0.14072 -0.169196,-0.1692 -0.169196,-0.1692 v -1.01423 -1.01424 h 0.396875 0.396875 v 1.04272 1.04272 z"
           style="fill:#e4c9d7;stroke-width:0.264583" />
        <path
           id="path5017"
           d="M 115.14727,224.80237 H 38.947274 v -43.65625 -43.65625 h 76.199996 76.2 v 43.65625 43.65625 z m 0.13229,-0.52917 h 75.80312 V 181.14612 138.01903 H 115.27956 39.47644 v 43.12709 43.12708 z m 0.0337,-2.91446 -72.000412,-0.004 -0.331591,-0.21053 -0.331591,-0.21053 0.06701,-39.80365 0.06701,-39.80364 h 72.495824 72.49583 l 0.067,39.65935 0.067,39.65934 -0.29784,0.35889 -0.29785,0.35888 -72.00041,-0.004 z m 0.0483,-0.59079 71.88461,-0.0666 0.008,-39.55521 0.008,-39.55521 -0.14693,6.48229 -0.14694,6.48229 -0.059,-6.41614 -0.059,-6.41615 h -41.14271 -41.1427 v 6.35 6.35 h -0.26459 -0.26458 v -6.35 -6.35 H 73.607689 43.180607 l -0.03749,0.46302 -0.03749,0.46302 0.06683,38.89375 0.06683,38.89375 0.11886,0.19892 0.11886,0.19892 z M 58.509417,171.35653 H 55.84656 l 0.08317,-2.77868 0.08317,-2.77868 -2.050521,5.6e-4 -2.050521,5.5e-4 v -0.26458 -0.26458 h 26.326041 26.326041 v 0.26458 0.26458 H 80.619147 56.674356 v 2.51355 2.51354 h 2.248958 2.248959 v 0.26458 0.26458 z m -9.985112,-9.97268 -1.000284,0.97675 -1.113374,-1.13444 -1.113374,-1.13445 v -0.37441 -0.37441 l 1.003343,0.97974 1.003343,0.97974 h 0.242272 0.242273 l 1.003343,-0.97974 1.003343,-0.97974 v 0.31828 0.31828 h 1.190625 1.190625 v 0.2842 0.2842 l -1.325926,-0.0704 -1.325925,-0.0704 z m -1.073461,-3.94075 -0.227679,0.14072 -0.169196,-0.1692 -0.169196,-0.1692 v -1.01423 -1.01424 h 0.396875 0.396875 v 1.04272 1.04272 z"
           style="fill:#c8c9d5;stroke-width:0.264583" />
        <path
           id="path5015"
           d="M 115.14727,224.80237 H 38.947274 v -43.65625 -43.65625 h 76.199996 76.2 v 43.65625 43.65625 z m 0.0661,-0.33027 75.73697,-0.0666 0.0669,-43.19323 0.0669,-43.19323 H 115.28035 39.47644 v 43.25984 43.25983 z m 0.0999,-3.11336 -72.000412,-0.004 -0.331591,-0.21053 -0.331591,-0.21053 0.06701,-39.80365 0.06701,-39.80364 h 72.495824 72.49583 l 0.067,39.65935 0.067,39.65934 -0.29784,0.35889 -0.29785,0.35888 -72.00041,-0.004 z m 0.0483,-0.59079 71.88461,-0.0666 0.067,-39.48907 0.067,-39.48906 H 115.28043 43.180607 l -0.03749,0.46302 -0.03749,0.46302 0.06683,38.89375 0.06683,38.89375 0.11886,0.19892 0.11886,0.19892 z M 58.509417,171.35653 H 55.84656 l 0.08317,-2.77868 0.08317,-2.77868 -2.050521,5.6e-4 -2.050521,5.5e-4 v -0.26458 -0.26458 h 26.326041 26.326041 v 0.26458 0.26458 H 80.619147 56.674356 v 2.51355 2.51354 h 2.248958 2.248959 v 0.26458 0.26458 z M 47.521186,162.09612 H 47.25675 l -0.979738,-1.00334 -0.979739,-1.00335 v -0.37327 -0.37327 l 1.003343,0.97974 1.003343,0.97974 h 0.242272 0.242273 l 1.003343,-0.97974 1.003343,-0.97974 v 0.31828 0.31828 h 1.190625 1.190625 v 0.2842 0.2842 l -1.324192,-0.0703 -1.324192,-0.0703 -0.871216,0.84441 -0.871217,0.84442 z m -0.07034,-4.65302 -0.227679,0.14072 -0.169196,-0.1692 -0.169196,-0.1692 v -1.01423 -1.01424 h 0.396875 0.396875 v 1.04272 1.04272 z"
           style="fill:#c3c5cd;stroke-width:0.264583" />
        <path
           id="path5013"
           d="M 115.14648,224.80237 H 38.945703 l 0.06693,-43.52487 0.06693,-43.52488 76.133857,-0.0652 76.13385,-0.0652 v 43.5901 43.59011 z m 0.13308,-0.26458 h 75.80312 V 181.27841 138.01903 H 115.27956 39.47644 v 43.25938 43.25938 z m 0.0337,-3.17905 -72.000412,-0.004 -0.331591,-0.21053 -0.331591,-0.21053 0.06701,-39.80365 0.06701,-39.80364 h 72.495824 72.49583 l 0.067,39.65935 0.067,39.65934 -0.29784,0.35889 -0.29785,0.35888 -72.00041,-0.004 z m 0.0483,-0.59079 71.88461,-0.0666 0.067,-39.48907 0.067,-39.48906 H 115.28043 43.180607 l -0.03749,0.46302 -0.03749,0.46302 0.06683,38.89375 0.06683,38.89375 0.11886,0.19892 0.11886,0.19892 z M 58.663772,171.35653 h -2.508501 l -0.158429,-0.63123 -0.158429,-0.63123 0.08724,-2.14751 0.08724,-2.14752 -2.050521,5.3e-4 -2.050521,7.1e-4 v -0.26458 -0.26458 h 26.326041 26.326048 v 0.26458 0.26458 H 80.619147 56.674356 v 2.51355 2.51354 h 2.248958 2.248959 v 0.26458 0.26458 z M 47.521186,162.09612 H 47.25675 l -0.979738,-1.00334 -0.979739,-1.00335 v -0.37327 -0.37327 l 1.003343,0.97974 1.003343,0.97974 h 0.242272 0.242273 l 1.003343,-0.97974 1.003343,-0.97974 v 0.31828 0.31828 h 1.190625 1.190625 v 0.2842 0.2842 l -1.324192,-0.0703 -1.324192,-0.0703 -0.871216,0.84441 -0.871217,0.84442 z m -0.239538,-4.7625 h -0.396875 v -1.05834 -1.05833 h 0.396875 0.396875 v 1.05833 1.05834 z"
           style="fill:#bbbbc1;stroke-width:0.264583" />
        <path
           id="path5011"
           d="M 115.10317,224.80237 H 38.859079 l 0.134102,-0.1341 0.134101,-0.1341 75.977698,0.003 75.9777,0.003 v -43.25983 -43.25982 l -76.13385,-0.067 -76.133848,-0.0671 76.266138,-0.0657 76.26615,-0.0657 v 43.52396 43.52396 z m 0.21014,-3.44363 -72.000412,-0.004 -0.331591,-0.21053 -0.331591,-0.21053 0.06701,-39.80365 0.06701,-39.80364 h 72.495824 72.49583 l 0.067,39.65935 0.067,39.65934 -0.29784,0.35889 -0.29785,0.35888 -72.00041,-0.004 z m 0.0483,-0.59079 71.88461,-0.0666 0.067,-39.48907 0.067,-39.48906 H 115.28043 43.180607 l -0.03749,0.46302 -0.03749,0.46302 0.06683,38.89375 0.06683,38.89375 0.11886,0.19892 0.11886,0.19892 z M 58.658731,171.35653 h -2.513542 v -2.77812 -2.77813 h -2.116666 -2.116667 v -0.26458 -0.26458 h 26.326041 26.326043 v 0.26458 0.26458 H 80.619147 56.674356 v 2.51355 2.51354 h 2.248958 2.248959 v 0.26458 0.26458 z M 47.521186,162.09612 H 47.25675 l -1.009841,-1.03417 -1.009841,-1.03418 0.09942,-0.29824 0.09942,-0.29826 1.043908,1.06906 1.043906,1.06906 1.135738,-1.11464 1.135737,-1.11464 v 0.31967 0.31967 h 1.190625 1.190625 v 0.2842 0.2842 l -1.324192,-0.0703 -1.324192,-0.0703 -0.871216,0.84441 -0.871217,0.84442 z m -0.107246,-4.7625 h -0.264584 v -1.05834 -1.05833 h 0.264584 0.264583 v 1.05833 1.05834 z m -8.005628,58.53906 -0.09131,1.91823 v -3.83646 -3.83646 l 0.09131,1.91823 0.09131,1.91823 z"
           style="fill:#e99ca2;stroke-width:0.264583" />
        <path
           id="path5009"
           d="M 115.10317,224.80237 H 38.859079 l 0.134102,-0.1341 0.134101,-0.1341 75.977698,0.003 75.9777,0.003 v -43.25983 -43.25982 l -76.13385,-0.067 -76.133848,-0.0671 76.266138,-0.0657 76.26615,-0.0657 v 43.52396 43.52396 z m -0.0384,-3.43958 H 43.2454 l -0.297844,-0.35888 -0.297845,-0.35889 0.06701,-39.65934 0.06701,-39.65935 72.203559,-0.0666 72.20356,-0.0666 0.35842,0.29745 0.35841,0.29746 v 39.51351 39.5135 l -0.51177,0.2739 -0.51177,0.27389 z m 0.16493,-0.59484 72.01653,-0.0666 0.067,-39.48954 0.067,-39.48955 -72.16597,0.0666 -72.165965,0.0666 -0.07655,38.36459 -0.07655,38.36458 0.158977,1.12496 0.158978,1.12496 z M 58.658731,171.35653 h -2.513542 v -2.77812 -2.77813 h -2.116666 -2.116667 v -0.26458 -0.26458 h 26.326041 26.326043 v 0.26458 0.26458 H 80.619147 56.674356 v 2.51355 2.51354 h 2.248958 2.248959 v 0.26458 0.26458 z M 47.521186,162.09612 H 47.25675 l -1.009841,-1.03417 -1.009841,-1.03418 0.09942,-0.29824 0.09942,-0.29826 1.043908,1.06906 1.043906,1.06906 1.135738,-1.11464 1.135737,-1.11464 v 0.31967 0.31967 h 1.190625 1.190625 v 0.2842 0.2842 l -1.324192,-0.0703 -1.324192,-0.0703 -0.871216,0.84441 -0.871217,0.84442 z m -0.107246,-4.7625 h -0.264584 v -1.05834 -1.05833 h 0.264584 0.264583 v 1.05833 1.05834 z m -8.005628,58.53906 -0.09131,1.91823 v -3.83646 -3.83646 l 0.09131,1.91823 0.09131,1.91823 z"
           style="fill:#b2b3b3;stroke-width:0.264583" />
        <path
           id="path5007"
           d="M 115.06477,221.36279 H 43.2454 l -0.297844,-0.35888 -0.297845,-0.35889 0.06701,-39.65934 0.06701,-39.65935 72.203559,-0.0666 72.20356,-0.0666 0.35842,0.29745 0.35841,0.29746 v 39.51351 39.5135 l -0.51177,0.2739 -0.51177,0.27389 z m 0.16493,-0.59484 72.01653,-0.0666 0.067,-39.48954 0.067,-39.48955 -72.16597,0.0666 -72.165965,0.0666 -0.07655,38.36459 -0.07655,38.36458 0.158977,1.12496 0.158978,1.12496 z M 58.658731,171.35653 h -2.513542 v -2.77812 -2.77813 h -2.116666 -2.116667 v -0.26458 -0.26458 h 26.326041 26.326043 v 0.26458 0.26458 l -24.010939,-5.2e-4 -24.010937,-5.3e-4 0.0843,2.51413 0.0843,2.51414 h 2.230802 2.230803 v 0.26458 0.26458 h -2.513542 z m -9.998566,-10.37331 -1.135025,1.11394 -1.169022,-1.19115 -1.169021,-1.19114 h 0.24237 0.24237 l 0.949939,0.92759 0.949939,0.92759 0.865547,-0.89302 0.865546,-0.89302 1.238378,0.12996 1.238379,0.12996 0.251354,0.23234 0.251354,0.23235 H 51.038731 49.79519 v -0.31967 -0.31968 z m -1.246225,-3.6496 h -0.264584 v -1.05834 -1.05833 h 0.264584 0.264583 v 1.05833 1.05834 z"
           style="fill:#ec706e;stroke-width:0.264583" />
        <path
           id="path5005"
           d="m 115.32681,221.35474 -71.749328,-0.008 -0.463021,-0.26968 -0.463021,-0.26968 v -39.48915 -39.48915 l 0.3175,-0.3175 0.3175,-0.3175 h 71.99312 71.99312 l 0.3175,0.3175 0.3175,0.3175 v 39.35111 39.3511 l -0.41577,0.41577 -0.41577,0.41578 z m -0.0362,-0.52112 h 72.02178 l 0.16537,-0.82682 0.16536,-0.82683 -0.004,-38.13307 -0.004,-38.13307 -0.15953,-0.59532 -0.15954,-0.59531 H 115.11641 42.916023 v 39.37882 39.37882 l 0.176389,0.17639 0.176389,0.17639 z M 58.658731,171.35653 h -2.513542 v -2.77812 -2.77813 h -2.116666 -2.116667 v -0.26458 -0.26458 h 26.326041 26.326043 v 0.26458 0.26458 l -24.010939,-5.2e-4 -24.010937,-5.3e-4 0.0843,2.51413 0.0843,2.51414 h 2.230802 2.230803 v 0.26458 0.26458 h -2.513542 z m -9.998566,-10.37331 -1.135025,1.11394 -1.169022,-1.19115 -1.169021,-1.19114 h 0.24237 0.24237 l 0.949939,0.92759 0.949939,0.92759 0.865547,-0.89302 0.865546,-0.89302 1.238378,0.12996 1.238379,0.12996 0.251354,0.23234 0.251354,0.23235 H 51.038731 49.79519 v -0.31967 -0.31968 z m -1.246225,-3.6496 h -0.264584 v -1.05834 -1.05833 h 0.264584 0.264583 v 1.05833 1.05834 z"
           style="fill:#ec6b67;stroke-width:0.264583" />
        <path
           id="path5003"
           d="M 115.29535,221.0982 H 43.004218 l -0.176389,-0.17639 -0.176389,-0.17638 v -39.4582 -39.4582 l 0.3175,-0.3175 0.3175,-0.3175 h 71.99312 71.99312 l 0.3175,0.3175 0.3175,0.3175 v 39.21607 39.21608 l -0.1606,0.41851 -0.16059,0.41851 z m -0.005,-0.26458 h 72.02178 l 0.16537,-0.82682 0.16536,-0.82683 -0.004,-38.13307 -0.004,-38.13307 -0.15953,-0.59532 -0.15954,-0.59531 H 115.11641 42.916023 v 39.37882 39.37882 l 0.176389,0.17639 0.176389,0.17639 H 115.29059 Z M 58.658731,171.35653 h -2.513542 v -2.77812 -2.77813 h -2.116666 -2.116667 v -0.26458 -0.26458 h 26.326041 26.326043 v 0.26458 0.26458 l -24.010939,-5.2e-4 -24.010937,-5.3e-4 0.0843,2.51413 0.0843,2.51414 h 2.230802 2.230803 v 0.26458 0.26458 h -2.513542 z m -9.998566,-10.37331 -1.135025,1.11394 -1.169022,-1.19115 -1.169021,-1.19114 h 0.24237 0.24237 l 0.949939,0.92759 0.949939,0.92759 0.865547,-0.89302 0.865546,-0.89302 1.238378,0.12996 1.238379,0.12996 0.251354,0.23234 0.251354,0.23235 H 51.038731 49.79519 v -0.31967 -0.31968 z m -1.246225,-3.6496 h -0.264584 v -1.05834 -1.05833 h 0.264584 0.264583 v 1.05833 1.05834 z"
           style="fill:#ee625d;stroke-width:0.264583" />
        <path
           id="path5001"
           d="M 115.29535,221.0982 H 43.004218 l -0.176389,-0.17639 -0.176389,-0.17638 v -39.4582 -39.4582 l 0.3175,-0.3175 0.3175,-0.3175 h 71.99312 71.99312 l 0.3175,0.3175 0.3175,0.3175 v 0.34396 0.34396 h -0.26458 -0.26458 v -0.39687 -0.39688 H 115.14641 42.914294 l 0.06701,39.48906 0.06701,39.48907 72.165106,0.0666 72.1651,0.0666 v -0.52965 -0.52964 h 0.26458 0.26458 v 0.24294 0.24295 l -0.1606,0.41851 -0.16059,0.41851 z M 58.658731,171.35653 h -2.513542 v -2.77812 -2.77813 h -2.116666 -2.116667 v -0.26458 -0.26458 h 26.326041 26.326043 v 0.26458 0.26458 l -24.010939,-5.2e-4 -24.010937,-5.3e-4 0.0843,2.51413 0.0843,2.51414 h 2.230802 2.230803 v 0.26458 0.26458 h -2.513542 z m -9.998566,-10.37331 -1.135025,1.11394 -1.169022,-1.19115 -1.169021,-1.19114 h 0.24237 0.24237 l 0.949939,0.92759 0.949939,0.92759 0.865547,-0.89302 0.865546,-0.89302 1.238378,0.12996 1.238379,0.12996 0.251354,0.23234 0.251354,0.23235 H 51.038731 49.79519 v -0.31967 -0.31968 z m -1.246225,-3.6496 h -0.264584 v -1.05834 -1.05833 h 0.264584 0.264583 v 1.05833 1.05834 z"
           style="fill:#ed5e5a;stroke-width:0.264583" />
        <path
           id="path4999"
           d="M 115.13845,221.0982 H 43.004218 l -0.176389,-0.17639 -0.176389,-0.17638 v -39.4582 -39.4582 l 0.3175,-0.3175 0.3175,-0.3175 h 72.03673 72.03673 l 0.27389,0.51178 0.27389,0.51177 v 0.14968 0.14969 h -0.23372 -0.23373 l -0.13838,-0.52917 -0.13838,-0.52916 -71.79299,0.004 -71.792998,0.004 -0.3316,0.21054 -0.3316,0.21054 0.06702,39.40676 0.06702,39.40677 72.165108,0.0666 72.1651,0.0666 v -0.52965 -0.52964 h 0.26458 0.26458 v 0.34395 0.34396 l -0.3175,0.3175 -0.3175,0.3175 z M 58.658731,171.35653 h -2.513542 v -2.77812 -2.77813 h -2.116666 -2.116667 v -0.26458 -0.26458 h 26.326041 26.326043 v 0.26458 0.26458 l -24.010939,-5.2e-4 -24.010937,-5.3e-4 0.0843,2.51413 0.0843,2.51414 h 2.230802 2.230803 v 0.26458 0.26458 h -2.513542 z m -9.998566,-10.37331 -1.135025,1.11394 -1.169022,-1.19115 -1.169021,-1.19114 h 0.24237 0.24237 l 0.949939,0.92759 0.949939,0.92759 0.865547,-0.89302 0.865546,-0.89302 1.238378,0.12996 1.238379,0.12996 0.251354,0.23234 0.251354,0.23235 H 51.038731 49.79519 v -0.31967 -0.31968 z m -1.246225,-3.6496 h -0.264584 v -1.05834 -1.05833 h 0.264584 0.264583 v 1.05833 1.05834 z"
           style="fill:#ee534b;stroke-width:0.264583" />
        <path
           id="path4997"
           d="m 58.658731,171.35653 h -2.513542 v -2.79374 -2.79373 l 0.264584,0.16352 0.264583,0.16352 v 2.36563 2.36564 h 2.248958 2.248959 v 0.26458 0.26458 z m -9.998566,-10.37331 -1.135025,1.11394 -1.169022,-1.19115 -1.169021,-1.19114 h 0.24237 0.24237 l 0.949939,0.92759 0.949939,0.92759 0.865547,-0.89302 0.865546,-0.89302 1.238378,0.12996 1.238379,0.12996 0.251354,0.23234 0.251354,0.23235 H 51.038731 49.79519 v -0.31967 -0.31968 z m -1.246225,-3.6496 h -0.264584 v -1.05834 -1.05833 h 0.264584 0.264583 v 1.05833 1.05834 z"
           style="fill:#7a7b86;stroke-width:0.264583" />
        <path
           id="path4995"
           d="m 58.526439,171.35653 h -2.38125 l 0.05491,-2.71197 0.05491,-2.71198 0.08731,2.44739 0.08731,2.4474 h 2.23903 2.239029 v 0.26458 0.26458 z m -9.866274,-10.37331 -1.135025,1.11394 -1.169022,-1.19115 -1.169021,-1.19114 h 0.267769 0.267769 l 0.899056,0.92759 0.899057,0.92759 0.938783,-0.88496 0.938784,-0.88496 1.256771,0.1163 1.25677,0.11631 v 0.23794 0.23794 H 50.853523 49.79519 v -0.31967 -0.31968 z m -1.324083,-4.11262 -0.114663,0.59531 v -1.19063 -1.19062 l 0.114663,0.59531 0.114662,0.59531 z"
           style="fill:#55555a;stroke-width:0.264583" />
        <path
           id="path4993"
           d="m 58.526439,171.35653 h -2.38125 l 0.05491,-2.71197 0.05491,-2.71198 0.08731,2.44739 0.08731,2.4474 h 2.23903 2.239029 v 0.26458 0.26458 z m -9.866274,-10.37331 -1.135025,1.11394 -1.180079,-1.25706 -1.180079,-1.25706 1.069488,0.99196 1.069489,0.99195 h 0.242272 0.242273 l 1.003343,-0.97974 1.003343,-0.97974 v 0.1309 0.1309 z m 2.193358,-0.54666 h -1.190625 l 0.595313,-0.11467 0.595312,-0.11466 0.595312,0.11466 0.595313,0.11467 z m -3.517441,-3.56596 -0.114663,0.59531 v -1.19063 -1.19062 l 0.114663,0.59531 0.114662,0.59531 z"
           style="fill:#3b3b40;stroke-width:0.264583" />
        <path
           id="path4991"
           d="m 58.526439,171.26115 h -2.513541 l 1.256771,-0.0991 1.25677,-0.0991 1.256771,0.0991 1.256771,0.0991 z m -2.18677,-1.55826 -0.0991,1.25677 v -2.51354 -2.51354 l 0.0991,1.25677 0.0991,1.25677 z m -5.486146,-9.26633 h -1.190625 l 0.595313,-0.11467 0.595312,-0.11466 0.595312,0.11466 0.595313,0.11467 z m -3.517441,-3.56596 -0.114663,0.59531 v -1.19063 -1.19062 l 0.114663,0.59531 0.114662,0.59531 z"
           style="fill:#202021;stroke-width:0.264583" />
      </g>
      <g
         transform="translate(-337.33895,-97.356922)"
         style="font-style:normal;font-variant:normal;font-weight:normal;font-stretch:normal;font-size:5.64444px;line-height:1.25;font-family:'SF Mono';-inkscape-font-specification:'SF Mono';letter-spacing:0px;word-spacing:0px;fill:#000000;fill-opacity:1;stroke:none;stroke-width:0.264583"
         id="text837-38-0-1"
         aria-label="Memory Read B...">
        <path
           id="path5909"
           style="font-style:normal;font-variant:normal;font-weight:normal;font-stretch:normal;font-size:5.64444px;font-family:'Noto Sans';-inkscape-font-specification:'Noto Sans';text-align:center;text-anchor:middle;stroke-width:0.264583"
           d="m 88.987649,364.15518 -1.326444,-3.53342 h -0.02258 q 0.01693,0.17498 0.02822,0.47414 0.01129,0.29351 0.01129,0.61524 v 2.44404 H 87.20965 v -4.03013 h 0.750711 l 1.241777,3.302 h 0.02258 l 1.264355,-3.302 h 0.745066 v 4.03013 h -0.502355 v -2.47791 q 0,-0.29351 0.01129,-0.58137 0.01693,-0.28787 0.02822,-0.46849 h -0.02258 l -1.343377,3.52777 z" />
        <path
           id="path5911"
           style="font-style:normal;font-variant:normal;font-weight:normal;font-stretch:normal;font-size:5.64444px;font-family:'Noto Sans';-inkscape-font-specification:'Noto Sans';text-align:center;text-anchor:middle;stroke-width:0.264583"
           d="m 93.429821,361.07332 q 0.389466,0 0.666044,0.16933 0.282222,0.16933 0.428977,0.47978 0.1524,0.3048 0.1524,0.71684 v 0.29916 h -2.071509 q 0.01129,0.51364 0.259644,0.78457 0.254,0.26529 0.705555,0.26529 0.287866,0 0.508,-0.0508 0.225777,-0.0564 0.462844,-0.15804 v 0.43462 q -0.231422,0.1016 -0.4572,0.14676 -0.225778,0.0508 -0.536222,0.0508 -0.428977,0 -0.761999,-0.17498 -0.327378,-0.17498 -0.513644,-0.51929 -0.180622,-0.34996 -0.180622,-0.85231 0,-0.49671 0.163688,-0.85231 0.169334,-0.3556 0.468489,-0.54751 0.3048,-0.19191 0.705555,-0.19191 z m -0.0056,0.4064 q -0.3556,0 -0.564444,0.23142 -0.2032,0.22578 -0.242711,0.63218 h 1.540932 q -0.0056,-0.38383 -0.180622,-0.62089 -0.174978,-0.24271 -0.553155,-0.24271 z" />
        <path
           id="path5913"
           style="font-style:normal;font-variant:normal;font-weight:normal;font-stretch:normal;font-size:5.64444px;font-family:'Noto Sans';-inkscape-font-specification:'Noto Sans';text-align:center;text-anchor:middle;stroke-width:0.264583"
           d="m 98.763812,361.07332 q 0.513644,0 0.767644,0.26529 0.254,0.25964 0.254,0.84666 v 1.96991 h -0.491067 v -1.94733 q 0,-0.71684 -0.615244,-0.71684 -0.440266,0 -0.632177,0.254 -0.186266,0.254 -0.186266,0.73942 v 1.67075 h -0.491067 v -1.94733 q 0,-0.71684 -0.620888,-0.71684 -0.4572,0 -0.632177,0.28222 -0.174978,0.28222 -0.174978,0.8128 v 1.56915 h -0.496711 v -3.02542 h 0.400755 l 0.07338,0.41205 h 0.02822 q 0.141111,-0.23707 0.378178,-0.34996 0.242711,-0.11853 0.513644,-0.11853 0.711199,0 0.925688,0.508 h 0.02822 q 0.1524,-0.25965 0.412044,-0.38382 0.265289,-0.12418 0.5588,-0.12418 z" />
        <path
           id="path5915"
           style="font-style:normal;font-variant:normal;font-weight:normal;font-stretch:normal;font-size:5.64444px;font-family:'Noto Sans';-inkscape-font-specification:'Noto Sans';text-align:center;text-anchor:middle;stroke-width:0.264583"
           d="m 103.35274,362.63683 q 0,0.75071 -0.38382,1.16275 -0.37818,0.41205 -1.02729,0.41205 -0.40076,0 -0.71684,-0.18063 -0.31045,-0.18626 -0.49107,-0.53622 -0.18062,-0.3556 -0.18062,-0.85795 0,-0.75071 0.37817,-1.15711 0.37818,-0.4064 1.02729,-0.4064 0.41205,0 0.72249,0.18626 0.31609,0.18063 0.49107,0.53058 0.18062,0.34431 0.18062,0.84667 z m -2.286,0 q 0,0.53622 0.20885,0.85231 0.21448,0.31044 0.67733,0.31044 0.4572,0 0.67169,-0.31044 0.21449,-0.31609 0.21449,-0.85231 0,-0.53622 -0.21449,-0.84102 -0.21449,-0.3048 -0.67734,-0.3048 -0.46284,0 -0.67168,0.3048 -0.20885,0.3048 -0.20885,0.84102 z" />
        <path
           id="path5917"
           style="font-style:normal;font-variant:normal;font-weight:normal;font-stretch:normal;font-size:5.64444px;font-family:'Noto Sans';-inkscape-font-specification:'Noto Sans';text-align:center;text-anchor:middle;stroke-width:0.264583"
           d="m 105.54842,361.07332 q 0.0847,0 0.18062,0.0113 0.1016,0.006 0.17498,0.0226 l -0.0621,0.4572 q -0.0734,-0.0169 -0.16369,-0.0282 -0.0847,-0.0113 -0.16368,-0.0113 -0.23143,0 -0.43463,0.12982 -0.2032,0.12418 -0.32737,0.3556 -0.11854,0.22578 -0.11854,0.53058 v 1.61431 h -0.49671 v -3.02542 h 0.4064 l 0.0564,0.55316 h 0.0226 q 0.14676,-0.24836 0.37818,-0.42898 0.23142,-0.18062 0.54751,-0.18062 z" />
        <path
           id="path5919"
           style="font-style:normal;font-variant:normal;font-weight:normal;font-stretch:normal;font-size:5.64444px;font-family:'Noto Sans';-inkscape-font-specification:'Noto Sans';text-align:center;text-anchor:middle;stroke-width:0.264583"
           d="m 105.99432,361.12976 h 0.53058 l 0.65476,1.72156 q 0.0847,0.22577 0.1524,0.43462 0.0677,0.2032 0.1016,0.38946 h 0.0226 q 0.0339,-0.14111 0.10725,-0.36688 0.0734,-0.23143 0.1524,-0.46285 l 0.61524,-1.71591 h 0.53622 l -1.30386,3.44311 q -0.15805,0.42898 -0.41205,0.68298 -0.24835,0.254 -0.68862,0.254 -0.13546,0 -0.23706,-0.0169 -0.1016,-0.0113 -0.17498,-0.0282 v -0.39511 q 0.0621,0.0113 0.14675,0.0226 0.0903,0.0113 0.18627,0.0113 0.25964,0 0.41769,-0.14676 0.16369,-0.14675 0.254,-0.38946 l 0.15804,-0.40076 z" />
        <path
           id="path5921"
           style="font-style:normal;font-variant:normal;font-weight:normal;font-stretch:normal;font-size:5.64444px;font-family:'Noto Sans';-inkscape-font-specification:'Noto Sans';text-align:center;text-anchor:middle;stroke-width:0.264583"
           d="m 111.99434,360.12505 q 0.75071,0 1.10631,0.28787 0.36125,0.28222 0.36125,0.85795 0,0.32174 -0.11853,0.53622 -0.11854,0.21449 -0.3048,0.34432 -0.18063,0.12417 -0.38383,0.19755 l 1.10631,1.80622 h -0.59266 l -0.97649,-1.66511 h -0.80151 v 1.66511 h -0.508 v -4.03013 z m -0.0282,0.44027 h -0.57573 v 1.49577 h 0.60395 q 0.49107,0 0.71685,-0.19191 0.22578,-0.19755 0.22578,-0.57573 0,-0.39511 -0.23707,-0.5588 -0.23707,-0.16933 -0.73378,-0.16933 z" />
        <path
           id="path5923"
           style="font-style:normal;font-variant:normal;font-weight:normal;font-stretch:normal;font-size:5.64444px;font-family:'Noto Sans';-inkscape-font-specification:'Noto Sans';text-align:center;text-anchor:middle;stroke-width:0.264583"
           d="m 115.4939,361.07332 q 0.38946,0 0.66604,0.16933 0.28222,0.16933 0.42898,0.47978 0.1524,0.3048 0.1524,0.71684 v 0.29916 h -2.07151 q 0.0113,0.51364 0.25964,0.78457 0.254,0.26529 0.70556,0.26529 0.28786,0 0.508,-0.0508 0.22577,-0.0564 0.46284,-0.15804 v 0.43462 q -0.23142,0.1016 -0.4572,0.14676 -0.22578,0.0508 -0.53622,0.0508 -0.42898,0 -0.762,-0.17498 -0.32738,-0.17498 -0.51364,-0.51929 -0.18063,-0.34996 -0.18063,-0.85231 0,-0.49671 0.16369,-0.85231 0.16934,-0.3556 0.46849,-0.54751 0.3048,-0.19191 0.70556,-0.19191 z m -0.006,0.4064 q -0.3556,0 -0.56444,0.23142 -0.2032,0.22578 -0.24271,0.63218 h 1.54093 q -0.006,-0.38383 -0.18062,-0.62089 -0.17498,-0.24271 -0.55316,-0.24271 z" />
        <path
           id="path5925"
           style="font-style:normal;font-variant:normal;font-weight:normal;font-stretch:normal;font-size:5.64444px;font-family:'Noto Sans';-inkscape-font-specification:'Noto Sans';text-align:center;text-anchor:middle;stroke-width:0.264583"
           d="m 118.65478,361.07896 q 0.55315,0 0.81844,0.24271 0.26529,0.24271 0.26529,0.77329 v 2.06022 h -0.36124 l -0.096,-0.42898 h -0.0226 q -0.19755,0.24836 -0.41768,0.36689 -0.21449,0.11854 -0.59832,0.11854 -0.41204,0 -0.68297,-0.21449 -0.27094,-0.22014 -0.27094,-0.68298 0,-0.45155 0.3556,-0.69427 0.3556,-0.24835 1.09503,-0.27093 l 0.51364,-0.0169 v -0.18062 q 0,-0.37818 -0.16369,-0.52494 -0.16369,-0.14675 -0.46284,-0.14675 -0.23707,0 -0.45156,0.0734 -0.21449,0.0677 -0.40075,0.15805 l -0.1524,-0.37253 q 0.19755,-0.10725 0.46848,-0.18063 0.27094,-0.079 0.56445,-0.079 z m 0.59267,1.59738 -0.44592,0.0169 q -0.56444,0.0226 -0.78457,0.18062 -0.21449,0.15805 -0.21449,0.44591 0,0.254 0.1524,0.37254 0.15804,0.11853 0.40075,0.11853 0.38383,0 0.63783,-0.20884 0.254,-0.21449 0.254,-0.65476 z" />
        <path
           id="path5927"
           style="font-style:normal;font-variant:normal;font-weight:normal;font-stretch:normal;font-size:5.64444px;font-family:'Noto Sans';-inkscape-font-specification:'Noto Sans';text-align:center;text-anchor:middle;stroke-width:0.264583"
           d="m 121.74793,364.21163 q -0.56445,0 -0.90311,-0.38947 -0.33867,-0.39511 -0.33867,-1.17404 0,-0.77894 0.33867,-1.17405 0.34431,-0.40075 0.90875,-0.40075 0.34996,0 0.57009,0.12982 0.22578,0.12982 0.36689,0.31609 h 0.0339 q -0.006,-0.0734 -0.0226,-0.21449 -0.0113,-0.14676 -0.0113,-0.23142 v -1.20791 h 0.49671 v 4.28977 h -0.40076 l -0.0734,-0.4064 h -0.0226 q -0.13547,0.19191 -0.36125,0.32738 -0.22577,0.13547 -0.58137,0.13547 z m 0.079,-0.41205 q 0.47978,0 0.67169,-0.25964 0.19755,-0.26529 0.19755,-0.79587 v -0.0903 q 0,-0.56444 -0.18626,-0.8636 -0.18627,-0.3048 -0.68863,-0.3048 -0.40075,0 -0.60395,0.32173 -0.19756,0.31609 -0.19756,0.85232 0,0.54186 0.19756,0.84102 0.2032,0.29915 0.6096,0.29915 z" />
        <path
           id="path5929"
           style="font-style:normal;font-variant:normal;font-weight:normal;font-stretch:normal;font-size:5.64444px;font-family:'Noto Sans';-inkscape-font-specification:'Noto Sans';text-align:center;text-anchor:middle;stroke-width:0.264583"
           d="m 125.68209,360.12505 h 1.15146 q 0.75636,0 1.14018,0.22578 0.38947,0.22013 0.38947,0.77329 0,0.3556 -0.19756,0.59266 -0.19755,0.23143 -0.57009,0.29916 v 0.0282 q 0.254,0.0395 0.4572,0.14676 0.20885,0.10724 0.32738,0.3048 0.11853,0.19755 0.11853,0.51364 0,0.54751 -0.37817,0.84667 -0.37254,0.29915 -1.02165,0.29915 h -1.41675 z m 0.508,1.71591 h 0.74506 q 0.51929,0 0.7112,-0.16369 0.19192,-0.16933 0.19192,-0.49671 0,-0.33302 -0.23707,-0.47413 -0.23142,-0.14676 -0.74507,-0.14676 h -0.66604 z m 0,0.42333 v 1.46191 h 0.8128 q 0.53622,0 0.74506,-0.20884 0.20885,-0.20884 0.20885,-0.54751 0,-0.31609 -0.22013,-0.508 -0.21449,-0.19756 -0.77329,-0.19756 z" />
        <path
           id="path5931"
           style="font-style:normal;font-variant:normal;font-weight:normal;font-stretch:normal;font-size:5.64444px;font-family:'Noto Sans';-inkscape-font-specification:'Noto Sans';text-align:center;text-anchor:middle;stroke-width:0.264583"
           d="m 129.15342,363.85038 q 0,-0.20884 0.1016,-0.29351 0.1016,-0.0847 0.24271,-0.0847 0.14675,0 0.24835,0.0847 0.10725,0.0847 0.10725,0.29351 0,0.2032 -0.10725,0.29351 -0.1016,0.0903 -0.24835,0.0903 -0.14111,0 -0.24271,-0.0903 -0.1016,-0.0903 -0.1016,-0.29351 z" />
        <path
           id="path5933"
           style="font-style:normal;font-variant:normal;font-weight:normal;font-stretch:normal;font-size:5.64444px;font-family:'Noto Sans';-inkscape-font-specification:'Noto Sans';text-align:center;text-anchor:middle;stroke-width:0.264583"
           d="m 130.66612,363.85038 q 0,-0.20884 0.1016,-0.29351 0.1016,-0.0847 0.24271,-0.0847 0.14676,0 0.24836,0.0847 0.10724,0.0847 0.10724,0.29351 0,0.2032 -0.10724,0.29351 -0.1016,0.0903 -0.24836,0.0903 -0.14111,0 -0.24271,-0.0903 -0.1016,-0.0903 -0.1016,-0.29351 z" />
        <path
           id="path5935"
           style="font-style:normal;font-variant:normal;font-weight:normal;font-stretch:normal;font-size:5.64444px;font-family:'Noto Sans';-inkscape-font-specification:'Noto Sans';text-align:center;text-anchor:middle;stroke-width:0.264583"
           d="m 132.17883,363.85038 q 0,-0.20884 0.1016,-0.29351 0.1016,-0.0847 0.24271,-0.0847 0.14676,0 0.24836,0.0847 0.10724,0.0847 0.10724,0.29351 0,0.2032 -0.10724,0.29351 -0.1016,0.0903 -0.24836,0.0903 -0.14111,0 -0.24271,-0.0903 -0.1016,-0.0903 -0.1016,-0.29351 z" />
      </g>
      <g
         transform="translate(-337.33895,-97.356922)"
         style="font-style:normal;font-variant:normal;font-weight:normal;font-stretch:normal;font-size:5.64444px;line-height:1.25;font-family:'SF Mono';-inkscape-font-specification:'SF Mono';letter-spacing:0px;word-spacing:0px;fill:#000000;fill-opacity:1;stroke:none;stroke-width:0.264583"
         id="text837-38-0-1-5"
         aria-label="Memory Rea...">
        <path
           id="path5938"
           style="font-style:normal;font-variant:normal;font-weight:normal;font-stretch:normal;font-size:5.64444px;font-family:'Noto Sans';-inkscape-font-specification:'Noto Sans';text-align:center;text-anchor:middle;stroke-width:0.264583"
           d="m 97.944282,375.83505 -1.326443,-3.53342 h -0.02258 q 0.01693,0.17498 0.02822,0.47414 0.01129,0.29351 0.01129,0.61524 v 2.44404 H 96.16628 v -4.03013 h 0.750711 l 1.241777,3.302 h 0.02258 l 1.264354,-3.302 h 0.745068 v 4.03013 h -0.502357 v -2.47791 q 0,-0.29351 0.01129,-0.58137 0.01693,-0.28787 0.02822,-0.46849 h -0.02258 l -1.343376,3.52777 z" />
        <path
           id="path5940"
           style="font-style:normal;font-variant:normal;font-weight:normal;font-stretch:normal;font-size:5.64444px;font-family:'Noto Sans';-inkscape-font-specification:'Noto Sans';text-align:center;text-anchor:middle;stroke-width:0.264583"
           d="m 102.38645,372.75319 q 0.38947,0 0.66605,0.16933 0.28222,0.16933 0.42898,0.47978 0.1524,0.3048 0.1524,0.71684 v 0.29916 h -2.07151 q 0.0113,0.51364 0.25964,0.78458 0.254,0.26528 0.70556,0.26528 0.28786,0 0.50799,-0.0508 0.22578,-0.0564 0.46285,-0.15804 v 0.43462 q -0.23142,0.1016 -0.4572,0.14676 -0.22578,0.0508 -0.53622,0.0508 -0.42898,0 -0.762,-0.17498 -0.32738,-0.17498 -0.51365,-0.51929 -0.18062,-0.34995 -0.18062,-0.85231 0,-0.49671 0.16369,-0.85231 0.16933,-0.3556 0.46849,-0.54751 0.3048,-0.19191 0.70555,-0.19191 z m -0.006,0.4064 q -0.3556,0 -0.56444,0.23142 -0.2032,0.22578 -0.24272,0.63218 h 1.54094 q -0.006,-0.38382 -0.18063,-0.62089 -0.17497,-0.24271 -0.55315,-0.24271 z" />
        <path
           id="path5942"
           style="font-style:normal;font-variant:normal;font-weight:normal;font-stretch:normal;font-size:5.64444px;font-family:'Noto Sans';-inkscape-font-specification:'Noto Sans';text-align:center;text-anchor:middle;stroke-width:0.264583"
           d="m 107.72045,372.75319 q 0.51364,0 0.76764,0.26529 0.254,0.25964 0.254,0.84666 v 1.96991 h -0.49107 v -1.94733 q 0,-0.71684 -0.61524,-0.71684 -0.44027,0 -0.63218,0.254 -0.18627,0.254 -0.18627,0.73942 v 1.67075 h -0.49106 v -1.94733 q 0,-0.71684 -0.62089,-0.71684 -0.4572,0 -0.63218,0.28222 -0.17497,0.28222 -0.17497,0.8128 v 1.56915 h -0.49672 v -3.02542 h 0.40076 l 0.0734,0.41205 h 0.0282 q 0.14111,-0.23707 0.37818,-0.34996 0.24271,-0.11853 0.51364,-0.11853 0.7112,0 0.92569,0.508 h 0.0282 q 0.1524,-0.25965 0.41205,-0.38382 0.26528,-0.12418 0.5588,-0.12418 z" />
        <path
           id="path5944"
           style="font-style:normal;font-variant:normal;font-weight:normal;font-stretch:normal;font-size:5.64444px;font-family:'Noto Sans';-inkscape-font-specification:'Noto Sans';text-align:center;text-anchor:middle;stroke-width:0.264583"
           d="m 112.30937,374.3167 q 0,0.75071 -0.38382,1.16275 -0.37818,0.41205 -1.02729,0.41205 -0.40075,0 -0.71684,-0.18063 -0.31045,-0.18626 -0.49107,-0.53622 -0.18062,-0.3556 -0.18062,-0.85795 0,-0.75071 0.37818,-1.15711 0.37817,-0.4064 1.02729,-0.4064 0.41204,0 0.72248,0.18626 0.31609,0.18063 0.49107,0.53058 0.18062,0.34431 0.18062,0.84667 z m -2.286,0 q 0,0.53622 0.20885,0.85231 0.21449,0.31044 0.67733,0.31044 0.4572,0 0.67169,-0.31044 0.21449,-0.31609 0.21449,-0.85231 0,-0.53622 -0.21449,-0.84102 -0.21449,-0.3048 -0.67733,-0.3048 -0.46285,0 -0.67169,0.3048 -0.20885,0.3048 -0.20885,0.84102 z" />
        <path
           id="path5946"
           style="font-style:normal;font-variant:normal;font-weight:normal;font-stretch:normal;font-size:5.64444px;font-family:'Noto Sans';-inkscape-font-specification:'Noto Sans';text-align:center;text-anchor:middle;stroke-width:0.264583"
           d="m 114.50506,372.75319 q 0.0847,0 0.18062,0.0113 0.1016,0.006 0.17498,0.0226 l -0.0621,0.4572 q -0.0734,-0.0169 -0.16369,-0.0282 -0.0847,-0.0113 -0.16369,-0.0113 -0.23142,0 -0.43462,0.12983 -0.2032,0.12417 -0.32738,0.3556 -0.11853,0.22577 -0.11853,0.53057 v 1.61431 h -0.49671 v -3.02542 h 0.4064 l 0.0564,0.55316 h 0.0226 q 0.14675,-0.24836 0.37818,-0.42898 0.23142,-0.18062 0.54751,-0.18062 z" />
        <path
           id="path5948"
           style="font-style:normal;font-variant:normal;font-weight:normal;font-stretch:normal;font-size:5.64444px;font-family:'Noto Sans';-inkscape-font-specification:'Noto Sans';text-align:center;text-anchor:middle;stroke-width:0.264583"
           d="m 114.95096,372.80963 h 0.53057 l 0.65476,1.72156 q 0.0847,0.22577 0.1524,0.43462 0.0677,0.2032 0.1016,0.38947 h 0.0226 q 0.0339,-0.14112 0.10724,-0.36689 0.0734,-0.23143 0.1524,-0.46285 l 0.61525,-1.71591 h 0.53622 l -1.30387,3.44311 q -0.15804,0.42898 -0.41204,0.68298 -0.24836,0.254 -0.68862,0.254 -0.13547,0 -0.23707,-0.0169 -0.1016,-0.0113 -0.17498,-0.0282 v -0.39511 q 0.0621,0.0113 0.14676,0.0226 0.0903,0.0113 0.18626,0.0113 0.25965,0 0.41769,-0.14676 0.16369,-0.14675 0.254,-0.38946 l 0.15805,-0.40076 z" />
        <path
           id="path5950"
           style="font-style:normal;font-variant:normal;font-weight:normal;font-stretch:normal;font-size:5.64444px;font-family:'Noto Sans';-inkscape-font-specification:'Noto Sans';text-align:center;text-anchor:middle;stroke-width:0.264583"
           d="m 120.95098,371.80492 q 0.75071,0 1.10631,0.28787 0.36124,0.28222 0.36124,0.85795 0,0.32174 -0.11853,0.53623 -0.11853,0.21448 -0.3048,0.34431 -0.18062,0.12417 -0.38382,0.19755 l 1.10631,1.80622 h -0.59267 l -0.97649,-1.66511 h -0.80151 v 1.66511 h -0.508 v -4.03013 z m -0.0282,0.44027 h -0.57573 v 1.49578 h 0.60396 q 0.49106,0 0.71684,-0.19192 0.22578,-0.19755 0.22578,-0.57573 0,-0.39511 -0.23707,-0.5588 -0.23706,-0.16933 -0.73378,-0.16933 z" />
        <path
           id="path5952"
           style="font-style:normal;font-variant:normal;font-weight:normal;font-stretch:normal;font-size:5.64444px;font-family:'Noto Sans';-inkscape-font-specification:'Noto Sans';text-align:center;text-anchor:middle;stroke-width:0.264583"
           d="m 124.45053,372.75319 q 0.38947,0 0.66604,0.16933 0.28223,0.16933 0.42898,0.47978 0.1524,0.3048 0.1524,0.71684 v 0.29916 h -2.07151 q 0.0113,0.51364 0.25965,0.78458 0.254,0.26528 0.70555,0.26528 0.28787,0 0.508,-0.0508 0.22578,-0.0564 0.46284,-0.15804 v 0.43462 q -0.23142,0.1016 -0.4572,0.14676 -0.22577,0.0508 -0.53622,0.0508 -0.42897,0 -0.762,-0.17498 -0.32737,-0.17498 -0.51364,-0.51929 -0.18062,-0.34995 -0.18062,-0.85231 0,-0.49671 0.16369,-0.85231 0.16933,-0.3556 0.46848,-0.54751 0.3048,-0.19191 0.70556,-0.19191 z m -0.006,0.4064 q -0.3556,0 -0.56445,0.23142 -0.2032,0.22578 -0.24271,0.63218 h 1.54093 q -0.006,-0.38382 -0.18062,-0.62089 -0.17498,-0.24271 -0.55315,-0.24271 z" />
        <path
           id="path5954"
           style="font-style:normal;font-variant:normal;font-weight:normal;font-stretch:normal;font-size:5.64444px;font-family:'Noto Sans';-inkscape-font-specification:'Noto Sans';text-align:center;text-anchor:middle;stroke-width:0.264583"
           d="m 127.61141,372.75883 q 0.55316,0 0.81845,0.24271 0.26528,0.24271 0.26528,0.77329 v 2.06022 h -0.36124 l -0.0959,-0.42897 h -0.0226 q -0.19756,0.24835 -0.41769,0.36688 -0.21449,0.11854 -0.59831,0.11854 -0.41205,0 -0.68298,-0.21449 -0.27093,-0.22014 -0.27093,-0.68298 0,-0.45155 0.3556,-0.69427 0.3556,-0.24835 1.09502,-0.27093 l 0.51364,-0.0169 v -0.18062 q 0,-0.37818 -0.16369,-0.52494 -0.16368,-0.14675 -0.46284,-0.14675 -0.23707,0 -0.45156,0.0734 -0.21448,0.0677 -0.40075,0.15804 l -0.1524,-0.37253 q 0.19756,-0.10725 0.46849,-0.18063 0.27093,-0.079 0.56444,-0.079 z m 0.59267,1.59738 -0.44591,0.0169 q -0.56445,0.0226 -0.78458,0.18062 -0.21449,0.15805 -0.21449,0.44592 0,0.254 0.1524,0.37253 0.15805,0.11853 0.40076,0.11853 0.38382,0 0.63782,-0.20884 0.254,-0.21449 0.254,-0.65476 z" />
        <path
           id="path5956"
           style="font-style:normal;font-variant:normal;font-weight:normal;font-stretch:normal;font-size:5.64444px;font-family:'Noto Sans';-inkscape-font-specification:'Noto Sans';text-align:center;text-anchor:middle;stroke-width:0.264583"
           d="m 129.55874,375.53025 q 0,-0.20884 0.1016,-0.29351 0.1016,-0.0847 0.24271,-0.0847 0.14675,0 0.24835,0.0847 0.10725,0.0847 0.10725,0.29351 0,0.2032 -0.10725,0.29351 -0.1016,0.0903 -0.24835,0.0903 -0.14111,0 -0.24271,-0.0903 -0.1016,-0.0903 -0.1016,-0.29351 z" />
        <path
           id="path5958"
           style="font-style:normal;font-variant:normal;font-weight:normal;font-stretch:normal;font-size:5.64444px;font-family:'Noto Sans';-inkscape-font-specification:'Noto Sans';text-align:center;text-anchor:middle;stroke-width:0.264583"
           d="m 131.07144,375.53025 q 0,-0.20884 0.1016,-0.29351 0.1016,-0.0847 0.24272,-0.0847 0.14675,0 0.24835,0.0847 0.10725,0.0847 0.10725,0.29351 0,0.2032 -0.10725,0.29351 -0.1016,0.0903 -0.24835,0.0903 -0.14112,0 -0.24272,-0.0903 -0.1016,-0.0903 -0.1016,-0.29351 z" />
        <path
           id="path5960"
           style="font-style:normal;font-variant:normal;font-weight:normal;font-stretch:normal;font-size:5.64444px;font-family:'Noto Sans';-inkscape-font-specification:'Noto Sans';text-align:center;text-anchor:middle;stroke-width:0.264583"
           d="m 132.58415,375.53025 q 0,-0.20884 0.1016,-0.29351 0.1016,-0.0847 0.24271,-0.0847 0.14676,0 0.24836,0.0847 0.10724,0.0847 0.10724,0.29351 0,0.2032 -0.10724,0.29351 -0.1016,0.0903 -0.24836,0.0903 -0.14111,0 -0.24271,-0.0903 -0.1016,-0.0903 -0.1016,-0.29351 z" />
      </g>
      <g
         transform="translate(-337.33895,-97.356922)"
         style="font-style:normal;font-variant:normal;font-weight:normal;font-stretch:normal;font-size:5.64444px;line-height:1.25;font-family:'SF Mono';-inkscape-font-specification:'SF Mono';letter-spacing:0px;word-spacing:0px;fill:#000000;fill-opacity:1;stroke:none;stroke-width:0.264583"
         id="text837-38-0-1-0-6"
         aria-label="25.68 GB/s">
        <path
           id="path5963"
           style="font-style:normal;font-variant:normal;font-weight:normal;font-stretch:normal;font-size:5.64444px;font-family:'Noto Sans';-inkscape-font-specification:'Noto Sans';text-align:center;text-anchor:middle;stroke-width:0.264583"
           d="m 142.5963,365.30823 h -2.66417 v -0.41205 l 1.05551,-1.0668 q 0.3048,-0.3048 0.51364,-0.54186 0.20885,-0.23707 0.31609,-0.46285 0.10724,-0.23142 0.10724,-0.50235 0,-0.33302 -0.19755,-0.50236 -0.19756,-0.17497 -0.51365,-0.17497 -0.29351,0 -0.51928,0.1016 -0.22014,0.1016 -0.45156,0.28222 l -0.26529,-0.33302 q 0.23707,-0.19756 0.54187,-0.33303 0.31044,-0.14111 0.69426,-0.14111 0.56445,0 0.89183,0.28787 0.32737,0.28222 0.32737,0.78458 0,0.31609 -0.12982,0.59266 -0.12982,0.27658 -0.36124,0.54751 -0.23142,0.26529 -0.54187,0.57009 l -0.84102,0.82973 v 0.0226 h 2.03764 z" />
        <path
           id="path5965"
           style="font-style:normal;font-variant:normal;font-weight:normal;font-stretch:normal;font-size:5.64444px;font-family:'Noto Sans';-inkscape-font-specification:'Noto Sans';text-align:center;text-anchor:middle;stroke-width:0.264583"
           d="m 144.44203,362.83596 q 0.62088,0 0.98777,0.31045 0.36689,0.31044 0.36689,0.87489 0,0.62653 -0.40075,0.98777 -0.39511,0.3556 -1.10631,0.3556 -0.31045,0 -0.58703,-0.0564 -0.27093,-0.0564 -0.4572,-0.16369 v -0.46849 q 0.2032,0.12418 0.49107,0.19756 0.29351,0.0677 0.5588,0.0677 0.44591,0 0.71684,-0.20885 0.27658,-0.21448 0.27658,-0.66039 0,-0.39512 -0.24271,-0.60396 -0.24271,-0.21449 -0.76764,-0.21449 -0.15805,0 -0.36125,0.0282 -0.2032,0.0282 -0.32737,0.0564 l -0.24836,-0.15805 0.1524,-1.90217 h 2.02071 v 0.45155 h -1.59738 l -0.0959,1.1684 q 0.0959,-0.0169 0.25964,-0.0395 0.16369,-0.0226 0.36125,-0.0226 z" />
        <path
           id="path5967"
           style="font-style:normal;font-variant:normal;font-weight:normal;font-stretch:normal;font-size:5.64444px;font-family:'Noto Sans';-inkscape-font-specification:'Noto Sans';text-align:center;text-anchor:middle;stroke-width:0.264583"
           d="m 146.52482,365.00343 q 0,-0.20885 0.1016,-0.29351 0.1016,-0.0847 0.24271,-0.0847 0.14675,0 0.24835,0.0847 0.10725,0.0847 0.10725,0.29351 0,0.2032 -0.10725,0.29351 -0.1016,0.0903 -0.24835,0.0903 -0.14111,0 -0.24271,-0.0903 -0.1016,-0.0903 -0.1016,-0.29351 z" />
        <path
           id="path5969"
           style="font-style:normal;font-variant:normal;font-weight:normal;font-stretch:normal;font-size:5.64444px;font-family:'Noto Sans';-inkscape-font-specification:'Noto Sans';text-align:center;text-anchor:middle;stroke-width:0.264583"
           d="m 147.94157,363.58667 q 0,-0.43462 0.0734,-0.85231 0.079,-0.42333 0.27657,-0.762 0.2032,-0.34431 0.56445,-0.54751 0.36124,-0.2032 0.93133,-0.2032 0.11853,0 0.25965,0.0113 0.14675,0.0113 0.23706,0.0395 v 0.42334 q -0.1016,-0.0339 -0.23142,-0.0508 -0.12418,-0.0169 -0.254,-0.0169 -0.38947,0 -0.64911,0.12982 -0.25965,0.12983 -0.41204,0.3556 -0.14676,0.22578 -0.21449,0.51929 -0.0677,0.29351 -0.0847,0.62654 h 0.0339 q 0.12982,-0.19756 0.36124,-0.33303 0.23142,-0.14111 0.59267,-0.14111 0.52493,0 0.84666,0.32174 0.32174,0.31608 0.32174,0.90311 0,0.63217 -0.34996,0.99342 -0.34431,0.36124 -0.93133,0.36124 -0.38382,0 -0.69427,-0.19191 -0.31044,-0.19191 -0.49671,-0.58702 -0.18062,-0.39511 -0.18062,-0.99907 z m 1.36595,1.36031 q 0.3556,0 0.57574,-0.22577 0.22013,-0.23143 0.22013,-0.7112 0,-0.38383 -0.19756,-0.6096 -0.19191,-0.22578 -0.58137,-0.22578 -0.26529,0 -0.46285,0.11289 -0.19755,0.10724 -0.31044,0.27658 -0.10725,0.16933 -0.10725,0.34995 0,0.24271 0.096,0.48542 0.096,0.23707 0.28787,0.39511 0.19191,0.1524 0.47977,0.1524 z" />
        <path
           id="path5971"
           style="font-style:normal;font-variant:normal;font-weight:normal;font-stretch:normal;font-size:5.64444px;font-family:'Noto Sans';-inkscape-font-specification:'Noto Sans';text-align:center;text-anchor:middle;stroke-width:0.264583"
           d="m 152.4684,361.22165 q 0.53058,0 0.86925,0.24836 0.33866,0.24835 0.33866,0.71684 0,0.24271 -0.10724,0.42334 -0.1016,0.18062 -0.27658,0.32173 -0.17498,0.13546 -0.38382,0.24271 0.24835,0.11853 0.45155,0.27093 0.2032,0.14676 0.32174,0.34431 0.12417,0.19756 0.12417,0.47414 0,0.508 -0.36124,0.80715 -0.3556,0.29351 -0.95955,0.29351 -0.64912,0 -0.99907,-0.28222 -0.34996,-0.28787 -0.34996,-0.80151 0,-0.27658 0.11289,-0.47978 0.11854,-0.2032 0.31045,-0.34995 0.19191,-0.14676 0.41204,-0.24836 -0.29351,-0.16933 -0.50235,-0.4064 -0.2032,-0.24271 -0.2032,-0.61524 0,-0.31045 0.15804,-0.51929 0.15805,-0.21449 0.42898,-0.32738 0.27093,-0.11289 0.61524,-0.11289 z m -0.006,0.40076 q -0.31045,0 -0.51365,0.1524 -0.19755,0.14675 -0.19755,0.42898 0,0.20884 0.0959,0.34995 0.1016,0.14111 0.27094,0.24271 0.16933,0.096 0.37253,0.18627 0.29351,-0.12418 0.49107,-0.29916 0.2032,-0.17497 0.2032,-0.47977 0,-0.28223 -0.19756,-0.42898 -0.19755,-0.1524 -0.52493,-0.1524 z m -0.84102,2.66417 q 0,0.29351 0.20884,0.49107 0.20884,0.19191 0.64347,0.19191 0.41204,0 0.62653,-0.19191 0.22013,-0.19756 0.22013,-0.508 0,-0.29351 -0.23142,-0.48542 -0.23142,-0.19756 -0.61524,-0.34431 l -0.0903,-0.0339 q -0.37254,0.15805 -0.57009,0.36689 -0.19191,0.2032 -0.19191,0.51364 z" />
        <path
           id="path5973"
           style="font-style:normal;font-variant:normal;font-weight:normal;font-stretch:normal;font-size:5.64444px;font-family:'Noto Sans';-inkscape-font-specification:'Noto Sans';text-align:center;text-anchor:middle;stroke-width:0.264583"
           d="m 157.85318,363.18027 h 1.39418 v 1.97556 q -0.32738,0.10724 -0.6604,0.15804 -0.33302,0.0508 -0.75636,0.0508 -0.62653,0 -1.05551,-0.24835 -0.42897,-0.254 -0.65475,-0.71685 -0.22013,-0.46849 -0.22013,-1.10631 0,-0.63217 0.24835,-1.09502 0.24836,-0.46284 0.7112,-0.71684 0.46849,-0.25965 1.12889,-0.25965 0.33866,0 0.63782,0.0621 0.3048,0.0621 0.56444,0.17498 L 158.999,361.899 q -0.21449,-0.096 -0.48542,-0.16369 -0.26529,-0.0677 -0.55315,-0.0677 -0.72249,0 -1.12889,0.43463 -0.40076,0.43462 -0.40076,1.19097 0,0.47978 0.1524,0.85231 0.15805,0.36689 0.49107,0.57574 0.33302,0.2032 0.87489,0.2032 0.26529,0 0.45155,-0.0282 0.18627,-0.0282 0.33867,-0.0677 v -1.19662 h -0.88618 z" />
        <path
           id="path5975"
           style="font-style:normal;font-variant:normal;font-weight:normal;font-stretch:normal;font-size:5.64444px;font-family:'Noto Sans';-inkscape-font-specification:'Noto Sans';text-align:center;text-anchor:middle;stroke-width:0.264583"
           d="m 160.21255,361.2781 h 1.15146 q 0.75636,0 1.14018,0.22577 0.38947,0.22014 0.38947,0.77329 0,0.3556 -0.19756,0.59267 -0.19755,0.23142 -0.57009,0.29915 v 0.0282 q 0.254,0.0395 0.4572,0.14675 0.20885,0.10725 0.32738,0.3048 0.11853,0.19756 0.11853,0.51365 0,0.54751 -0.37817,0.84666 -0.37254,0.29916 -1.02165,0.29916 h -1.41675 z m 0.508,1.71591 h 0.74506 q 0.51929,0 0.7112,-0.16369 0.19192,-0.16933 0.19192,-0.49671 0,-0.33302 -0.23707,-0.47414 -0.23142,-0.14675 -0.74507,-0.14675 h -0.66604 z m 0,0.42333 v 1.46191 h 0.8128 q 0.53622,0 0.74506,-0.20884 0.20885,-0.20885 0.20885,-0.54751 0,-0.31609 -0.22013,-0.508 -0.21449,-0.19756 -0.77329,-0.19756 z" />
        <path
           id="path5977"
           style="font-style:normal;font-variant:normal;font-weight:normal;font-stretch:normal;font-size:5.64444px;font-family:'Noto Sans';-inkscape-font-specification:'Noto Sans';text-align:center;text-anchor:middle;stroke-width:0.264583"
           d="m 165.37721,361.2781 -1.50142,4.03013 h -0.48542 l 1.50142,-4.03013 z" />
        <path
           id="path5979"
           style="font-style:normal;font-variant:normal;font-weight:normal;font-stretch:normal;font-size:5.64444px;font-family:'Noto Sans';-inkscape-font-specification:'Noto Sans';text-align:center;text-anchor:middle;stroke-width:0.264583"
           d="m 167.88334,364.47285 q 0,0.44027 -0.32738,0.66604 -0.32737,0.22578 -0.88053,0.22578 -0.31609,0 -0.54751,-0.0508 -0.22578,-0.0508 -0.40075,-0.14111 v -0.45155 q 0.18062,0.0903 0.43462,0.16933 0.25964,0.0734 0.52493,0.0734 0.37818,0 0.54751,-0.11854 0.16933,-0.12417 0.16933,-0.32737 0,-0.11289 -0.0621,-0.2032 -0.0621,-0.0903 -0.22577,-0.18063 -0.15805,-0.0903 -0.4572,-0.2032 -0.29351,-0.11288 -0.50236,-0.22577 -0.20884,-0.11289 -0.32173,-0.27094 -0.11289,-0.15804 -0.11289,-0.4064 0,-0.38382 0.31044,-0.59266 0.31609,-0.20885 0.82409,-0.20885 0.27658,0 0.51365,0.0564 0.24271,0.0508 0.45155,0.14675 l -0.16933,0.39511 q -0.19191,-0.079 -0.40076,-0.13546 -0.20884,-0.0564 -0.42897,-0.0564 -0.3048,0 -0.46849,0.1016 -0.15805,0.096 -0.15805,0.26529 0,0.12418 0.0734,0.21449 0.0734,0.0847 0.24271,0.16933 0.17498,0.079 0.46285,0.19191 0.28786,0.10725 0.49106,0.22014 0.2032,0.11289 0.31045,0.27658 0.10724,0.15804 0.10724,0.40075 z" />
      </g>
      <g
         transform="translate(-337.33895,-97.356922)"
         style="font-style:normal;font-variant:normal;font-weight:normal;font-stretch:normal;font-size:5.64444px;line-height:1.25;font-family:'SF Mono';-inkscape-font-specification:'SF Mono';letter-spacing:0px;word-spacing:0px;fill:#000000;fill-opacity:1;stroke:none;stroke-width:0.264583"
         id="text837-38-0-1-0-6-8"
         aria-label="25.68 GB/s">
        <path
           id="path5982"
           style="font-style:normal;font-variant:normal;font-weight:normal;font-stretch:normal;font-size:5.64444px;font-family:'Noto Sans';-inkscape-font-specification:'Noto Sans';text-align:center;text-anchor:middle;stroke-width:0.264583"
           d="m 142.5963,375.55643 h -2.66417 v -0.41205 l 1.05551,-1.0668 q 0.3048,-0.3048 0.51364,-0.54186 0.20885,-0.23707 0.31609,-0.46285 0.10724,-0.23142 0.10724,-0.50235 0,-0.33302 -0.19755,-0.50236 -0.19756,-0.17497 -0.51365,-0.17497 -0.29351,0 -0.51928,0.1016 -0.22014,0.1016 -0.45156,0.28222 l -0.26529,-0.33302 q 0.23707,-0.19756 0.54187,-0.33303 0.31044,-0.14111 0.69426,-0.14111 0.56445,0 0.89183,0.28787 0.32737,0.28222 0.32737,0.78458 0,0.31608 -0.12982,0.59266 -0.12982,0.27658 -0.36124,0.54751 -0.23142,0.26529 -0.54187,0.57009 l -0.84102,0.82973 v 0.0226 h 2.03764 z" />
        <path
           id="path5984"
           style="font-style:normal;font-variant:normal;font-weight:normal;font-stretch:normal;font-size:5.64444px;font-family:'Noto Sans';-inkscape-font-specification:'Noto Sans';text-align:center;text-anchor:middle;stroke-width:0.264583"
           d="m 144.44203,373.08416 q 0.62088,0 0.98777,0.31045 0.36689,0.31044 0.36689,0.87488 0,0.62654 -0.40075,0.98778 -0.39511,0.3556 -1.10631,0.3556 -0.31045,0 -0.58703,-0.0564 -0.27093,-0.0564 -0.4572,-0.16369 v -0.46849 q 0.2032,0.12418 0.49107,0.19756 0.29351,0.0677 0.5588,0.0677 0.44591,0 0.71684,-0.20885 0.27658,-0.21448 0.27658,-0.6604 0,-0.39511 -0.24271,-0.60395 -0.24271,-0.21449 -0.76764,-0.21449 -0.15805,0 -0.36125,0.0282 -0.2032,0.0282 -0.32737,0.0564 l -0.24836,-0.15805 0.1524,-1.90217 h 2.02071 v 0.45155 h -1.59738 l -0.0959,1.1684 q 0.0959,-0.0169 0.25964,-0.0395 0.16369,-0.0226 0.36125,-0.0226 z" />
        <path
           id="path5986"
           style="font-style:normal;font-variant:normal;font-weight:normal;font-stretch:normal;font-size:5.64444px;font-family:'Noto Sans';-inkscape-font-specification:'Noto Sans';text-align:center;text-anchor:middle;stroke-width:0.264583"
           d="m 146.52482,375.25163 q 0,-0.20885 0.1016,-0.29351 0.1016,-0.0847 0.24271,-0.0847 0.14675,0 0.24835,0.0847 0.10725,0.0847 0.10725,0.29351 0,0.2032 -0.10725,0.29351 -0.1016,0.0903 -0.24835,0.0903 -0.14111,0 -0.24271,-0.0903 -0.1016,-0.0903 -0.1016,-0.29351 z" />
        <path
           id="path5988"
           style="font-style:normal;font-variant:normal;font-weight:normal;font-stretch:normal;font-size:5.64444px;font-family:'Noto Sans';-inkscape-font-specification:'Noto Sans';text-align:center;text-anchor:middle;stroke-width:0.264583"
           d="m 147.94157,373.83487 q 0,-0.43462 0.0734,-0.85231 0.079,-0.42333 0.27657,-0.762 0.2032,-0.34431 0.56445,-0.54751 0.36124,-0.2032 0.93133,-0.2032 0.11853,0 0.25965,0.0113 0.14675,0.0113 0.23706,0.0395 v 0.42334 q -0.1016,-0.0339 -0.23142,-0.0508 -0.12418,-0.0169 -0.254,-0.0169 -0.38947,0 -0.64911,0.12982 -0.25965,0.12983 -0.41204,0.3556 -0.14676,0.22578 -0.21449,0.51929 -0.0677,0.29351 -0.0847,0.62654 h 0.0339 q 0.12982,-0.19756 0.36124,-0.33303 0.23142,-0.14111 0.59267,-0.14111 0.52493,0 0.84666,0.32174 0.32174,0.31608 0.32174,0.90311 0,0.63217 -0.34996,0.99342 -0.34431,0.36124 -0.93133,0.36124 -0.38382,0 -0.69427,-0.19191 -0.31044,-0.19191 -0.49671,-0.58702 -0.18062,-0.39511 -0.18062,-0.99907 z m 1.36595,1.36031 q 0.3556,0 0.57574,-0.22577 0.22013,-0.23143 0.22013,-0.7112 0,-0.38383 -0.19756,-0.6096 -0.19191,-0.22578 -0.58137,-0.22578 -0.26529,0 -0.46285,0.11289 -0.19755,0.10724 -0.31044,0.27657 -0.10725,0.16934 -0.10725,0.34996 0,0.24271 0.096,0.48542 0.096,0.23707 0.28787,0.39511 0.19191,0.1524 0.47977,0.1524 z" />
        <path
           id="path5990"
           style="font-style:normal;font-variant:normal;font-weight:normal;font-stretch:normal;font-size:5.64444px;font-family:'Noto Sans';-inkscape-font-specification:'Noto Sans';text-align:center;text-anchor:middle;stroke-width:0.264583"
           d="m 152.4684,371.46985 q 0.53058,0 0.86925,0.24836 0.33866,0.24835 0.33866,0.71684 0,0.24271 -0.10724,0.42333 -0.1016,0.18063 -0.27658,0.32174 -0.17498,0.13546 -0.38382,0.24271 0.24835,0.11853 0.45155,0.27093 0.2032,0.14676 0.32174,0.34431 0.12417,0.19756 0.12417,0.47414 0,0.508 -0.36124,0.80715 -0.3556,0.29351 -0.95955,0.29351 -0.64912,0 -0.99907,-0.28222 -0.34996,-0.28787 -0.34996,-0.80151 0,-0.27658 0.11289,-0.47978 0.11854,-0.2032 0.31045,-0.34995 0.19191,-0.14676 0.41204,-0.24836 -0.29351,-0.16933 -0.50235,-0.4064 -0.2032,-0.24271 -0.2032,-0.61524 0,-0.31045 0.15804,-0.51929 0.15805,-0.21449 0.42898,-0.32738 0.27093,-0.11289 0.61524,-0.11289 z m -0.006,0.40076 q -0.31045,0 -0.51365,0.1524 -0.19755,0.14675 -0.19755,0.42897 0,0.20885 0.0959,0.34996 0.1016,0.14111 0.27094,0.24271 0.16933,0.096 0.37253,0.18627 0.29351,-0.12418 0.49107,-0.29916 0.2032,-0.17498 0.2032,-0.47978 0,-0.28222 -0.19756,-0.42897 -0.19755,-0.1524 -0.52493,-0.1524 z m -0.84102,2.66417 q 0,0.29351 0.20884,0.49107 0.20884,0.19191 0.64347,0.19191 0.41204,0 0.62653,-0.19191 0.22013,-0.19756 0.22013,-0.508 0,-0.29351 -0.23142,-0.48542 -0.23142,-0.19756 -0.61524,-0.34431 l -0.0903,-0.0339 q -0.37254,0.15804 -0.57009,0.36689 -0.19191,0.2032 -0.19191,0.51364 z" />
        <path
           id="path5992"
           style="font-style:normal;font-variant:normal;font-weight:normal;font-stretch:normal;font-size:5.64444px;font-family:'Noto Sans';-inkscape-font-specification:'Noto Sans';text-align:center;text-anchor:middle;stroke-width:0.264583"
           d="m 157.85318,373.42847 h 1.39418 v 1.97556 q -0.32738,0.10724 -0.6604,0.15804 -0.33302,0.0508 -0.75636,0.0508 -0.62653,0 -1.05551,-0.24835 -0.42897,-0.254 -0.65475,-0.71685 -0.22013,-0.46849 -0.22013,-1.10631 0,-0.63218 0.24835,-1.09502 0.24836,-0.46284 0.7112,-0.71684 0.46849,-0.25965 1.12889,-0.25965 0.33866,0 0.63782,0.0621 0.3048,0.0621 0.56444,0.17498 l -0.19191,0.44027 q -0.21449,-0.096 -0.48542,-0.16369 -0.26529,-0.0677 -0.55315,-0.0677 -0.72249,0 -1.12889,0.43462 -0.40076,0.43463 -0.40076,1.19098 0,0.47978 0.1524,0.85231 0.15805,0.36689 0.49107,0.57574 0.33302,0.2032 0.87489,0.2032 0.26529,0 0.45155,-0.0282 0.18627,-0.0282 0.33867,-0.0677 v -1.19662 h -0.88618 z" />
        <path
           id="path5994"
           style="font-style:normal;font-variant:normal;font-weight:normal;font-stretch:normal;font-size:5.64444px;font-family:'Noto Sans';-inkscape-font-specification:'Noto Sans';text-align:center;text-anchor:middle;stroke-width:0.264583"
           d="m 160.21255,371.5263 h 1.15146 q 0.75636,0 1.14018,0.22577 0.38947,0.22014 0.38947,0.77329 0,0.3556 -0.19756,0.59267 -0.19755,0.23142 -0.57009,0.29915 v 0.0282 q 0.254,0.0395 0.4572,0.14675 0.20885,0.10725 0.32738,0.3048 0.11853,0.19756 0.11853,0.51365 0,0.54751 -0.37817,0.84666 -0.37254,0.29916 -1.02165,0.29916 h -1.41675 z m 0.508,1.71591 h 0.74506 q 0.51929,0 0.7112,-0.16369 0.19192,-0.16934 0.19192,-0.49671 0,-0.33302 -0.23707,-0.47414 -0.23142,-0.14675 -0.74507,-0.14675 h -0.66604 z m 0,0.42333 v 1.46191 h 0.8128 q 0.53622,0 0.74506,-0.20884 0.20885,-0.20885 0.20885,-0.54752 0,-0.31608 -0.22013,-0.508 -0.21449,-0.19755 -0.77329,-0.19755 z" />
        <path
           id="path5996"
           style="font-style:normal;font-variant:normal;font-weight:normal;font-stretch:normal;font-size:5.64444px;font-family:'Noto Sans';-inkscape-font-specification:'Noto Sans';text-align:center;text-anchor:middle;stroke-width:0.264583"
           d="m 165.37721,371.5263 -1.50142,4.03013 h -0.48542 l 1.50142,-4.03013 z" />
        <path
           id="path5998"
           style="font-style:normal;font-variant:normal;font-weight:normal;font-stretch:normal;font-size:5.64444px;font-family:'Noto Sans';-inkscape-font-specification:'Noto Sans';text-align:center;text-anchor:middle;stroke-width:0.264583"
           d="m 167.88334,374.72105 q 0,0.44027 -0.32738,0.66604 -0.32737,0.22578 -0.88053,0.22578 -0.31609,0 -0.54751,-0.0508 -0.22578,-0.0508 -0.40075,-0.14111 v -0.45155 q 0.18062,0.0903 0.43462,0.16933 0.25964,0.0734 0.52493,0.0734 0.37818,0 0.54751,-0.11854 0.16933,-0.12417 0.16933,-0.32737 0,-0.11289 -0.0621,-0.2032 -0.0621,-0.0903 -0.22577,-0.18063 -0.15805,-0.0903 -0.4572,-0.2032 -0.29351,-0.11289 -0.50236,-0.22577 -0.20884,-0.11289 -0.32173,-0.27094 -0.11289,-0.15804 -0.11289,-0.4064 0,-0.38382 0.31044,-0.59266 0.31609,-0.20885 0.82409,-0.20885 0.27658,0 0.51365,0.0564 0.24271,0.0508 0.45155,0.14675 l -0.16933,0.39511 q -0.19191,-0.079 -0.40076,-0.13546 -0.20884,-0.0564 -0.42897,-0.0564 -0.3048,0 -0.46849,0.1016 -0.15805,0.096 -0.15805,0.26529 0,0.12418 0.0734,0.21449 0.0734,0.0847 0.24271,0.16933 0.17498,0.079 0.46285,0.19191 0.28786,0.10725 0.49106,0.22014 0.2032,0.11289 0.31045,0.27657 0.10724,0.15805 0.10724,0.40076 z" />
      </g>
      <g
         transform="translate(-337.33895,-97.356922)"
         style="font-style:normal;font-variant:normal;font-weight:normal;font-stretch:normal;font-size:5.64444px;line-height:1.25;font-family:'SF Mono';-inkscape-font-specification:'SF Mono';text-align:center;letter-spacing:0px;word-spacing:0px;text-anchor:middle;fill:#000000;fill-opacity:1;stroke:none;stroke-width:0.264583"
         id="text837-38-0-1-0-2"
         aria-label="Benchmark Results">
        <path
           id="path6001"
           style="font-style:normal;font-variant:normal;font-weight:normal;font-stretch:normal;font-size:5.64444px;font-family:'Noto Sans';-inkscape-font-specification:'Noto Sans';text-align:center;text-anchor:middle;stroke-width:0.264583"
           d="m 122.00346,332.06194 h 1.15147 q 0.75635,0 1.14018,0.22578 0.38946,0.22013 0.38946,0.77329 0,0.3556 -0.19755,0.59266 -0.19756,0.23143 -0.57009,0.29916 v 0.0282 q 0.254,0.0395 0.4572,0.14676 0.20884,0.10724 0.32738,0.3048 0.11853,0.19755 0.11853,0.51364 0,0.54751 -0.37818,0.84667 -0.37253,0.29915 -1.02164,0.29915 h -1.41676 z m 0.508,1.71591 h 0.74507 q 0.51929,0 0.7112,-0.16369 0.19191,-0.16933 0.19191,-0.49671 0,-0.33302 -0.23707,-0.47413 -0.23142,-0.14676 -0.74506,-0.14676 h -0.66605 z m 0,0.42333 v 1.46191 h 0.8128 q 0.53622,0 0.74507,-0.20884 0.20884,-0.20884 0.20884,-0.54751 0,-0.31609 -0.22013,-0.508 -0.21449,-0.19756 -0.77329,-0.19756 z" />
        <path
           id="path6003"
           style="font-style:normal;font-variant:normal;font-weight:normal;font-stretch:normal;font-size:5.64444px;font-family:'Noto Sans';-inkscape-font-specification:'Noto Sans';text-align:center;text-anchor:middle;stroke-width:0.264583"
           d="m 126.77301,333.01021 q 0.38947,0 0.66605,0.16933 0.28222,0.16933 0.42898,0.47978 0.1524,0.3048 0.1524,0.71684 v 0.29916 h -2.07151 q 0.0113,0.51364 0.25964,0.78457 0.254,0.26529 0.70555,0.26529 0.28787,0 0.508,-0.0508 0.22578,-0.0564 0.46285,-0.15804 v 0.43462 q -0.23142,0.1016 -0.4572,0.14676 -0.22578,0.0508 -0.53622,0.0508 -0.42898,0 -0.762,-0.17498 -0.32738,-0.17498 -0.51365,-0.51929 -0.18062,-0.34996 -0.18062,-0.85231 0,-0.49671 0.16369,-0.85231 0.16933,-0.3556 0.46849,-0.54751 0.3048,-0.19191 0.70555,-0.19191 z m -0.006,0.4064 q -0.3556,0 -0.56444,0.23142 -0.2032,0.22578 -0.24272,0.63218 h 1.54094 q -0.006,-0.38383 -0.18063,-0.62089 -0.17497,-0.24271 -0.55315,-0.24271 z" />
        <path
           id="path6005"
           style="font-style:normal;font-variant:normal;font-weight:normal;font-stretch:normal;font-size:5.64444px;font-family:'Noto Sans';-inkscape-font-specification:'Noto Sans';text-align:center;text-anchor:middle;stroke-width:0.264583"
           d="m 130.24434,333.01021 q 0.54187,0 0.81844,0.26529 0.27658,0.25964 0.27658,0.84666 v 1.96991 h -0.49107 v -1.93604 q 0,-0.72813 -0.67733,-0.72813 -0.50235,0 -0.69426,0.28222 -0.19192,0.28222 -0.19192,0.8128 v 1.56915 h -0.49671 v -3.02542 h 0.40076 l 0.0734,0.41205 h 0.0282 q 0.14675,-0.23707 0.4064,-0.34996 0.25964,-0.11853 0.54751,-0.11853 z" />
        <path
           id="path6007"
           style="font-style:normal;font-variant:normal;font-weight:normal;font-stretch:normal;font-size:5.64444px;font-family:'Noto Sans';-inkscape-font-specification:'Noto Sans';text-align:center;text-anchor:middle;stroke-width:0.264583"
           d="m 133.48988,336.14852 q -0.40075,0 -0.71684,-0.16369 -0.31045,-0.16369 -0.49107,-0.508 -0.17498,-0.34431 -0.17498,-0.88054 0,-0.55879 0.18627,-0.90875 0.18627,-0.34996 0.50236,-0.51364 0.32173,-0.16369 0.72813,-0.16369 0.23142,0 0.44591,0.0508 0.21449,0.0451 0.34996,0.11289 l -0.1524,0.41204 q -0.13547,-0.0508 -0.31609,-0.096 -0.18063,-0.0451 -0.33867,-0.0451 -0.89182,0 -0.89182,1.14582 0,0.54751 0.21449,0.84102 0.22013,0.28787 0.64911,0.28787 0.24835,0 0.43462,-0.0508 0.19191,-0.0508 0.34996,-0.12418 v 0.44027 q -0.1524,0.079 -0.33867,0.11853 -0.18062,0.0452 -0.44027,0.0452 z" />
        <path
           id="path6009"
           style="font-style:normal;font-variant:normal;font-weight:normal;font-stretch:normal;font-size:5.64444px;font-family:'Noto Sans';-inkscape-font-specification:'Noto Sans';text-align:center;text-anchor:middle;stroke-width:0.264583"
           d="m 135.48237,331.8023 v 1.25871 q 0,0.22577 -0.0282,0.42333 h 0.0339 q 0.14676,-0.23142 0.39511,-0.34996 0.254,-0.11853 0.54751,-0.11853 0.55316,0 0.82974,0.26529 0.27657,0.25964 0.27657,0.84102 v 1.96991 h -0.49106 v -1.93604 q 0,-0.72813 -0.67734,-0.72813 -0.508,0 -0.69991,0.28786 -0.18626,0.28222 -0.18626,0.8128 v 1.56351 h -0.49671 v -4.28977 z" />
        <path
           id="path6011"
           style="font-style:normal;font-variant:normal;font-weight:normal;font-stretch:normal;font-size:5.64444px;font-family:'Noto Sans';-inkscape-font-specification:'Noto Sans';text-align:center;text-anchor:middle;stroke-width:0.264583"
           d="m 141.79284,333.01021 q 0.51364,0 0.76764,0.26529 0.254,0.25964 0.254,0.84666 v 1.96991 h -0.49106 v -1.94733 q 0,-0.71684 -0.61525,-0.71684 -0.44026,0 -0.63217,0.254 -0.18627,0.254 -0.18627,0.73942 v 1.67075 h -0.49107 v -1.94733 q 0,-0.71684 -0.62088,-0.71684 -0.4572,0 -0.63218,0.28222 -0.17498,0.28222 -0.17498,0.8128 v 1.56915 h -0.49671 v -3.02542 h 0.40076 l 0.0734,0.41205 h 0.0282 q 0.14111,-0.23707 0.37817,-0.34996 0.24271,-0.11853 0.51365,-0.11853 0.7112,0 0.92568,0.508 h 0.0282 q 0.1524,-0.25965 0.41204,-0.38383 0.26529,-0.12417 0.5588,-0.12417 z" />
        <path
           id="path6013"
           style="font-style:normal;font-variant:normal;font-weight:normal;font-stretch:normal;font-size:5.64444px;font-family:'Noto Sans';-inkscape-font-specification:'Noto Sans';text-align:center;text-anchor:middle;stroke-width:0.264583"
           d="m 144.89728,333.01585 q 0.55315,0 0.81844,0.24271 0.26529,0.24271 0.26529,0.77329 v 2.06022 h -0.36124 l -0.096,-0.42898 h -0.0226 q -0.19755,0.24836 -0.41768,0.36689 -0.21449,0.11854 -0.59831,0.11854 -0.41205,0 -0.68298,-0.21449 -0.27094,-0.22014 -0.27094,-0.68298 0,-0.45156 0.3556,-0.69427 0.3556,-0.24835 1.09503,-0.27093 l 0.51364,-0.0169 v -0.18062 q 0,-0.37818 -0.16369,-0.52494 -0.16369,-0.14675 -0.46284,-0.14675 -0.23707,0 -0.45156,0.0734 -0.21449,0.0677 -0.40075,0.15805 l -0.1524,-0.37253 q 0.19755,-0.10725 0.46849,-0.18063 0.27093,-0.079 0.56444,-0.079 z m 0.59267,1.59738 -0.44592,0.0169 q -0.56444,0.0226 -0.78457,0.18062 -0.21449,0.15805 -0.21449,0.44591 0,0.254 0.1524,0.37254 0.15804,0.11853 0.40075,0.11853 0.38383,0 0.63783,-0.20884 0.254,-0.21449 0.254,-0.65476 z" />
        <path
           id="path6015"
           style="font-style:normal;font-variant:normal;font-weight:normal;font-stretch:normal;font-size:5.64444px;font-family:'Noto Sans';-inkscape-font-specification:'Noto Sans';text-align:center;text-anchor:middle;stroke-width:0.264583"
           d="m 148.32909,333.01021 q 0.0847,0 0.18062,0.0113 0.1016,0.006 0.17498,0.0226 l -0.0621,0.4572 q -0.0734,-0.0169 -0.16369,-0.0282 -0.0847,-0.0113 -0.16368,-0.0113 -0.23143,0 -0.43463,0.12982 -0.2032,0.12418 -0.32737,0.3556 -0.11854,0.22578 -0.11854,0.53058 v 1.61431 h -0.49671 v -3.02542 h 0.4064 l 0.0565,0.55316 h 0.0226 q 0.14676,-0.24836 0.37818,-0.42898 0.23142,-0.18062 0.54751,-0.18062 z" />
        <path
           id="path6017"
           style="font-style:normal;font-variant:normal;font-weight:normal;font-stretch:normal;font-size:5.64444px;font-family:'Noto Sans';-inkscape-font-specification:'Noto Sans';text-align:center;text-anchor:middle;stroke-width:0.264583"
           d="m 149.74019,331.8023 v 2.24084 q 0,0.0903 -0.0113,0.23707 -0.006,0.14675 -0.0113,0.254 h 0.0226 q 0.0339,-0.0452 0.1016,-0.12983 0.0677,-0.0847 0.13547,-0.16933 0.0734,-0.0903 0.12418,-0.14675 l 0.9652,-1.02165 h 0.58137 l -1.22484,1.29258 1.30951,1.73284 h -0.59831 l -1.04987,-1.41111 -0.34431,0.29916 v 1.11195 h -0.49106 v -4.28977 z" />
        <path
           id="path6019"
           style="font-style:normal;font-variant:normal;font-weight:normal;font-stretch:normal;font-size:5.64444px;font-family:'Noto Sans';-inkscape-font-specification:'Noto Sans';text-align:center;text-anchor:middle;stroke-width:0.264583"
           d="m 154.91048,332.06194 q 0.75071,0 1.10631,0.28787 0.36125,0.28222 0.36125,0.85795 0,0.32174 -0.11854,0.53622 -0.11853,0.21449 -0.3048,0.34432 -0.18062,0.12417 -0.38382,0.19755 l 1.10631,1.80622 h -0.59266 l -0.97649,-1.66511 h -0.80151 v 1.66511 h -0.508 v -4.03013 z m -0.0282,0.44027 h -0.57573 v 1.49577 h 0.60395 q 0.49107,0 0.71685,-0.19191 0.22577,-0.19755 0.22577,-0.57573 0,-0.39511 -0.23706,-0.5588 -0.23707,-0.16933 -0.73378,-0.16933 z" />
        <path
           id="path6021"
           style="font-style:normal;font-variant:normal;font-weight:normal;font-stretch:normal;font-size:5.64444px;font-family:'Noto Sans';-inkscape-font-specification:'Noto Sans';text-align:center;text-anchor:middle;stroke-width:0.264583"
           d="m 158.41003,333.01021 q 0.38947,0 0.66605,0.16933 0.28222,0.16933 0.42898,0.47978 0.1524,0.3048 0.1524,0.71684 v 0.29916 h -2.07151 q 0.0113,0.51364 0.25964,0.78457 0.254,0.26529 0.70556,0.26529 0.28786,0 0.50799,-0.0508 0.22578,-0.0564 0.46285,-0.15804 v 0.43462 q -0.23142,0.1016 -0.4572,0.14676 -0.22578,0.0508 -0.53622,0.0508 -0.42898,0 -0.762,-0.17498 -0.32738,-0.17498 -0.51365,-0.51929 -0.18062,-0.34996 -0.18062,-0.85231 0,-0.49671 0.16369,-0.85231 0.16933,-0.3556 0.46849,-0.54751 0.3048,-0.19191 0.70555,-0.19191 z m -0.006,0.4064 q -0.3556,0 -0.56444,0.23142 -0.2032,0.22578 -0.24272,0.63218 h 1.54094 q -0.006,-0.38383 -0.18063,-0.62089 -0.17497,-0.24271 -0.55315,-0.24271 z" />
        <path
           id="path6023"
           style="font-style:normal;font-variant:normal;font-weight:normal;font-stretch:normal;font-size:5.64444px;font-family:'Noto Sans';-inkscape-font-specification:'Noto Sans';text-align:center;text-anchor:middle;stroke-width:0.264583"
           d="m 162.395,335.25669 q 0,0.44027 -0.32737,0.66605 -0.32738,0.22578 -0.88054,0.22578 -0.31608,0 -0.54751,-0.0508 -0.22577,-0.0508 -0.40075,-0.14112 v -0.45155 q 0.18062,0.0903 0.43462,0.16933 0.25964,0.0734 0.52493,0.0734 0.37818,0 0.54751,-0.11853 0.16934,-0.12418 0.16934,-0.32738 0,-0.11289 -0.0621,-0.2032 -0.0621,-0.0903 -0.22578,-0.18062 -0.15804,-0.0903 -0.4572,-0.2032 -0.29351,-0.11289 -0.50235,-0.22578 -0.20885,-0.11289 -0.32174,-0.27093 -0.11289,-0.15805 -0.11289,-0.4064 0,-0.38382 0.31045,-0.59267 0.31609,-0.20884 0.82409,-0.20884 0.27657,0 0.51364,0.0564 0.24271,0.0508 0.45156,0.14676 l -0.16934,0.39511 q -0.19191,-0.079 -0.40075,-0.13547 -0.20885,-0.0564 -0.42898,-0.0564 -0.3048,0 -0.46849,0.1016 -0.15804,0.096 -0.15804,0.26529 0,0.12417 0.0734,0.21448 0.0734,0.0847 0.24271,0.16934 0.17497,0.079 0.46284,0.19191 0.28787,0.10724 0.49107,0.22013 0.2032,0.11289 0.31044,0.27658 0.10724,0.15804 0.10724,0.40075 z" />
        <path
           id="path6025"
           style="font-style:normal;font-variant:normal;font-weight:normal;font-stretch:normal;font-size:5.64444px;font-family:'Noto Sans';-inkscape-font-specification:'Noto Sans';text-align:center;text-anchor:middle;stroke-width:0.264583"
           d="m 165.65748,333.06665 v 3.02542 h -0.4064 l -0.0734,-0.40075 h -0.0226 q -0.14675,0.23706 -0.4064,0.34995 -0.25964,0.10725 -0.55315,0.10725 -0.54751,0 -0.82409,-0.25965 -0.27658,-0.26529 -0.27658,-0.84102 v -1.9812 h 0.50236 v 1.94733 q 0,0.72249 0.67169,0.72249 0.50235,0 0.69426,-0.28222 0.19756,-0.28222 0.19756,-0.8128 v -1.5748 z" />
        <path
           id="path6027"
           style="font-style:normal;font-variant:normal;font-weight:normal;font-stretch:normal;font-size:5.64444px;font-family:'Noto Sans';-inkscape-font-specification:'Noto Sans';text-align:center;text-anchor:middle;stroke-width:0.264583"
           d="m 167.11373,336.09207 h -0.49671 v -4.28977 h 0.49671 z" />
        <path
           id="path6029"
           style="font-style:normal;font-variant:normal;font-weight:normal;font-stretch:normal;font-size:5.64444px;font-family:'Noto Sans';-inkscape-font-specification:'Noto Sans';text-align:center;text-anchor:middle;stroke-width:0.264583"
           d="m 169.08364,335.74212 q 0.11289,0 0.23142,-0.0169 0.11853,-0.0226 0.19191,-0.0452 v 0.37817 q -0.079,0.0395 -0.22577,0.0621 -0.14676,0.0282 -0.28223,0.0282 -0.23706,0 -0.44026,-0.079 -0.19756,-0.0847 -0.32174,-0.28786 -0.12417,-0.2032 -0.12417,-0.57009 v -1.76107 h -0.42898 v -0.23706 l 0.43462,-0.19756 0.19756,-0.64346 h 0.29351 v 0.69426 h 0.87488 v 0.38382 h -0.87488 v 1.74978 q 0,0.27658 0.12982,0.41204 0.13547,0.12983 0.34431,0.12983 z" />
        <path
           id="path6031"
           style="font-style:normal;font-variant:normal;font-weight:normal;font-stretch:normal;font-size:5.64444px;font-family:'Noto Sans';-inkscape-font-specification:'Noto Sans';text-align:center;text-anchor:middle;stroke-width:0.264583"
           d="m 172.08083,335.25669 q 0,0.44027 -0.32738,0.66605 -0.32738,0.22578 -0.88053,0.22578 -0.31609,0 -0.54751,-0.0508 -0.22578,-0.0508 -0.40076,-0.14112 v -0.45155 q 0.18062,0.0903 0.43462,0.16933 0.25965,0.0734 0.52494,0.0734 0.37817,0 0.54751,-0.11853 0.16933,-0.12418 0.16933,-0.32738 0,-0.11289 -0.0621,-0.2032 -0.0621,-0.0903 -0.22578,-0.18062 -0.15804,-0.0903 -0.4572,-0.2032 -0.29351,-0.11289 -0.50235,-0.22578 -0.20885,-0.11289 -0.32174,-0.27093 -0.11288,-0.15805 -0.11288,-0.4064 0,-0.38382 0.31044,-0.59267 0.31609,-0.20884 0.82409,-0.20884 0.27658,0 0.51364,0.0564 0.24271,0.0508 0.45156,0.14676 l -0.16934,0.39511 q -0.19191,-0.079 -0.40075,-0.13547 -0.20885,-0.0564 -0.42898,-0.0564 -0.3048,0 -0.46849,0.1016 -0.15804,0.096 -0.15804,0.26529 0,0.12417 0.0734,0.21448 0.0734,0.0847 0.24271,0.16934 0.17498,0.079 0.46284,0.19191 0.28787,0.10724 0.49107,0.22013 0.2032,0.11289 0.31044,0.27658 0.10725,0.15804 0.10725,0.40075 z" />
      </g>
      <g
         style="font-style:normal;font-variant:normal;font-weight:normal;font-stretch:normal;font-size:5.64444px;line-height:1.25;font-family:'SF Mono';-inkscape-font-specification:'SF Mono';letter-spacing:0px;word-spacing:0px;fill:#000000;fill-opacity:1;stroke:none;stroke-width:0.264583"
         id="text837-38-0-1-0-29"
         aria-label="Name">
        <path
           id="path7118"
           style="font-style:normal;font-variant:normal;font-weight:normal;font-stretch:normal;font-size:5.64444px;font-family:'Noto Sans';-inkscape-font-specification:'Noto Sans';text-align:center;text-anchor:middle;stroke-width:0.264583"
           d="m -254.30922,255.90935 h -0.59267 l -2.15617,-3.34716 h -0.0226 q 0.0113,0.19756 0.0282,0.49107 0.0169,0.29351 0.0169,0.60396 v 2.25213 h -0.46849 v -4.03013 h 0.58702 l 2.15053,3.33586 h 0.0226 q -0.006,-0.0903 -0.0169,-0.27093 -0.006,-0.18062 -0.0169,-0.39511 -0.006,-0.21449 -0.006,-0.39511 v -2.27471 h 0.47413 z" />
        <path
           id="path7120"
           style="font-style:normal;font-variant:normal;font-weight:normal;font-stretch:normal;font-size:5.64444px;font-family:'Noto Sans';-inkscape-font-specification:'Noto Sans';text-align:center;text-anchor:middle;stroke-width:0.264583"
           d="m -252.13612,252.83313 q 0.55316,0 0.81844,0.24271 0.26529,0.24271 0.26529,0.77329 v 2.06022 h -0.36124 l -0.096,-0.42898 h -0.0226 q -0.19756,0.24836 -0.41769,0.36689 -0.21449,0.11853 -0.59831,0.11853 -0.41205,0 -0.68298,-0.21449 -0.27093,-0.22013 -0.27093,-0.68297 0,-0.45156 0.3556,-0.69427 0.3556,-0.24836 1.09502,-0.27093 l 0.51364,-0.0169 v -0.18062 q 0,-0.37818 -0.16369,-0.52493 -0.16369,-0.14676 -0.46284,-0.14676 -0.23707,0 -0.45156,0.0734 -0.21449,0.0677 -0.40075,0.15804 l -0.1524,-0.37253 q 0.19755,-0.10724 0.46849,-0.18062 0.27093,-0.079 0.56444,-0.079 z m 0.59267,1.59737 -0.44591,0.0169 q -0.56445,0.0226 -0.78458,0.18062 -0.21449,0.15804 -0.21449,0.44591 0,0.254 0.1524,0.37253 0.15804,0.11854 0.40075,0.11854 0.38383,0 0.63783,-0.20885 0.254,-0.21449 0.254,-0.65475 z" />
        <path
           id="path7122"
           style="font-style:normal;font-variant:normal;font-weight:normal;font-stretch:normal;font-size:5.64444px;font-family:'Noto Sans';-inkscape-font-specification:'Noto Sans';text-align:center;text-anchor:middle;stroke-width:0.264583"
           d="m -246.79649,252.82748 q 0.51365,0 0.76765,0.26529 0.254,0.25965 0.254,0.84667 v 1.96991 h -0.49107 v -1.94733 q 0,-0.71685 -0.61524,-0.71685 -0.44027,0 -0.63218,0.254 -0.18627,0.254 -0.18627,0.73942 v 1.67076 h -0.49106 v -1.94733 q 0,-0.71685 -0.62089,-0.71685 -0.4572,0 -0.63218,0.28222 -0.17498,0.28223 -0.17498,0.8128 v 1.56916 h -0.49671 v -3.02542 h 0.40076 l 0.0734,0.41204 h 0.0282 q 0.14111,-0.23706 0.37818,-0.34995 0.24271,-0.11854 0.51364,-0.11854 0.7112,0 0.92569,0.508 h 0.0282 q 0.1524,-0.25964 0.41204,-0.38382 0.26529,-0.12418 0.5588,-0.12418 z" />
        <path
           id="path7124"
           style="font-style:normal;font-variant:normal;font-weight:normal;font-stretch:normal;font-size:5.64444px;font-family:'Noto Sans';-inkscape-font-specification:'Noto Sans';text-align:center;text-anchor:middle;stroke-width:0.264583"
           d="m -243.66947,252.82748 q 0.38947,0 0.66605,0.16934 0.28222,0.16933 0.42897,0.47977 0.1524,0.3048 0.1524,0.71685 v 0.29915 h -2.07151 q 0.0113,0.51365 0.25965,0.78458 0.254,0.26529 0.70555,0.26529 0.28787,0 0.508,-0.0508 0.22578,-0.0564 0.46285,-0.15805 v 0.43463 q -0.23143,0.1016 -0.4572,0.14675 -0.22578,0.0508 -0.53623,0.0508 -0.42897,0 -0.762,-0.17498 -0.32737,-0.17497 -0.51364,-0.51928 -0.18062,-0.34996 -0.18062,-0.85231 0,-0.49672 0.16369,-0.85232 0.16933,-0.35559 0.46849,-0.54751 0.3048,-0.19191 0.70555,-0.19191 z m -0.006,0.4064 q -0.3556,0 -0.56445,0.23142 -0.2032,0.22578 -0.24271,0.63218 h 1.54093 q -0.006,-0.38382 -0.18062,-0.62089 -0.17498,-0.24271 -0.55315,-0.24271 z" />
      </g>
      <g
         style="font-style:normal;font-variant:normal;font-weight:normal;font-stretch:normal;font-size:5.64444px;line-height:1.25;font-family:'SF Mono';-inkscape-font-specification:'SF Mono';letter-spacing:0px;word-spacing:0px;fill:#000000;fill-opacity:1;stroke:none;stroke-width:0.264583"
         id="text837-38-0-1-0-29-1"
         aria-label="Throughput">
        <path
           id="path7097"
           style="font-style:normal;font-variant:normal;font-weight:normal;font-stretch:normal;font-size:5.64444px;font-family:'Noto Sans';-inkscape-font-specification:'Noto Sans';text-align:center;text-anchor:middle;stroke-width:0.264583"
           d="m -195.03265,255.39006 h -0.508 v -3.58422 h -1.25871 v -0.44591 h 3.01977 v 0.44591 h -1.25306 z" />
        <path
           id="path7099"
           style="font-style:normal;font-variant:normal;font-weight:normal;font-stretch:normal;font-size:5.64444px;font-family:'Noto Sans';-inkscape-font-specification:'Noto Sans';text-align:center;text-anchor:middle;stroke-width:0.264583"
           d="m -192.74101,251.10029 v 1.25871 q 0,0.22577 -0.0282,0.42333 h 0.0339 q 0.14676,-0.23142 0.39511,-0.34996 0.254,-0.11853 0.54751,-0.11853 0.55316,0 0.82974,0.26529 0.27657,0.25964 0.27657,0.84102 v 1.96991 h -0.49106 v -1.93604 q 0,-0.72814 -0.67733,-0.72814 -0.508,0 -0.69992,0.28787 -0.18626,0.28222 -0.18626,0.8128 v 1.56351 h -0.49671 v -4.28977 z" />
        <path
           id="path7101"
           style="font-style:normal;font-variant:normal;font-weight:normal;font-stretch:normal;font-size:5.64444px;font-family:'Noto Sans';-inkscape-font-specification:'Noto Sans';text-align:center;text-anchor:middle;stroke-width:0.264583"
           d="m -188.33836,252.3082 q 0.0847,0 0.18062,0.0113 0.1016,0.006 0.17498,0.0226 l -0.0621,0.4572 q -0.0734,-0.0169 -0.16369,-0.0282 -0.0847,-0.0113 -0.16369,-0.0113 -0.23142,0 -0.43462,0.12982 -0.2032,0.12418 -0.32738,0.3556 -0.11853,0.22578 -0.11853,0.53058 v 1.61431 h -0.49671 v -3.02542 h 0.4064 l 0.0564,0.55316 h 0.0226 q 0.14676,-0.24836 0.37818,-0.42898 0.23142,-0.18062 0.54751,-0.18062 z" />
        <path
           id="path7103"
           style="font-style:normal;font-variant:normal;font-weight:normal;font-stretch:normal;font-size:5.64444px;font-family:'Noto Sans';-inkscape-font-specification:'Noto Sans';text-align:center;text-anchor:middle;stroke-width:0.264583"
           d="m -184.90091,253.87171 q 0,0.75071 -0.38382,1.16275 -0.37818,0.41204 -1.02729,0.41204 -0.40075,0 -0.71684,-0.18062 -0.31045,-0.18626 -0.49107,-0.53622 -0.18062,-0.3556 -0.18062,-0.85795 0,-0.75071 0.37818,-1.15711 0.37817,-0.4064 1.02728,-0.4064 0.41205,0 0.72249,0.18626 0.31609,0.18062 0.49107,0.53058 0.18062,0.34431 0.18062,0.84667 z m -2.286,0 q 0,0.53622 0.20885,0.85231 0.21449,0.31044 0.67733,0.31044 0.4572,0 0.67169,-0.31044 0.21449,-0.31609 0.21449,-0.85231 0,-0.53623 -0.21449,-0.84103 -0.21449,-0.3048 -0.67733,-0.3048 -0.46285,0 -0.67169,0.3048 -0.20885,0.3048 -0.20885,0.84103 z" />
        <path
           id="path7105"
           style="font-style:normal;font-variant:normal;font-weight:normal;font-stretch:normal;font-size:5.64444px;font-family:'Noto Sans';-inkscape-font-specification:'Noto Sans';text-align:center;text-anchor:middle;stroke-width:0.264583"
           d="m -181.58762,252.36464 v 3.02542 h -0.4064 l -0.0734,-0.40075 h -0.0226 q -0.14675,0.23706 -0.4064,0.34995 -0.25964,0.10724 -0.55315,0.10724 -0.54751,0 -0.82409,-0.25964 -0.27658,-0.26529 -0.27658,-0.84102 v -1.9812 h 0.50236 v 1.94733 q 0,0.72249 0.67168,0.72249 0.50236,0 0.69427,-0.28222 0.19756,-0.28222 0.19756,-0.8128 v -1.5748 z" />
        <path
           id="path7107"
           style="font-style:normal;font-variant:normal;font-weight:normal;font-stretch:normal;font-size:5.64444px;font-family:'Noto Sans';-inkscape-font-specification:'Noto Sans';text-align:center;text-anchor:middle;stroke-width:0.264583"
           d="m -179.55564,252.3082 q 0.29916,0 0.53623,0.11288 0.24271,0.11289 0.41204,0.34432 h 0.0282 l 0.0677,-0.40076 h 0.39512 v 3.07622 q 0,0.64911 -0.33303,0.97649 -0.32737,0.32738 -1.02164,0.32738 -0.66604,0 -1.08938,-0.19191 v -0.4572 q 0.44591,0.23706 1.1176,0.23706 0.38947,0 0.6096,-0.23142 0.22578,-0.22578 0.22578,-0.62089 v -0.11853 q 0,-0.0677 0.006,-0.19191 0.006,-0.12982 0.0113,-0.18062 h -0.0226 q -0.3048,0.45719 -0.93697,0.45719 -0.58702,0 -0.92005,-0.41204 -0.32737,-0.41204 -0.32737,-1.15147 0,-0.72248 0.32737,-1.14582 0.33303,-0.42897 0.9144,-0.42897 z m 0.0677,0.41768 q -0.37818,0 -0.58703,0.3048 -0.20884,0.29916 -0.20884,0.85796 0,0.5588 0.2032,0.85795 0.20884,0.29352 0.60396,0.29352 0.4572,0 0.66604,-0.24272 0.20884,-0.24835 0.20884,-0.79586 v -0.11854 q 0,-0.62088 -0.21449,-0.88617 -0.21448,-0.27094 -0.67168,-0.27094 z" />
        <path
           id="path7109"
           style="font-style:normal;font-variant:normal;font-weight:normal;font-stretch:normal;font-size:5.64444px;font-family:'Noto Sans';-inkscape-font-specification:'Noto Sans';text-align:center;text-anchor:middle;stroke-width:0.264583"
           d="m -176.66004,251.10029 v 1.25871 q 0,0.22577 -0.0282,0.42333 h 0.0339 q 0.14675,-0.23142 0.39511,-0.34996 0.254,-0.11853 0.54751,-0.11853 0.55315,0 0.82973,0.26529 0.27658,0.25964 0.27658,0.84102 v 1.96991 h -0.49107 v -1.93604 q 0,-0.72814 -0.67733,-0.72814 -0.508,0 -0.69991,0.28787 -0.18627,0.28222 -0.18627,0.8128 v 1.56351 h -0.49671 v -4.28977 z" />
        <path
           id="path7111"
           style="font-style:normal;font-variant:normal;font-weight:normal;font-stretch:normal;font-size:5.64444px;font-family:'Noto Sans';-inkscape-font-specification:'Noto Sans';text-align:center;text-anchor:middle;stroke-width:0.264583"
           d="m -172.22916,252.3082 q 0.55879,0 0.89746,0.38946 0.34431,0.38947 0.34431,1.17405 0,0.77328 -0.34431,1.17404 -0.33867,0.40075 -0.90311,0.40075 -0.34995,0 -0.58138,-0.12982 -0.22577,-0.13546 -0.3556,-0.31044 h -0.0339 q 0.0113,0.096 0.0226,0.24271 0.0113,0.14675 0.0113,0.254 v 1.24178 h -0.49671 v -4.38009 h 0.4064 l 0.0677,0.41204 h 0.0226 q 0.13547,-0.19755 0.3556,-0.33302 0.22014,-0.13546 0.58703,-0.13546 z m -0.0903,0.41768 q -0.46284,0 -0.65475,0.25965 -0.18627,0.25964 -0.19756,0.79022 v 0.096 q 0,0.5588 0.18063,0.8636 0.18626,0.29915 0.68297,0.29915 0.27658,0 0.45156,-0.1524 0.18062,-0.1524 0.26529,-0.41204 0.0903,-0.26529 0.0903,-0.60396 0,-0.51929 -0.2032,-0.82973 -0.19756,-0.31045 -0.61525,-0.31045 z" />
        <path
           id="path7113"
           style="font-style:normal;font-variant:normal;font-weight:normal;font-stretch:normal;font-size:5.64444px;font-family:'Noto Sans';-inkscape-font-specification:'Noto Sans';text-align:center;text-anchor:middle;stroke-width:0.264583"
           d="m -167.66846,252.36464 v 3.02542 h -0.4064 l -0.0734,-0.40075 h -0.0226 q -0.14676,0.23706 -0.4064,0.34995 -0.25965,0.10724 -0.55316,0.10724 -0.54751,0 -0.82409,-0.25964 -0.27658,-0.26529 -0.27658,-0.84102 v -1.9812 h 0.50236 v 1.94733 q 0,0.72249 0.67169,0.72249 0.50235,0 0.69426,-0.28222 0.19756,-0.28222 0.19756,-0.8128 v -1.5748 z" />
        <path
           id="path7115"
           style="font-style:normal;font-variant:normal;font-weight:normal;font-stretch:normal;font-size:5.64444px;font-family:'Noto Sans';-inkscape-font-specification:'Noto Sans';text-align:center;text-anchor:middle;stroke-width:0.264583"
           d="m -165.69856,255.04011 q 0.11289,0 0.23142,-0.0169 0.11854,-0.0226 0.19191,-0.0452 v 0.37817 q -0.079,0.0395 -0.22577,0.0621 -0.14676,0.0282 -0.28223,0.0282 -0.23706,0 -0.44026,-0.079 -0.19756,-0.0847 -0.32174,-0.28786 -0.12417,-0.2032 -0.12417,-0.57009 v -1.76107 h -0.42898 v -0.23706 l 0.43462,-0.19756 0.19756,-0.64347 h 0.29351 v 0.69427 h 0.87489 v 0.38382 h -0.87489 v 1.74978 q 0,0.27658 0.12982,0.41204 0.13547,0.12983 0.34431,0.12983 z" />
      </g>
    </g>
    <g
       id="g976"
       style="opacity:1;fill:#e94c4c;fill-opacity:1">
      <path
         style="color:#000000;font-style:normal;font-variant:normal;font-weight:normal;font-stretch:normal;font-size:medium;line-height:normal;font-family:sans-serif;font-variant-ligatures:normal;font-variant-position:normal;font-variant-caps:normal;font-variant-numeric:normal;font-variant-alternates:normal;font-variant-east-asian:normal;font-feature-settings:normal;font-variation-settings:normal;text-indent:0;text-align:start;text-decoration:none;text-decoration-line:none;text-decoration-style:solid;text-decoration-color:#000000;letter-spacing:normal;word-spacing:normal;text-transform:none;writing-mode:lr-tb;direction:ltr;text-orientation:mixed;dominant-baseline:auto;baseline-shift:baseline;text-anchor:start;white-space:normal;shape-padding:0;shape-margin:0;inline-size:0;clip-rule:nonzero;display:inline;overflow:visible;visibility:visible;isolation:auto;mix-blend-mode:normal;color-interpolation:sRGB;color-interpolation-filters:linearRGB;solid-color:#000000;solid-opacity:1;vector-effect:none;fill:#e94c4c;fill-opacity:1;fill-rule:nonzero;stroke:none;stroke-width:1.058;stroke-linecap:round;stroke-linejoin:miter;stroke-miterlimit:4;stroke-dasharray:none;stroke-dashoffset:0;stroke-opacity:1;color-rendering:auto;image-rendering:auto;shape-rendering:auto;text-rendering:auto;enable-background:accumulate;stop-color:#000000;stop-opacity:1"
         d="m 39.654297,155.05469 c -7.25842,0.24858 -14.297828,1.29277 -20.419922,3.38281 -8.162792,2.78672 -14.7207855,7.46052 -17.8554688,14.61719 a 0.52899998,0.52899998 0 0 0 0.2714844,0.69726 0.52899998,0.52899998 0 0 0 0.6972656,-0.27343 c 2.9851678,-6.81532 9.2433618,-11.31299 17.2285158,-14.03907 7.985153,-2.72607 17.670464,-3.65441 27.347656,-3.32031 9.677193,0.3341 19.348056,1.92611 27.308594,4.20313 7.960538,2.27701 14.218945,5.28042 17,8.23437 a 0.52899998,0.52899998 0 0 0 0.746094,0.0234 0.52899998,0.52899998 0 0 0 0.02344,-0.74805 c -3.069664,-3.2605 -9.425674,-6.22197 -17.478515,-8.52539 -8.052842,-2.30342 -17.793905,-3.90689 -27.5625,-4.24414 -2.442149,-0.0843 -4.887168,-0.0907 -7.306641,-0.008 z"
         id="path988" />
      <g
         style="fill:#e94c4c;fill-opacity:1"
         id="g978">
        <g
           id="g982"
           style="opacity:1;fill:#e94c4c;fill-opacity:1">
          <path
             style="color:#000000;font-style:normal;font-variant:normal;font-weight:normal;font-stretch:normal;font-size:medium;line-height:normal;font-family:sans-serif;font-variant-ligatures:normal;font-variant-position:normal;font-variant-caps:normal;font-variant-numeric:normal;font-variant-alternates:normal;font-variant-east-asian:normal;font-feature-settings:normal;font-variation-settings:normal;text-indent:0;text-align:start;text-decoration:none;text-decoration-line:none;text-decoration-style:solid;text-decoration-color:#000000;letter-spacing:normal;word-spacing:normal;text-transform:none;writing-mode:lr-tb;direction:ltr;text-orientation:mixed;dominant-baseline:auto;baseline-shift:baseline;text-anchor:start;white-space:normal;shape-padding:0;shape-margin:0;inline-size:0;clip-rule:nonzero;display:inline;overflow:visible;visibility:visible;isolation:auto;mix-blend-mode:normal;color-interpolation:sRGB;color-interpolation-filters:linearRGB;solid-color:#000000;solid-opacity:1;vector-effect:none;fill:#e94c4c;fill-opacity:1;fill-rule:evenodd;stroke:none;stroke-width:0.39675;stroke-linecap:butt;stroke-linejoin:round;stroke-miterlimit:4;stroke-dasharray:none;stroke-dashoffset:0;stroke-opacity:1;color-rendering:auto;image-rendering:auto;shape-rendering:auto;text-rendering:auto;enable-background:accumulate;stop-color:#000000;stop-opacity:1"
             d="m 89.687419,162.41 2.897334,6.79815 -6.611266,-3.3016 c 1.85589,-0.22542 3.351513,-1.64227 3.713932,-3.49655 z"
             id="path984" />
          <path
             style="color:#000000;font-style:normal;font-variant:normal;font-weight:normal;font-stretch:normal;font-size:medium;line-height:normal;font-family:sans-serif;font-variant-ligatures:normal;font-variant-position:normal;font-variant-caps:normal;font-variant-numeric:normal;font-variant-alternates:normal;font-variant-east-asian:normal;font-feature-settings:normal;font-variation-settings:normal;text-indent:0;text-align:start;text-decoration:none;text-decoration-line:none;text-decoration-style:solid;text-decoration-color:#000000;letter-spacing:normal;word-spacing:normal;text-transform:none;writing-mode:lr-tb;direction:ltr;text-orientation:mixed;dominant-baseline:auto;baseline-shift:baseline;text-anchor:start;white-space:normal;shape-padding:0;shape-margin:0;inline-size:0;clip-rule:nonzero;display:inline;overflow:visible;visibility:visible;isolation:auto;mix-blend-mode:normal;color-interpolation:sRGB;color-interpolation-filters:linearRGB;solid-color:#000000;solid-opacity:1;vector-effect:none;fill:#e94c4c;fill-opacity:1;fill-rule:evenodd;stroke:none;stroke-width:0.39675;stroke-linecap:butt;stroke-linejoin:round;stroke-miterlimit:4;stroke-dasharray:none;stroke-dashoffset:0;stroke-opacity:1;color-rendering:auto;image-rendering:auto;shape-rendering:auto;text-rendering:auto;enable-background:accumulate;stop-color:#000000;stop-opacity:1"
             d="m 89.695312,162.21094 a 0.19839484,0.19839484 0 0 0 -0.203124,0.16015 c -0.34636,1.77212 -1.773186,3.12293 -3.542969,3.33789 a 0.19839484,0.19839484 0 0 0 -0.06445,0.375 l 6.611328,3.30079 a 0.19839484,0.19839484 0 0 0 0.271484,-0.25391 l -2.898437,-6.79883 a 0.19839484,0.19839484 0 0 0 -0.173829,-0.12109 z m -0.03516,0.64062 2.53125,5.93946 -5.773437,-2.88477 c 1.5645,-0.36536 2.768393,-1.50428 3.242187,-3.05469 z"
             id="path986" />
        </g>
      </g>
    </g>
  </g>
</svg>
