<?xml version="1.0" encoding="UTF-8" standalone="no"?>
<svg
   xmlns:dc="http://purl.org/dc/elements/1.1/"
   xmlns:cc="http://creativecommons.org/ns#"
   xmlns:rdf="http://www.w3.org/1999/02/22-rdf-syntax-ns#"
   xmlns:svg="http://www.w3.org/2000/svg"
   xmlns="http://www.w3.org/2000/svg"
   xmlns:sodipodi="http://sodipodi.sourceforge.net/DTD/sodipodi-0.dtd"
   xmlns:inkscape="http://www.inkscape.org/namespaces/inkscape"
   width="622.15509"
   height="1707.3452"
   viewBox="0 0 164.61186 451.7351"
   version="1.1"
   id="svg3609"
   inkscape:version="1.0 (1.0+r73+1)"
   sodipodi:docname="Elpida_shadow.svg">
  <title
     id="title831">Elpida</title>
  <defs
     id="defs3603" />
  <sodipodi:namedview
     id="base"
     pagecolor="#ffffff"
     bordercolor="#666666"
     borderopacity="1.0"
     inkscape:pageopacity="0.0"
     inkscape:pageshadow="2"
     inkscape:zoom="1.979899"
     inkscape:cx="137.1985"
     inkscape:cy="517.79741"
     inkscape:document-units="mm"
     inkscape:current-layer="layer1"
     inkscape:document-rotation="0"
     showgrid="false"
     fit-margin-bottom="5"
     fit-margin-top="5"
     units="px"
     fit-margin-right="5"
     fit-margin-left="5"
     inkscape:window-width="3840"
     inkscape:window-height="2045"
     inkscape:window-x="3840"
     inkscape:window-y="0"
     inkscape:window-maximized="1" />
  <metadata
     id="metadata3606">
    <rdf:RDF>
      <cc:Work
         rdf:about="">
        <dc:format>image/svg+xml</dc:format>
        <dc:type
           rdf:resource="http://purl.org/dc/dcmitype/StillImage" />
        <dc:title>Elpida</dc:title>
        <dc:creator>
          <cc:Agent>
            <dc:title>Ioannis Panagiotopoulos</dc:title>
          </cc:Agent>
        </dc:creator>
        <dc:rights>
          <cc:Agent>
            <dc:title>Ioannis Panagiotopoulos</dc:title>
          </cc:Agent>
        </dc:rights>
      </cc:Work>
    </rdf:RDF>
  </metadata>
  <g
     inkscape:label="Στρώση 1"
     inkscape:groupmode="layer"
     id="layer1"
     transform="translate(-254.83129,-29.659169)">
    <path
       id="path2031"
       style="display:inline;fill:#000000;fill-opacity:1;stroke:none;stroke-width:0.972673;stroke-linecap:round;stroke-linejoin:round;stroke-miterlimit:4;stroke-dasharray:none;stroke-opacity:1"
       d="m 1457.2168,117.58398 -302.6934,29.16797 -6.623,13.53711 94.9629,218.35742 c 0.4483,41.70771 1.3462,80.38745 4.9863,114.31641 l -6.6855,-5.88086 -2.8028,-3.19922 c -3.0889,-6.04001 -6.6965,-10.7086 -10.9199,-13.9414 l -0.047,-0.0469 -0.062,-0.0391 c -1.058,-0.80155 -2.1561,-1.51049 -3.2929,-2.13086 l -0.1016,-0.0644 -0.078,-0.0332 c -1.2002,-0.64238 -2.4452,-1.1819 -3.7364,-1.62109 l -0.1035,-0.0449 -0.053,-0.01 c -2.5181,-0.83793 -5.2124,-1.28962 -8.0957,-1.34375 0.042,-0.22697 0.089,-0.45313 0.1289,-0.67969 l 0.1309,-0.67968 v -0.0449 c 0.1078,-0.65829 0.1817,-1.29196 0.2636,-1.93359 l 0.062,-0.32422 0.01,-0.21289 c 0.2188,-1.87915 0.3176,-3.6438 0.2207,-5.12695 v -0.0899 l -0.016,-0.0488 c -0.017,-0.23493 -0.029,-0.47768 -0.057,-0.69727 -0.1004,-0.80507 -0.3677,-1.40746 -0.7441,-1.85351 l -0.01,-0.0234 -0.014,-0.006 c -0.5582,-0.64374 -1.3567,-0.93949 -2.248,-0.96875 l -0.01,-0.002 -0.019,0.004 c -0.7009,-0.0191 -1.4536,0.1249 -2.1914,0.38281 l -0.051,0.01 -0.035,0.0234 c -1.1579,0.41987 -2.2563,1.11793 -3.0254,1.93359 l -0.029,0.0176 -0.01,0.0176 c -0.051,0.0546 -0.1087,0.10654 -0.1563,0.16211 -1.0684,1.2492 -2.1038,5.10746 -3.4414,9.67382 l -0.7773,-2.09179 c 0.047,-0.0548 0.091,-0.11195 0.1367,-0.16797 l 0.019,0.0449 0.127,-0.22266 c 0.9546,-1.23598 1.6442,-2.75246 2.0215,-4.43164 l 0.1621,-0.48828 0.2734,-2.45312 -0.123,-0.67383 c -0.041,-0.92548 -0.1601,-1.86983 -0.3867,-2.82031 -1.2676,-5.3157 -5.1646,-9.12228 -9.377,-9.62696 l -0.2598,-0.0801 -0.3281,0.0351 c 0,0 0,0 0,0 -0.075,-0.003 -0.1496,-0.0163 -0.2246,-0.0176 -0.6451,-0.011 -1.2929,0.0573 -1.9375,0.21094 -0.061,0.0145 -0.1175,0.0388 -0.1778,0.0547 0,0 0,0 0,0 l -0.1485,0.0156 -0.2441,0.10352 c -0.4856,0.15609 -0.951,0.35245 -1.3906,0.5957 0,9.8e-4 0,9.8e-4 -0.01,0.002 l -0.2656,0.11328 c 0.046,-0.0138 0.094,-0.0241 0.1406,-0.0371 -3.8159,2.20798 -5.7725,7.55733 -4.4551,13.08398 0.4788,2.00865 1.3328,3.80275 2.4375,5.28516 l -0.4218,1.09375 c 0,0 0.2979,-1.01438 -0.9864,-1.44336 l -4.2246,6.45703 c -0.05,0.0698 -0.096,0.13699 -0.1465,0.20703 l -4.0586,5.29102 c -0.099,0.12007 -0.1892,0.21961 -0.2871,0.33593 l -2.4765,2.67188 c 0.039,1.37887 0.903,5.53296 1.8945,10.17383 l 0.1895,1.01367 c -0.096,1.24262 -0.061,6.18853 0.037,11.50977 v 0.0117 l 0.086,4.06055 0.031,0.91211 c 0.086,3.457 0.1833,6.69644 0.2852,8.58594 0.8963,3.03382 2.1673,6.41988 3.5254,9.62304 l 0.07,0.18946 0.072,0.14258 c 1.7127,4.00403 3.5494,7.68373 4.9707,9.91211 1.3676,1.74931 10.1222,13.23653 18.5625,24.31835 l 3.5429,4.64844 c 7.5167,9.87303 15.1524,19.91016 15.1524,19.91016 l 16.4277,26.62305 c -5.0187,13.13548 -9.6958,23.31788 -12.8008,25.11914 3.2307,2.97272 7.6359,5.34172 12.7012,7.24218 -1.0817,7.92674 -1.1776,19.04788 3.7149,29.51172 -3.0703,19.26693 -4.9032,30.9832 -6.0508,38.34571 l -100.8028,-103.45899 -165.2148,45.19141 -1.00586,5.41015 58.91206,59.04688 c -0.8126,1.01068 -1.3351,1.99742 -1.4492,2.92187 -0.03,0.24336 -0.075,0.53275 -0.1074,0.78125 -8.185,-0.72406 -16.0776,-0.48833 -16.6719,2.62305 -1.3781,7.21531 5.7369,9.90851 15.1016,11.42774 -0.144,2.51565 -0.2262,5.33047 -0.1934,8.58593 l -0.051,0.66211 0.08,0.0566 c 0.3131,6.21347 4.5228,10.24101 9.4571,13.27539 2.0866,7.74822 5.0454,8.35441 9.5996,8.39258 2.8676,3.38381 4.5903,5.83178 12.6172,7.74414 2.2938,3.21736 10.8389,3.78378 13.3027,3.31641 2.953,-0.56017 5.1701,-1.05889 7.0625,-1.51172 0.01,0.004 0.01,0.008 0.016,0.0117 l 7.6719,-1.7168 86.5508,86.75195 28.6133,-8.21093 15.7402,-4.40625 0.012,-0.004 c -33.7937,85.18909 -29.0057,179.14993 -84.9336,250.28123 11.7163,13.2401 23.482,44.7243 91.0762,35.4863 2.2445,8.2142 4.5961,16.4016 7.043,24.5586 -3.7448,10.685 -8.0259,26.1719 -11.1329,43.4492 0.01,-0.043 0.012,-0.09 0.018,-0.1328 l -0.047,0.2988 c -0.7546,4.2094 -1.4371,8.5187 -2.0253,12.8887 l -0.057,0.3653 -0.2597,1.9882 c -0.2231,1.7284 -0.6262,4.6182 -1.0586,8.0938 l -0.2461,1.8887 -0.062,0.5976 c -0.1721,1.5031 -0.3407,3.0533 -0.5039,4.7715 0,0.011 0,0.024 0,0.035 l -0.012,0.1035 -0.016,0.205 c -0.2805,2.9956 -0.5277,6.2966 -0.709,9.8438 -2e-4,0 0,0.01 0,0.014 l -0.025,0.3593 -0.041,1.2559 c -0.066,1.5099 -0.1185,3.0515 -0.1543,4.6406 l -0.039,1.1934 0.01,0.5703 c -0.057,4.0211 -0.015,8.2366 0.1992,12.6426 v 0.2226 l 0.025,0.3614 c 0.115,2.225 0.2708,4.4877 0.4746,6.7851 3e-4,0 -4e-4,0.01 0,0.012 l 0.018,0.2422 0.012,0.1016 c 0.2932,3.2319 0.6823,6.526 1.1816,9.8613 0,0 0,0 0,0 l 0.021,0.1777 0.02,0.1074 c 0.4223,2.7867 0.9306,5.602 1.5196,8.4317 l 0.061,0.334 0.072,0.2988 c 0.3644,1.7138 0.7574,3.431 1.1894,5.1523 -1.3977,1.019 -2.3611,2.0129 -2.7871,2.961 -31.3322,76.2887 -5.0355,238.5047 -16.041,321.414 0,0 -2.0886,31.7231 -30.0996,73.3731 -9.7245,14.4595 -11.6669,46.764 -23.5781,55.9687 -20.3567,15.7311 -60.7664,40.0987 -36.0938,54.5742 0.9918,1.9707 3.7785,4.4776 6.4297,7.2461 l 1.7793,2.0039 c 0.5603,0.122 1.1444,0.2362 1.7188,0.3536 9.9855,2.7252 26.2178,4.2448 42.9863,4.5742 l 0.2676,0.031 0.4804,-0.016 c 11.2687,0.1969 22.7084,-0.1347 32.6348,-1.0391 h 0.1289 l 0.055,-0.012 c 12.6055,-1.1593 22.719,-3.2125 26.7285,-6.1855 0.01,-0.011 0.01,-0.021 0.016,-0.031 0,-9e-4 0,0 0.01,0 l 0.1309,-0.2559 c 14.8969,-27.9736 21.5841,-44.5582 29.4316,-61.4121 l 1.4609,-3.0586 4.4844,-1.9004 -2.375,-2.4883 0.014,-0.025 2.5723,2.67 c 0,0 9.8685,-17.7373 19.6601,-35.668 0.8751,-1.6026 0.9335,-5.1381 0.5977,-8.9746 1.5136,-3.5759 2.593,-7.3201 3.1523,-11.7949 l 0.1133,-0.5235 0.027,-0.6758 c 0.1824,-1.804 0.2768,-3.7428 0.2911,-5.8242 l 0.2656,-3.0176 -0.5391,-4.4433 c -0.3038,-4.1004 -0.8647,-8.7427 -1.707,-14.0781 l -0.025,-0.2051 -0.051,-0.2852 c -0.5371,-3.3601 -1.2127,-7.0758 -1.9766,-11.0234 l -0.2031,-1.1289 -2.3789,-14.7891 -0.2168,-12.8281 c 0.01,-0.1394 0.01,-0.2763 0.016,-0.416 l 0.3809,-6.3008 c 0.016,-0.2151 0.03,-0.4286 0.047,-0.6445 l 2.4394,-21.0684 c 0.04,-0.2707 0.088,-0.5526 0.1289,-0.8242 l 2.7325,-16.1563 c 0.01,-0.052 0.021,-0.106 0.031,-0.1582 0.02,-0.1067 0.043,-0.2173 0.062,-0.3242 l 6.8945,-32.5859 c 1.1515,-4.9899 2.351,-10.058 3.6016,-15.2129 l 7.4844,-29.9629 c 0.9982,-3.9124 2.025,-7.9056 3.0469,-11.8828 l 3.4765,-13.5371 0.6895,-2.7012 c 1.5386,-5.9878 3.0759,-12.0111 4.625,-18.1094 l 1.5039,-5.8926 2.2597,-9.0273 c 0.2937,-1.1772 0.5881,-2.3431 0.8809,-3.5234 l 0.074,-0.3028 c 0.2798,-1.1285 0.5571,-2.2632 0.836,-3.3945 34.7135,88.6042 58.4709,164.6891 66.4355,219.9805 1.9202,13.3305 -23.4087,26.1625 -36.1953,36.2832 -8.0826,6.3974 -22.3115,21.4496 -34.7949,26.8925 -12.6288,5.5065 -64.4916,18.497 -45.0762,39.2071 l 2.1367,3.2519 c 0.249,0.4226 0.5131,0.8286 0.8106,1.2344 l 0.064,0.1 0.051,0.053 c 0.6626,0.877 1.5337,1.8181 3.0234,3.1972 0.5147,0.1146 1.0224,0.2105 1.5352,0.3203 0,6e-4 0.01,0 0.01,0 l 1.6484,0.4258 10.7696,1.916 c 0.5547,0.049 1.075,0.091 1.625,0.1387 11.508,1.6008 23.0474,2.2076 35.7304,2.414 0.013,2e-4 0.028,0 0.041,0 10.9531,0.4294 21.874,0.4876 33.789,0.033 0.01,-10e-5 0.017,0 0.025,0 0.4076,0 0.775,0 1.1856,0 5.5828,-0.7744 30.8398,-5.7509 49.8476,-8.5078 v 8.6289 c 0,0 52.689,7e-4 58.0899,-0.2325 2.8888,-0.1237 4.9672,-6.9319 6.2832,-13.2421 1.6494,-0.8166 2.8562,-1.8514 3.7207,-3.1719 l 0.021,-0.022 0.01,-0.019 c 0.1578,-0.2442 0.2972,-0.504 0.4336,-0.7676 h 0.016 l 0.029,-0.08 c 0.3778,-0.748 0.6793,-1.5716 0.9121,-2.4863 l 0.01,-0.02 v -0.033 c 0.081,-0.3244 0.1544,-0.6611 0.2207,-1.0078 l 0.012,-0.031 c 0,0 0,-10e-5 0,0 0.2371,-1.2501 0.3804,-2.6541 0.4688,-4.2149 l 0.01,-0.057 v -0.055 c 0.1265,-2.3165 0.1347,-4.9816 0.1347,-8.0703 0,-2.272 -0.096,-4.5462 -0.2578,-6.8164 v -0.1602 l -0.025,-0.209 c -0.2454,-3.2712 -0.6422,-6.5302 -1.1641,-9.7558 l -0.016,-0.1289 -0.033,-0.1582 c -0.59,-3.5953 -1.3342,-7.1391 -2.1758,-10.6133 l -0.078,-0.3809 -0.2305,-0.8418 c -0.6917,-2.7629 -1.4278,-5.4862 -2.2187,-8.1289 l -0.029,-0.1054 -0.08,-0.2461 c -1.0676,-3.5435 -2.1974,-6.9472 -3.3379,-10.1992 l -0.1055,-0.3204 -0.1914,-0.5136 c -1.3553,-3.8277 -2.708,-7.4305 -3.9707,-10.711 l -4.7539,-12.6015 c -0.011,-0.031 -0.025,-0.069 -0.035,-0.1 0,-0.013 -0.01,-0.032 -0.014,-0.045 l -3.375,-11.0293 c -0.069,-0.2455 -0.1297,-0.4674 -0.1973,-0.7089 l -2.914,-12.4883 c -0.01,-0.046 -0.019,-0.091 -0.027,-0.1367 -0.036,-0.1898 -0.072,-0.3755 -0.1074,-0.5664 l -1.0879,-6.2383 c -0.043,-0.26 -0.083,-0.5232 -0.125,-0.7852 l -1.6894,-11.6172 c -0.1332,-1.0064 -0.2606,-2.064 -0.3907,-3.0918 l -1.4257,-12.1211 c -0.2237,-2.0499 -0.4434,-4.1355 -0.6602,-6.25 l -1.3066,-13.4277 c -0.4308,-4.6585 -0.8578,-9.4024 -1.2793,-14.291 l -3.6348,-43.3203 -0.094,-1.0039 c -2.2639,-26.5243 -4.8779,-54.5851 -8.5742,-82.6172 v 0 c -0.7807,-5.9209 -1.6292,-11.8275 -2.5117,-17.7227 l -0.3301,-2.3262 -0.4922,-3.0742 c -0.5012,-3.2172 -1.0031,-6.4357 -1.539,-9.6347 l -0.01,-0.059 c -1.8415,-10.987 -3.8954,-21.849 -6.2031,-32.4825 l -0.041,-0.2011 -0.166,-0.7305 c -0.6355,-2.9055 -1.2921,-5.7899 -1.9668,-8.6582 l -0.01,-0.022 c -0.25,-1.0626 -0.4983,-2.1264 -0.7539,-3.1836 -0.4406,-1.8335 -0.8921,-3.6554 -1.3496,-5.4707 0,-0.016 -0.01,-0.033 -0.012,-0.049 -0.3501,-1.3884 -0.7102,-2.7655 -1.0703,-4.1426 l -0.1817,-0.7285 -0.1211,-0.4297 c -3.7509,-14.1934 -8.0507,-27.7598 -13.0156,-40.4082 l -0.096,-0.2676 -0.1113,-0.2695 c -1.0164,-2.5742 -2.0679,-5.101 -3.1407,-7.5957 l -0.3359,-0.8145 -0.1543,-0.3183 c -2.7781,-6.3762 -5.7442,-12.4815 -8.9199,-18.2695 l -0.1231,-0.25 -0.539,-0.9356 c -0.8698,-1.5592 -1.7555,-3.094 -2.6563,-4.6055 l -0.3672,-0.6347 -0.9648,-1.5996 c -0.1079,-0.1751 -0.2406,-0.3333 -0.3633,-0.4981 l -0.027,-0.072 -0.059,-0.047 c -0.7685,-0.9892 -1.7975,-1.7979 -3.0762,-2.4278 l -0.023,-0.017 -0.082,-0.027 c -0.9511,-0.4573 -2.0354,-0.82 -3.2324,-1.0976 l -0.1035,-0.035 v 0.01 c -0.1039,-0.024 -0.2009,-0.052 -0.3066,-0.074 -0.7484,-1.3907 -1.4978,-2.7808 -2.2656,-4.1621 l -0.1485,-0.2812 -0.066,-0.1152 c -1.9218,-3.4467 -3.9208,-6.8549 -5.9668,-10.2383 l -0.5976,-1.0235 -0.4024,-0.6308 c -1.8614,-3.0378 -3.776,-6.0476 -5.7421,-9.0293 l -0.4864,-0.7637 -0.7109,-1.0254 c -2.0545,-3.07 -4.1457,-6.1198 -6.3164,-9.125 0.9115,-5.5177 1.7411,-11.1396 2.498,-16.8242 l 0.025,-0.1738 0.07,-0.5762 c 0.5917,-4.487 1.1345,-9.0135 1.6348,-13.5645 l 0.1035,-0.8671 0.035,-0.3594 c 0.012,-0.113 0.027,-0.2249 0.039,-0.3379 1.5199,-2.7926 2.9259,-5.406 4.0235,-7.5606 0.2222,-0.4178 0.3669,-0.8409 0.4433,-1.2695 l 0.01,-0.014 v -0.01 c 0.1162,-0.6757 0.036,-1.3643 -0.1895,-2.0625 v 0 l -0.025,-0.2754 11.6172,-19.8027 c 0.069,-0.1164 0.142,-0.2409 0.211,-0.3574 l 0.025,-0.043 c 5.7922,-9.7956 11.8772,-20.1299 18.0371,-30.8789 l 0.3398,-0.582 0.6387,-1.127 c 0.8819,-1.5435 1.7647,-3.096 2.6484,-4.6562 1.0044,-0.056 2.0076,-0.1336 3.0078,-0.2325 l 0.3145,-0.018 0.5762,-0.078 c 1.1132,-0.1247 2.2229,-0.2739 3.33,-0.455 l 0.4649,-0.064 0.164,-0.033 c 1.0091,-0.1752 2.0162,-0.3731 3.0196,-0.5976 0.01,0 0.014,0 0.022,0 0.019,0 0.041,-0.01 0.06,-0.012 v 0 c 1.9943,-0.4493 3.9767,-0.9983 5.9453,-1.6543 l 0.041,-0.012 0.2051,-0.078 c 0.6188,-0.2091 1.2355,-0.4353 1.8515,-0.666 47.7925,2.4365 80.3574,-19.5 83.7539,-29.0683 0,0 0,0 0,0 l -0.7031,-4.8457 c -0.061,-0.4718 -0.1184,-0.9929 -0.1777,-1.4844 l -0.6153,-5.5957 c -0.052,-0.516 -0.1049,-1.0095 -0.1562,-1.541 v -0.02 c 0,-0.011 -8e-4,-0.022 0,-0.033 l -0.6289,-6.8828 c 0,-0.016 0,-0.036 0,-0.053 l -1.2305,-15.0097 -1.1543,-13.834 c -0.4707,-5.4034 -0.9934,-11.0698 -1.5918,-16.9531 l -0.01,-0.084 c -0.5374,-5.2796 -1.1474,-10.7539 -1.8242,-16.3496 v -0.02 c 0,-0.014 0,-0.027 0,-0.041 l -0.09,-0.8008 -0.051,-0.3906 c -0.4573,-3.7305 -0.9537,-7.5274 -1.4863,-11.37106 l -0.1191,-0.90429 -0.3262,-2.17969 c -0.395,-2.7587 -0.8111,-5.53467 -1.25,-8.33985 v -0.0234 c 0,-0.0116 0,-0.0236 0,-0.0352 l -0.3067,-2.04492 -0.4355,-2.58985 c -0.2359,-1.4346 -0.4782,-2.87024 -0.7266,-4.31445 l -0.01,-0.0352 c 0,-0.0129 0,-0.0262 -0.01,-0.0391 l -0.4179,-2.48437 -0.4883,-2.61524 c -0.4892,-2.69577 -0.9792,-5.39075 -1.5157,-8.11132 -2e-4,-10e-4 3e-4,-0.003 0,-0.004 0,-0.006 0,-0.013 0,-0.0195 l -0.027,-0.13477 c -0.5945,-3.00969 -1.2226,-6.03399 -1.8789,-9.0664 l -0.1113,-0.53516 -0.039,-0.17187 c -0.8297,-3.80605 -1.7136,-7.62623 -2.6484,-11.45313 l -0.078,-0.33789 -0.125,-0.47656 c -0.9245,-3.75457 -1.9034,-7.51465 -2.9375,-11.27344 l -0.1601,-0.61524 -0.127,-0.43164 c -1.1967,-4.30573 -2.4663,-8.60761 -3.8183,-12.89648 l -0.1055,-0.35547 -0.2441,-0.73633 c -0.9214,-2.89172 -1.8743,-5.77753 -2.8711,-8.65234 l -0.086,-0.25781 -0.1328,-0.36133 c -1.3226,-3.79114 -2.718,-7.56141 -4.1797,-11.3086 l -0.014,-0.0391 -0.1875,-0.50781 -0.1661,-0.39063 c -1.8485,-4.69503 -3.8098,-9.34705 -5.8925,-13.94335 l -0.1914,-0.45118 -0.3028,-0.63281 c -1.3006,-2.83866 -2.6472,-5.65488 -4.0429,-8.44531 l -0.295,-0.61524 -0.2226,-0.41015 c -2.2479,-4.4456 -4.619,-8.82285 -7.1231,-13.11914 l -0.01,-0.01 c 0,-0.003 0,-0.007 0,-0.01 l -0.1739,-0.32032 -0.3593,-0.58203 c -1.6205,-2.75167 -3.2936,-5.4712 -5.0254,-8.15039 l -0.014,-0.0215 c 0,-0.002 0,-0.005 0,-0.008 l -0.2715,-0.44141 -0.5059,-0.74414 c -3.5143,-5.3598 -7.2489,-10.5692 -11.2402,-15.58399 v -0.002 c -9e-4,-10e-4 0,-0.003 0,-0.004 l -0.096,-0.12695 -0.1758,-0.20508 c -2.68,-3.35211 -5.4781,-6.61216 -8.3847,-9.78515 -10e-4,-10e-4 0,-0.003 0,-0.004 l -0.3828,-0.44531 -0.7031,-0.74024 c -0.6003,-0.64399 -1.2103,-1.28008 -1.8204,-1.91601 l -3.3906,-3.57031 c 0,-0.005 -0.01,-0.0121 -0.012,-0.0176 l -0.8691,-1.56836 c 0.6669,-0.1544 1.2571,-0.48171 1.791,-0.92774 v -0.002 l 0.078,-0.0371 0.043,-0.0606 c 0.6631,-0.58991 1.2227,-1.39112 1.6914,-2.35742 l 0.045,-0.0625 0.027,-0.082 c 0.4772,-1.02077 0.8546,-2.21354 1.1445,-3.53125 l 0.025,-0.0762 0.01,-0.0625 c 0.3857,-1.80276 0.6087,-3.82393 0.6973,-5.9375 l 0.01,-0.0762 v -0.0762 c 0.075,-1.92389 0.027,-3.90937 -0.1,-5.875 l -0.01,-0.3379 -0.066,-0.62304 c -0.1001,-1.25826 -0.2317,-2.48958 -0.3984,-3.6836 l -0.051,-0.47656 -0.027,-0.14258 c -0.1302,-0.86636 -0.2813,-1.68858 -0.4414,-2.49023 1.5768,-0.89191 3.1522,-1.84926 4.7246,-2.86719 l 0.1,-0.0566 0.1015,-0.0742 c 3.1106,-2.02495 6.2033,-4.29985 9.2461,-6.83984 l 0.086,-0.0644 0.09,-0.084 c 2.7166,-2.27821 5.3937,-4.76185 8.0059,-7.47266 l 0.029,-0.0273 0.018,-0.0215 c 2.4603,-2.55651 4.864,-5.31175 7.1914,-8.26953 l 0.033,-0.0371 0.051,-0.0703 c 1.9078,-2.43041 3.7606,-5.00404 5.5547,-7.71484 l 0.1172,-0.16211 0.092,-0.15234 c 3.1561,-4.80111 6.1166,-10.04559 8.8242,-15.75977 l 0.1231,-0.24023 0.064,-0.14844 c 1.4107,-3.00108 2.755,-6.12677 4.0176,-9.38867 l 0.01,-0.0156 c 1.245,-3.21745 2.4095,-6.56677 3.4941,-10.04492 l 0.037,-0.10351 0.07,-0.2461 c 0.7828,-2.52952 1.5183,-5.13275 2.209,-7.80273 l 0.1,-0.35352 0.057,-0.25391 c 0.9106,-3.57156 1.7351,-7.26896 2.4687,-11.0957 2.42,0.80462 4.7269,1.48728 6.9141,2.05274 l 0.2793,0.0898 0.1523,0.0273 c 4.388,1.11011 8.2299,1.69845 11.2735,1.63672 l 0.072,0.008 0.049,-0.008 c 1.5135,-0.0394 2.8242,-0.24219 3.9043,-0.62304 l 0.1445,-0.0234 0.2129,-0.11719 c 0.3776,-0.15517 0.7328,-0.3265 1.0449,-0.53125 l 0.1563,0.0352 0.039,-0.18555 0.01,-0.004 -0.01,-0.004 0.8515,-3.99805 c 2.8036,-12.1457 5.5239,-23.8148 8.1055,-34.99023 4.8146,-20.75418 9.0669,-39.64574 11.8203,-55.08204 l 0.088,-0.42968 0.029,-0.19922 c 1.2924,-7.30759 2.254,-13.86901 2.7812,-19.51758 l 0.014,-0.0957 v -0.12305 c 0.3749,-4.08752 0.5308,-7.71267 0.4141,-10.79101 v -0.0195 c -0.08,-2.08078 -0.2925,-3.89218 -0.625,-5.46875 l -0.023,-0.20117 -0.035,-0.0918 c -0.3015,-1.336 -0.6938,-2.49626 -1.2011,-3.42968 -0.1534,-0.28213 -0.3659,-0.65659 -0.5293,-0.95703 l -0.025,-0.0664 -0.2598,-0.45117 c -0.8562,-1.56842 -1.8029,-3.27374 -3.0273,-5.26367 l -0.1114,-0.19141 -0.1171,-0.16797 c -1.381,-2.22153 -3.0171,-4.65984 -5.0606,-7.30469 l -0.01,-0.0117 c -1.5751,-2.03805 -3.3825,-4.18757 -5.4628,-6.42969 l -0.07,-0.082 -0.1543,-0.15625 c -1.2817,-1.37246 -2.6617,-2.77724 -4.1621,-4.21289 l -0.076,-0.0781 -0.039,-0.0352 c -1.5887,-1.51572 -3.316,-3.06553 -5.1738,-4.64062 l -0.168,-0.15039 -0.1289,-0.10156 c -1.8093,-1.52434 -3.7563,-3.07343 -5.8418,-4.64258 l -0.2129,-0.16992 -0.3066,-0.22071 c -1.466,-1.09275 -3.0015,-2.19471 -4.6114,-3.30468 l -0.2988,-0.21289 -0.2871,-0.1875 c -0.1556,-0.10629 -0.3079,-0.21195 -0.4648,-0.31836 l 0.7226,-15.14063 0.4356,-9.31836 c 0.1166,-2.48663 0.2413,-5.10657 0.3554,-7.56641 l 0.1797,-3.8457 0.9395,-20.87304 0.3808,-9.01954 c 0.093,-2.19935 0.1903,-4.43025 0.2793,-6.59179 l 0.1563,-3.71875 0.1074,-2.87891 c 0.2721,-6.83482 0.5197,-13.45522 0.7383,-19.82422 l 0.1094,-2.93555 0.01,-0.31835 c 0.017,-0.51629 0.04,-1.07706 0.057,-1.58985 l 83.9414,-8.08984 6.623,-13.53711 z m -265.125,326.58985 c 3.3595,0.0571 6.5786,3.00042 7.582,7.20898 0.4605,1.93165 0.3758,3.83182 -0.1289,5.47852 -8e-4,0.003 0,0.005 0,0.008 l -0.6172,1.49805 c -0.081,0.15327 -0.1622,0.30553 -0.2519,0.45117 l -1.1719,-3.15234 1.3516,-0.48047 -1.0371,-2.91993 v 0 l -4.7793,1.69922 c 0,0 0,0.002 0,0.002 l -0.1191,0.043 c -0.4577,-0.28321 -0.9264,-0.50333 -1.3887,-0.66016 l -0.029,-0.0215 -0.027,0.002 c -1.2337,-0.4047 -2.379,-0.34261 -2.9239,0.30859 l -0.01,0.002 -0.01,0.0137 c -0.1032,0.12768 -0.1859,0.27338 -0.2402,0.44531 -0.1654,0.52343 -0.3453,1.01212 -0.5176,1.51758 l -0.2344,0.60937 c -0.2251,-0.61414 -0.4218,-1.25785 -0.582,-1.92968 -1.1465,-4.80915 -0.1429,-9.05132 3.6933,-9.9668 0.4797,-0.11438 0.9635,-0.16441 1.4434,-0.15625 z m 2.373,22.49805 0.4942,1.33789 v 0 l -0.031,0.0176 c -0.1004,0.0413 -0.2009,0.0822 -0.3008,0.125 l -0.7871,0.25977 c 0.2252,-0.58037 0.4283,-1.15905 0.6269,-1.74023 z"
       transform="scale(0.26458333)" />
  </g>
</svg>
