<?xml version="1.0" encoding="UTF-8" standalone="no"?>
<svg
   xmlns:dc="http://purl.org/dc/elements/1.1/"
   xmlns:cc="http://creativecommons.org/ns#"
   xmlns:rdf="http://www.w3.org/1999/02/22-rdf-syntax-ns#"
   xmlns:svg="http://www.w3.org/2000/svg"
   xmlns="http://www.w3.org/2000/svg"
   xmlns:sodipodi="http://sodipodi.sourceforge.net/DTD/sodipodi-0.dtd"
   xmlns:inkscape="http://www.inkscape.org/namespaces/inkscape"
   width="51.210342mm"
   height="10.223081mm"
   viewBox="0 0 51.210342 10.223081"
   version="1.1"
   id="svg8"
   inkscape:version="1.0 (1.0+r73+1)"
   sodipodi:docname="Elpida Logo_new.svg">
  <defs
     id="defs2" />
  <sodipodi:namedview
     id="base"
     pagecolor="#ffffff"
     bordercolor="#666666"
     borderopacity="1.0"
     inkscape:pageopacity="0.0"
     inkscape:pageshadow="2"
     inkscape:zoom="1.4142136"
     inkscape:cx="-599.44384"
     inkscape:cy="44.744233"
     inkscape:document-units="mm"
     inkscape:current-layer="layer1"
     inkscape:document-rotation="0"
     showgrid="false"
     fit-margin-top="0"
     fit-margin-left="0"
     fit-margin-bottom="0"
     fit-margin-right="0"
     inkscape:window-width="3840"
     inkscape:window-height="2055"
     inkscape:window-x="3840"
     inkscape:window-y="0"
     inkscape:window-maximized="1" />
  <metadata
     id="metadata5">
    <rdf:RDF>
      <cc:Work
         rdf:about="">
        <dc:format>image/svg+xml</dc:format>
        <dc:type
           rdf:resource="http://purl.org/dc/dcmitype/StillImage" />
        <dc:title></dc:title>
      </cc:Work>
    </rdf:RDF>
  </metadata>
  <g
     inkscape:label="Στρώση 1"
     inkscape:groupmode="layer"
     id="layer1"
     transform="translate(-40.201102,-63.417597)">
    <path
       sodipodi:nodetypes="ccccccccccccc"
       d="m 40.594874,44.939777 h -1.244367 l -0.196371,0.562239 H 34.85466 l -0.01111,-3.086113 h 6.512782 l 0.0018,3.086113 h -0.568933 z m -1.04593,-0.572574 h 0.845426 l -0.42168,-1.227831 z"
       style="font-style:normal;font-variant:normal;font-weight:bold;font-stretch:normal;font-size:4.23333px;line-height:1.25;font-family:'DejaVu Sans';-inkscape-font-specification:'DejaVu Sans Bold';letter-spacing:0px;word-spacing:0px;fill:#000000;fill-opacity:1;stroke:none;stroke-width:0.264583"
       id="path849-1-0" />
    <g
       id="g914"
       transform="matrix(3.3125095,0,0,3.3125095,-166.43328,-182.53676)">
      <path
         sodipodi:nodetypes="ccccccccccccc"
         d="m 62.380012,74.250159 h 2.193146 l 0.0022,0.601513 h -1.399529 v 0.574642 h 1.400051 v 0.601513 h -1.400051 v 0.706933 h 1.39733 v 0.601513 h -2.193146 z"
         style="font-style:normal;font-variant:normal;font-weight:bold;font-stretch:normal;font-size:4.23333px;line-height:1.25;font-family:'DejaVu Sans';-inkscape-font-specification:'DejaVu Sans Bold';letter-spacing:0px;word-spacing:0px;fill:#000000;fill-opacity:1;stroke:none;stroke-width:0.264583"
         id="path855" />
      <path
         transform="scale(0.26458333)"
         d="m 244.05664,280.63086 v 11.66406 l 4.32031,-11.66406 z m 7.90625,0 4.32031,11.66406 h 3.00782 v -9.39062 h 4.4375 v 9.39062 h 3.00781 v -11.66406 z m -1.78906,2.73437 -3.09375,8.92969 h 6.17969 z"
         style="font-style:normal;font-variant:normal;font-weight:bold;font-stretch:normal;font-size:4.23333px;line-height:1.25;font-family:'DejaVu Sans';-inkscape-font-specification:'DejaVu Sans Bold';letter-spacing:0px;word-spacing:0px;fill:#000000;fill-opacity:1;stroke:none;stroke-width:0.999999"
         id="path859" />
      <path
         transform="scale(0.26458333)"
         d="m 269.74414,280.63086 v 11.66406 l 4.32422,-11.66406 z m 7.90625,0 4.32031,11.66406 h 3.02344 l 0.73438,-2.125 h 4.70312 l 0.74219,2.125 h 3.02344 l -4.32032,-11.66406 z m -1.79687,2.73437 -2.26563,6.65625 h 4.5625 z m 12.22656,0 1.60156,4.64063 h -3.19531 z"
         style="font-style:normal;font-variant:normal;font-weight:bold;font-stretch:normal;font-size:4.23333px;line-height:1.25;font-family:'DejaVu Sans';-inkscape-font-specification:'DejaVu Sans Bold';letter-spacing:0px;word-spacing:0px;fill:#000000;fill-opacity:1;stroke:none;stroke-width:0.999999"
         id="path865" />
      <path
         d="m 70.57382,74.250159 h 0.795817 v 3.086114 H 70.57382 Z"
         style="font-style:normal;font-variant:normal;font-weight:bold;font-stretch:normal;font-size:4.23333px;line-height:1.25;font-family:'DejaVu Sans';-inkscape-font-specification:'DejaVu Sans Bold';letter-spacing:0px;word-spacing:0px;fill:#ffffff;fill-opacity:0;stroke:none;stroke-width:0.264583"
         id="path861" />
    </g>
    <path
       d="m 8.9010385,63.474998 h 2.1476705 v 0.601513 H 9.6968549 v 0.574641 h 1.2712391 v 0.601513 H 9.6968549 v 0.706933 h 1.3973291 v 0.601513 H 8.9010385 Z"
       style="font-style:normal;font-variant:normal;font-weight:bold;font-stretch:normal;font-size:4.23333px;line-height:1.25;font-family:'DejaVu Sans';-inkscape-font-specification:'DejaVu Sans Bold';letter-spacing:0px;word-spacing:0px;fill:#000000;fill-opacity:1;stroke:none;stroke-width:0.264583"
       id="path839" />
    <path
       d="m 13.861972,66.561111 -0.816487,-2.362644 -0.818554,2.362644 H 11.42698 l 1.143082,-3.086113 h 0.948779 l 1.143081,3.086113 z"
       style="font-style:normal;font-variant:normal;font-weight:bold;font-stretch:normal;font-size:4.23333px;line-height:1.25;font-family:'DejaVu Sans';-inkscape-font-specification:'DejaVu Sans Bold';letter-spacing:0px;word-spacing:0px;fill:#000000;fill-opacity:1;stroke:none;stroke-width:0.264583"
       id="path841" />
    <path
       d="m 17.834853,63.474998 v 3.086113 h -0.795817 v -2.4846 h -1.174087 v 2.4846 h -0.795817 v -3.086113 z"
       style="font-style:normal;font-variant:normal;font-weight:bold;font-stretch:normal;font-size:4.23333px;line-height:1.25;font-family:'DejaVu Sans';-inkscape-font-specification:'DejaVu Sans Bold';letter-spacing:0px;word-spacing:0px;fill:#000000;fill-opacity:1;stroke:none;stroke-width:0.264583"
       id="path843" />
    <path
       d="m 18.6162,63.474998 h 0.795816 v 3.086113 H 18.6162 Z"
       style="font-style:normal;font-variant:normal;font-weight:bold;font-stretch:normal;font-size:4.23333px;line-height:1.25;font-family:'DejaVu Sans';-inkscape-font-specification:'DejaVu Sans Bold';letter-spacing:0px;word-spacing:0px;fill:#000000;fill-opacity:1;stroke:none;stroke-width:0.264583"
       id="path845" />
    <path
       d="m 23.062436,66.561111 h -3.234942 l 1.143082,-3.086113 h 0.948779 z m -2.224152,-0.601513 h 1.207161 l -0.599446,-1.761131 z"
       style="font-style:normal;font-variant:normal;font-weight:bold;font-stretch:normal;font-size:4.23333px;line-height:1.25;font-family:'DejaVu Sans';-inkscape-font-specification:'DejaVu Sans Bold';letter-spacing:0px;word-spacing:0px;fill:#000000;fill-opacity:1;stroke:none;stroke-width:0.264583"
       id="path847" />
    <path
       d="m 25.342398,65.998872 h -1.244367 l -0.196371,0.562239 h -0.79995 l 1.143082,-3.086113 h 0.948778 l 1.143082,3.086113 h -0.799951 z m -1.04593,-0.572574 h 0.845426 l -0.42168,-1.227831 z"
       style="font-style:normal;font-variant:normal;font-weight:bold;font-stretch:normal;font-size:4.23333px;line-height:1.25;font-family:'DejaVu Sans';-inkscape-font-specification:'DejaVu Sans Bold';letter-spacing:0px;word-spacing:0px;fill:#000000;fill-opacity:1;stroke:none;stroke-width:0.264583"
       id="path849" />
    <path
       id="path839-3"
       style="font-style:normal;font-variant:normal;font-weight:bold;font-stretch:normal;font-size:4.23333px;line-height:1.25;font-family:'DejaVu Sans';-inkscape-font-specification:'DejaVu Sans Bold';letter-spacing:0px;word-spacing:0px;fill:#000000;fill-opacity:1;stroke:none;stroke-width:0.264583"
       d="m -2.4732985,39.402597 h 2.14767097 V 40.00411 H -1.6774825 v 0.574641 h 1.27123997 v 0.601513 H -1.6774825 v 0.706933 h 1.39732997 V 42.48871 H -2.4732985 Z" />
    <path
       id="path841-8"
       style="font-style:normal;font-variant:normal;font-weight:bold;font-stretch:normal;font-size:4.23333px;line-height:1.25;font-family:'DejaVu Sans';-inkscape-font-specification:'DejaVu Sans Bold';letter-spacing:0px;word-spacing:0px;fill:#000000;fill-opacity:1;stroke:none;stroke-width:0.264583"
       d="M 2.419423,42.48871 1.602936,40.126066 0.78438097,42.48871 H -0.01556901 L 1.127513,39.402597 h 0.948779 l 1.143081,3.086113 z" />
    <path
       id="path843-0"
       style="font-style:normal;font-variant:normal;font-weight:bold;font-stretch:normal;font-size:4.23333px;line-height:1.25;font-family:'DejaVu Sans';-inkscape-font-specification:'DejaVu Sans Bold';letter-spacing:0px;word-spacing:0px;fill:#000000;fill-opacity:1;stroke:none;stroke-width:0.264583"
       d="m 6.4842875,39.402597 v 3.086113 h -0.795816 v -2.4846 H 4.5143846 v 2.4846 h -0.795817 v -3.086113 z" />
    <path
       id="path845-3"
       style="font-style:normal;font-variant:normal;font-weight:bold;font-stretch:normal;font-size:4.23333px;line-height:1.25;font-family:'DejaVu Sans';-inkscape-font-specification:'DejaVu Sans Bold';letter-spacing:0px;word-spacing:0px;fill:#000000;fill-opacity:1;stroke:none;stroke-width:0.264583"
       d="m -1.7746336,42.753293 h 0.79581616 v 3.086113 H -1.7746336 Z" />
    <path
       id="path847-7"
       style="font-style:normal;font-variant:normal;font-weight:bold;font-stretch:normal;font-size:4.23333px;line-height:1.25;font-family:'DejaVu Sans';-inkscape-font-specification:'DejaVu Sans Bold';letter-spacing:0px;word-spacing:0px;fill:#000000;fill-opacity:1;stroke:none;stroke-width:0.264583"
       d="M 3.2193731,45.839406 H -0.01556918 L 1.1275127,42.753293 H 2.0762921 Z M 0.99522075,45.237893 H 2.2023821 l -0.599446,-1.761131 z" />
    <path
       id="path849-1"
       style="font-style:normal;font-variant:normal;font-weight:bold;font-stretch:normal;font-size:4.23333px;line-height:1.25;font-family:'DejaVu Sans';-inkscape-font-specification:'DejaVu Sans Bold';letter-spacing:0px;word-spacing:0px;fill:#000000;fill-opacity:1;stroke:none;stroke-width:0.264583"
       d="m 5.7246446,45.277167 h -1.244367 l -0.196371,0.562239 H 3.4839565 l 1.1430821,-3.086113 h 0.948778 l 1.143082,3.086113 h -0.799951 z m -1.04593,-0.572574 h 0.845426 l -0.42168,-1.227831 z" />
    <path
       d="m -30.059992,34.871924 h 2.14767 v 0.601514 h -1.351854 v 0.574641 h 1.271239 v 0.601513 h -1.271239 v 0.706933 h 1.39733 v 0.601513 h -2.193146 z"
       style="font-style:normal;font-variant:normal;font-weight:bold;font-stretch:normal;font-size:4.23333px;line-height:1.25;font-family:'DejaVu Sans';-inkscape-font-specification:'DejaVu Sans Bold';letter-spacing:0px;word-spacing:0px;fill:#000000;fill-opacity:1;stroke:none;stroke-width:0.264583"
       id="path892" />
    <path
       d="m -26.533596,35.849642 -0.128157,-0.347266 q -0.05788,-0.159163 -0.136426,-0.217041 -0.07648,-0.05788 -0.270784,-0.05788 h -0.23151 V 34.7417 h 0.42788 q 0.376204,0 0.578776,0.159163 0.204638,0.159163 0.345198,0.535368 l 0.946711,2.521807 h -0.740005 l -0.460954,-1.215428 -0.485758,1.215428 h -0.740006 z"
       style="font-style:normal;font-variant:normal;font-weight:bold;font-stretch:normal;font-size:4.23333px;line-height:1.25;font-family:'DejaVu Sans';-inkscape-font-specification:'DejaVu Sans Bold';letter-spacing:0px;word-spacing:0px;fill:#000000;fill-opacity:1;stroke:none;stroke-width:0.264583"
       id="path894" />
    <path
       d="m -24.698051,35.642936 h 2.92075 v 0.529166 h -0.405143 v 1.037662 q 0,0.26665 0.04961,0.332796 0.05168,0.06408 0.167432,0.06408 0.117822,0 0.183968,-0.0083 v 0.388606 q -0.128158,0.05168 -0.566373,0.05168 -0.138493,0 -0.272852,-0.03927 -0.214973,-0.06408 -0.274918,-0.25218 -0.02687,-0.08888 -0.02687,-0.270785 v -1.304312 h -0.630452 v 1.785936 h -0.740006 v -1.785936 h -0.405143 z"
       style="font-style:normal;font-variant:normal;font-weight:bold;font-stretch:normal;font-size:4.23333px;line-height:1.25;font-family:'DejaVu Sans';-inkscape-font-specification:'DejaVu Sans Bold';letter-spacing:0px;word-spacing:0px;fill:#000000;fill-opacity:1;stroke:none;stroke-width:0.264583"
       id="path896" />
    <path
       d="m -20.617683,34.572201 h 0.584977 l -0.762744,0.777213 h -0.405143 z m 0.16123,2.637563 q 0,0.264583 0.04961,0.330729 0.05168,0.06615 0.169498,0.06615 0.115755,0 0.181901,-0.0083 v 0.388606 q -0.128157,0.05168 -0.566373,0.05168 -0.138493,0 -0.272851,-0.03927 -0.214974,-0.06408 -0.272852,-0.25218 -0.02894,-0.08888 -0.02894,-0.270785 v -1.833478 h 0.740005 z"
       style="font-style:normal;font-variant:normal;font-weight:bold;font-stretch:normal;font-size:4.23333px;line-height:1.25;font-family:'DejaVu Sans';-inkscape-font-specification:'DejaVu Sans Bold';letter-spacing:0px;word-spacing:0px;fill:#000000;fill-opacity:1;stroke:none;stroke-width:0.264583"
       id="path898" />
    <path
       d="m -17.484027,35.34528 q -0.25218,-0.144694 -0.911571,-0.144694 -0.3514,0 -0.3514,0.202572 0,0.192236 0.481624,0.264583 0.479557,0.07235 0.768945,0.303857 0.3514,0.279052 0.3514,0.839224 0,0.560173 -0.338998,0.8847 -0.338997,0.322461 -0.930175,0.322461 -0.593245,0 -0.934309,-0.322461 -0.341064,-0.324527 -0.341064,-0.892968 0,-0.429947 0.338997,-0.762743 0.10542,-0.103353 0.237712,-0.169499 -0.305925,-0.163297 -0.305925,-0.491959 0,-0.669726 1.091406,-0.669726 0.547769,0 0.843358,0.144694 z m -1.107941,0.793749 q -0.109554,0.04548 -0.196371,0.161231 -0.136425,0.179834 -0.136425,0.504361 0,0.324528 0.134358,0.506429 0.136426,0.181901 0.37207,0.181901 0.233578,0 0.370003,-0.183968 0.136426,-0.186035 0.136426,-0.496093 0,-0.307992 -0.146761,-0.463021 -0.146761,-0.157096 -0.351399,-0.179834 -0.09508,-0.01033 -0.181901,-0.03101 z"
       style="font-style:normal;font-variant:normal;font-weight:bold;font-stretch:normal;font-size:4.23333px;line-height:1.25;font-family:'DejaVu Sans';-inkscape-font-specification:'DejaVu Sans Bold';letter-spacing:0px;word-spacing:0px;fill:#000000;fill-opacity:1;stroke:none;stroke-width:0.264583"
       id="path900" />
    <path
       d="m -14.974621,35.866178 0.07441,-0.223242 h 0.640788 l -0.398942,1.192691 0.05581,0.31626 q 0.05995,0.341064 0.200505,0.341064 h 0.169498 v 0.465087 h -0.210839 q -0.328662,0 -0.496094,-0.173632 -0.03721,-0.03927 -0.04754,-0.05994 -0.09922,0.12609 -0.198437,0.208773 -0.09715,0.08062 -0.611849,0.07648 -0.51263,-0.0041 -0.737939,-0.31626 -0.223242,-0.312125 -0.223242,-0.921907 0,-0.607714 0.233578,-0.855761 0.295589,-0.318326 0.861962,-0.324527 0.47749,-0.0062 0.688329,0.274918 z m -0.285253,0.874365 -0.06201,-0.33693 q -0.05788,-0.314193 -0.330729,-0.31626 -0.138493,0 -0.254248,0.179834 -0.113688,0.177767 -0.113688,0.539501 0,0.363802 0.103353,0.5271 0.103353,0.163297 0.256315,0.167431 0.16123,0.0041 0.260449,-0.312125 z"
       style="font-style:normal;font-variant:normal;font-weight:bold;font-stretch:normal;font-size:4.23333px;line-height:1.25;font-family:'DejaVu Sans';-inkscape-font-specification:'DejaVu Sans Bold';letter-spacing:0px;word-spacing:0px;fill:#000000;fill-opacity:1;stroke:none;stroke-width:0.264583"
       id="path902" />
    <path
       id="path892-9"
       style="font-style:normal;font-variant:normal;font-weight:bold;font-stretch:normal;font-size:4.23333px;line-height:1.25;font-family:'DejaVu Sans';-inkscape-font-specification:'DejaVu Sans Bold';letter-spacing:0px;word-spacing:0px;fill:#000000;fill-opacity:1;stroke:none;stroke-width:0.264583"
       d="m -19.537878,62.877075 h 2.14767 v 0.601514 h -1.351854 v 0.574641 h 1.271239 v 0.601513 h -1.271239 v 0.706933 h 1.39733 v 0.601513 h -2.193146 z" />
    <path
       id="path894-9"
       style="font-style:normal;font-variant:normal;font-weight:bold;font-stretch:normal;font-size:4.23333px;line-height:1.25;font-family:'DejaVu Sans';-inkscape-font-specification:'DejaVu Sans Bold';letter-spacing:0px;word-spacing:0px;fill:#000000;fill-opacity:1;stroke:none;stroke-width:0.264583"
       d="m -16.011482,63.854793 -0.128157,-0.347266 q -0.05788,-0.159163 -0.136426,-0.217041 -0.07648,-0.05788 -0.270784,-0.05788 h -0.23151 v -0.485755 h 0.42788 q 0.376204,0 0.578776,0.159163 0.204638,0.159163 0.345198,0.535368 l 0.946711,2.521807 h -0.740005 l -0.460954,-1.215428 -0.485758,1.215428 h -0.740006 z" />
    <path
       id="path896-4"
       style="font-style:normal;font-variant:normal;font-weight:bold;font-stretch:normal;font-size:4.23333px;line-height:1.25;font-family:'DejaVu Sans';-inkscape-font-specification:'DejaVu Sans Bold';letter-spacing:0px;word-spacing:0px;fill:#000000;fill-opacity:1;stroke:none;stroke-width:0.264583"
       d="m -14.175937,63.648087 h 2.92075 v 0.529166 h -0.405143 v 1.037662 q 0,0.26665 0.04961,0.332796 0.05168,0.06408 0.167432,0.06408 0.117822,0 0.183968,-0.0083 v 0.388606 q -0.128158,0.05168 -0.566373,0.05168 -0.138493,0 -0.272852,-0.03927 -0.214973,-0.06408 -0.274918,-0.25218 -0.02687,-0.08888 -0.02687,-0.270785 V 64.17723 h -0.630452 v 1.785936 h -0.740006 V 64.17723 h -0.405143 z" />
    <path
       id="path898-9"
       style="font-style:normal;font-variant:normal;font-weight:bold;font-stretch:normal;font-size:4.23333px;line-height:1.25;font-family:'DejaVu Sans';-inkscape-font-specification:'DejaVu Sans Bold';letter-spacing:0px;word-spacing:0px;fill:#000000;fill-opacity:1;stroke:none;stroke-width:0.264583"
       d="m -10.095569,62.577352 h 0.5849765 l -0.7627435,0.777213 h -0.405143 z m 0.1612295,2.637563 q 0,0.264583 0.04961,0.330729 0.05168,0.06615 0.169498,0.06615 0.115755,0 0.181901,-0.0083 V 65.9921 q -0.128157,0.05168 -0.5663725,0.05168 -0.138493,0 -0.272851,-0.03927 -0.214974,-0.06408 -0.272852,-0.25218 -0.02894,-0.08888 -0.02894,-0.270785 v -1.833478 h 0.7400045 z" />
    <path
       id="path900-0"
       style="font-style:normal;font-variant:normal;font-weight:bold;font-stretch:normal;font-size:4.23333px;line-height:1.25;font-family:'DejaVu Sans';-inkscape-font-specification:'DejaVu Sans Bold';letter-spacing:0px;word-spacing:0px;fill:#000000;fill-opacity:1;stroke:none;stroke-width:0.264583"
       d="m -6.9619135,63.350431 q -0.25218,-0.144694 -0.911571,-0.144694 -0.3514,0 -0.3514,0.202572 0,0.192236 0.481624,0.264583 0.479557,0.07235 0.768945,0.303857 0.3514,0.279052 0.3514,0.839224 0,0.560173 -0.338998,0.8847 -0.338997,0.322461 -0.930175,0.322461 -0.593245,0 -0.934309,-0.322461 -0.341064,-0.324527 -0.341064,-0.892968 0,-0.429947 0.338997,-0.762743 0.10542,-0.103353 0.237712,-0.169499 -0.305925,-0.163297 -0.305925,-0.491959 0,-0.669726 1.091406,-0.669726 0.547769,0 0.843358,0.144694 z m -1.107941,0.793749 q -0.109554,0.04548 -0.196371,0.161231 -0.136425,0.179834 -0.136425,0.504361 0,0.324528 0.134358,0.506429 0.136426,0.181901 0.37207,0.181901 0.233578,0 0.370003,-0.183968 0.136426,-0.186035 0.136426,-0.496093 0,-0.307992 -0.146761,-0.463021 -0.146761,-0.157096 -0.351399,-0.179834 -0.09508,-0.01033 -0.181901,-0.03101 z" />
    <path
       id="path902-5"
       style="font-style:normal;font-variant:normal;font-weight:bold;font-stretch:normal;font-size:4.23333px;line-height:1.25;font-family:'DejaVu Sans';-inkscape-font-specification:'DejaVu Sans Bold';letter-spacing:0px;word-spacing:0px;fill:#000000;fill-opacity:1;stroke:none;stroke-width:0.264583"
       d="m -4.4525075,63.871329 0.07441,-0.223242 h 0.640788 l -0.398942,1.192691 0.05581,0.31626 q 0.05995,0.341064 0.200505,0.341064 h 0.169498 v 0.465087 h -0.210839 q -0.328662,0 -0.496094,-0.173632 -0.03721,-0.03927 -0.04754,-0.05994 -0.09922,0.12609 -0.198437,0.208773 -0.09715,0.08062 -0.611849,0.07648 -0.51263,-0.0041 -0.737939,-0.31626 -0.223242,-0.312125 -0.223242,-0.921907 0,-0.607714 0.233578,-0.855761 0.295589,-0.318326 0.861962,-0.324527 0.47749,-0.0062 0.688329,0.274918 z m -0.285253,0.874365 -0.06201,-0.33693 q -0.05788,-0.314193 -0.330729,-0.31626 -0.138493,0 -0.254248,0.179834 -0.113688,0.177767 -0.113688,0.539501 0,0.363802 0.103353,0.5271 0.103353,0.163297 0.256315,0.167431 0.16123,0.0041 0.260449,-0.312125 z" />
    <g
       style="font-style:normal;font-variant:normal;font-weight:bold;font-stretch:normal;font-size:4.23333px;line-height:1.25;font-family:'DejaVu Sans';-inkscape-font-specification:'DejaVu Sans Bold';letter-spacing:0px;word-spacing:0px;fill:#000000;fill-opacity:1;stroke:none;stroke-width:0.264583"
       id="text943"
       aria-label="ελπίδα">
      <path
         id="path1085"
         style="font-style:normal;font-variant:normal;font-weight:bold;font-stretch:normal;font-family:'DejaVu Sans';-inkscape-font-specification:'DejaVu Sans Bold';stroke-width:0.264583"
         d="m -29.543592,41.485072 q -0.223242,-0.05168 -0.33693,-0.181901 -0.115755,-0.132291 -0.115755,-0.332795 0,-0.312126 0.239779,-0.458887 0.239778,-0.148828 0.719335,-0.148828 0.179834,0 0.363802,0.02481 0.186035,0.0248 0.374137,0.07441 v 0.494026 q -0.124023,-0.05581 -0.299723,-0.08888 -0.1757,-0.03307 -0.297656,-0.03307 -0.19637,0 -0.310058,0.07235 -0.115756,0.07441 -0.115756,0.16123 0,0.09095 0.117823,0.16123 0.103352,0.06201 0.345198,0.06201 h 0.256315 v 0.463021 h -0.243913 q -0.26665,0 -0.394807,0.07648 -0.138493,0.08061 -0.138493,0.204638 0,0.119889 0.136426,0.202572 0.134358,0.08061 0.374137,0.08061 0.159163,0 0.334863,-0.04134 0.194303,-0.04548 0.341064,-0.11989 v 0.520898 q -0.186035,0.05788 -0.376204,0.08682 -0.192237,0.02894 -0.382406,0.02894 -0.539501,0 -0.820621,-0.179834 -0.281119,-0.179834 -0.281119,-0.537435 0,-0.23151 0.130224,-0.380338 0.130225,-0.148828 0.380338,-0.21084 z" />
      <path
         id="path1087"
         style="font-style:normal;font-variant:normal;font-weight:bold;font-stretch:normal;font-family:'DejaVu Sans';-inkscape-font-specification:'DejaVu Sans Bold';stroke-width:0.264583"
         d="m -26.903962,40.625177 -0.128157,-0.347265 q -0.05788,-0.159163 -0.136426,-0.217041 -0.07648,-0.05788 -0.270784,-0.05788 h -0.23151 v -0.485759 h 0.42788 q 0.376204,0 0.578776,0.159164 0.204638,0.159163 0.345198,0.535367 l 0.946712,2.521808 h -0.740006 l -0.460954,-1.215429 -0.485758,1.215429 h -0.740006 z" />
      <path
         id="path1089"
         style="font-style:normal;font-variant:normal;font-weight:bold;font-stretch:normal;font-family:'DejaVu Sans';-inkscape-font-specification:'DejaVu Sans Bold';stroke-width:0.264583"
         d="m -25.068416,40.418472 h 2.920749 v 0.529166 H -22.55281 V 41.9853 q 0,0.26665 0.04961,0.332796 0.05168,0.06408 0.167431,0.06408 0.117822,0 0.183968,-0.0083 v 0.388607 q -0.128157,0.05168 -0.566373,0.05168 -0.138493,0 -0.272851,-0.03927 -0.214974,-0.06408 -0.274919,-0.252181 -0.02687,-0.08888 -0.02687,-0.270784 v -1.304312 h -0.630452 v 1.785936 h -0.740006 v -1.785936 h -0.405143 z" />
      <path
         id="path1091"
         style="font-style:normal;font-variant:normal;font-weight:bold;font-stretch:normal;font-family:'DejaVu Sans';-inkscape-font-specification:'DejaVu Sans Bold';stroke-width:0.264583"
         d="m -20.988048,39.347737 h 0.584977 l -0.762744,0.777213 h -0.405143 z m 0.16123,2.637563 q 0,0.264583 0.04961,0.330729 0.05168,0.06614 0.169498,0.06614 0.115755,0 0.181901,-0.0083 v 0.388607 q -0.128157,0.05168 -0.566373,0.05168 -0.138493,0 -0.272851,-0.03927 -0.214974,-0.06408 -0.272852,-0.252181 -0.02894,-0.08888 -0.02894,-0.270784 v -1.833478 h 0.740006 z" />
      <path
         id="path1093"
         style="font-style:normal;font-variant:normal;font-weight:bold;font-stretch:normal;font-family:'DejaVu Sans';-inkscape-font-specification:'DejaVu Sans Bold';stroke-width:0.264583"
         d="m -17.854393,40.120816 q -0.25218,-0.144694 -0.911571,-0.144694 -0.3514,0 -0.3514,0.202571 0,0.192236 0.481624,0.264583 0.479557,0.07235 0.768945,0.303858 0.351399,0.279052 0.351399,0.839224 0,0.560172 -0.338997,0.8847 -0.338997,0.322461 -0.930175,0.322461 -0.593245,0 -0.934309,-0.322461 -0.341064,-0.324528 -0.341064,-0.892968 0,-0.429948 0.338997,-0.762744 0.10542,-0.103352 0.237712,-0.169498 -0.305925,-0.163298 -0.305925,-0.491959 0,-0.669726 1.091406,-0.669726 0.547769,0 0.843358,0.144693 z m -1.107941,0.793749 q -0.109554,0.04547 -0.196371,0.16123 -0.136425,0.179834 -0.136425,0.504362 0,0.324528 0.134358,0.506429 0.136426,0.1819 0.37207,0.1819 0.233578,0 0.370003,-0.183968 0.136426,-0.186035 0.136426,-0.496093 0,-0.307991 -0.146761,-0.46302 -0.146761,-0.157097 -0.3514,-0.179834 -0.09508,-0.01033 -0.1819,-0.03101 z" />
      <path
         id="path1095"
         style="font-style:normal;font-variant:normal;font-weight:bold;font-stretch:normal;font-family:'DejaVu Sans';-inkscape-font-specification:'DejaVu Sans Bold';stroke-width:0.264583"
         d="m -15.344987,40.641714 0.07441,-0.223242 h 0.640787 l -0.398941,1.192691 0.05581,0.316259 q 0.05995,0.341064 0.200505,0.341064 h 0.169498 v 0.465088 h -0.210839 q -0.328662,0 -0.496094,-0.173633 -0.03721,-0.03927 -0.04754,-0.05994 -0.09922,0.12609 -0.198437,0.208772 -0.09715,0.08062 -0.611849,0.07648 -0.51263,-0.0041 -0.737939,-0.316259 -0.223242,-0.312126 -0.223242,-0.921907 0,-0.607714 0.233578,-0.855761 0.295589,-0.318327 0.861962,-0.324528 0.47749,-0.0062 0.688329,0.274919 z m -0.285253,0.874364 -0.06201,-0.33693 q -0.05788,-0.314192 -0.330729,-0.316259 -0.138493,0 -0.254248,0.179833 -0.113688,0.177767 -0.113688,0.539502 0,0.363802 0.103353,0.527099 0.103353,0.163298 0.256315,0.167432 0.16123,0.0041 0.260449,-0.312126 z" />
    </g>
    <path
       sodipodi:nodetypes="ccccccccccccc"
       d="m 32.396931,39.330182 h 2.193146 v 0.601513 h -1.39733 v 0.574641 h 1.27124 v 0.601513 h -1.27124 v 0.706933 h 1.39733 v 0.601513 h -2.193146 z"
       style="font-style:normal;font-variant:normal;font-weight:bold;font-stretch:normal;font-size:4.23333px;line-height:1.25;font-family:'DejaVu Sans';-inkscape-font-specification:'DejaVu Sans Bold';letter-spacing:0px;word-spacing:0px;fill:#000000;fill-opacity:1;stroke:none;stroke-width:0.264583"
       id="path839-3-5" />
    <path
       sodipodi:nodetypes="ccccccccc"
       d="m 41.354517,39.330182 v 3.086113 h -0.795816 v -2.4846 h -1.174087 v 2.4846 h -4.529953 v -3.086113 z"
       style="font-style:normal;font-variant:normal;font-weight:bold;font-stretch:normal;font-size:4.23333px;line-height:1.25;font-family:'DejaVu Sans';-inkscape-font-specification:'DejaVu Sans Bold';letter-spacing:0px;word-spacing:0px;fill:#000000;fill-opacity:1;stroke:none;stroke-width:0.264583"
       id="path843-0-1" />
    <path
       d="m 37.289653,42.416295 -0.816487,-2.362644 -0.818556,2.362644 h -0.799949 l 1.143081,-3.086113 h 0.94878 l 1.143081,3.086113 z"
       style="font-style:normal;font-variant:normal;font-weight:bold;font-stretch:normal;font-size:4.23333px;line-height:1.25;font-family:'DejaVu Sans';-inkscape-font-specification:'DejaVu Sans Bold';letter-spacing:0px;word-spacing:0px;fill:#ffffff;fill-opacity:1;stroke:none;stroke-width:0.264583"
       id="path841-8-4" />
    <path
       d="m 33.095596,42.415903 h 0.795816 v 3.086113 h -0.795816 z"
       style="font-style:normal;font-variant:normal;font-weight:bold;font-stretch:normal;font-size:4.23333px;line-height:1.25;font-family:'DejaVu Sans';-inkscape-font-specification:'DejaVu Sans Bold';letter-spacing:0px;word-spacing:0px;fill:#000000;fill-opacity:1;stroke:none;stroke-width:0.264583"
       id="path845-3-9" />
    <path
       d="M 38.089603,45.502016 H 34.85466 l 1.143082,-3.086113 h 0.94878 z M 35.86545,44.900503 h 1.207162 l -0.599446,-1.761131 z"
       style="font-style:normal;font-variant:normal;font-weight:bold;font-stretch:normal;font-size:4.23333px;line-height:1.25;font-family:'DejaVu Sans';-inkscape-font-specification:'DejaVu Sans Bold';letter-spacing:0px;word-spacing:0px;fill:#ffffff;fill-opacity:1;stroke:none;stroke-width:0.264583"
       id="path847-7-7" />
    <path
       d="m 50.505645,39.2722 h 2.147671 v 0.601513 h -1.351855 v 0.574641 h 1.27124 v 0.601513 h -1.27124 V 41.7568 h 1.397329 v 0.601513 h -2.193145 z"
       style="font-style:normal;font-variant:normal;font-weight:bold;font-stretch:normal;font-size:4.23333px;line-height:1.25;font-family:'DejaVu Sans';-inkscape-font-specification:'DejaVu Sans Bold';letter-spacing:0px;word-spacing:0px;fill:#000000;fill-opacity:1;stroke:none;stroke-width:0.264583"
       id="path839-3-0" />
    <path
       d="m 55.133782,42.358313 -0.816487,-2.362644 -0.818556,2.362644 H 52.69879 L 53.841871,39.2722 h 0.94878 l 1.143081,3.086113 z"
       style="font-style:normal;font-variant:normal;font-weight:bold;font-stretch:normal;font-size:4.23333px;line-height:1.25;font-family:'DejaVu Sans';-inkscape-font-specification:'DejaVu Sans Bold';letter-spacing:0px;word-spacing:0px;fill:#000000;fill-opacity:1;stroke:none;stroke-width:0.264583"
       id="path841-8-1" />
    <path
       d="m 58.934064,39.2722 v 3.086113 h -0.795816 v -2.4846 h -1.174087 v 2.4846 H 56.168344 V 39.2722 Z"
       style="font-style:normal;font-variant:normal;font-weight:bold;font-stretch:normal;font-size:4.23333px;line-height:1.25;font-family:'DejaVu Sans';-inkscape-font-specification:'DejaVu Sans Bold';letter-spacing:0px;word-spacing:0px;fill:#000000;fill-opacity:1;stroke:none;stroke-width:0.264583"
       id="path843-0-11" />
    <path
       d="m 51.204309,42.358313 h 0.795816 v 3.086113 h -0.795816 z"
       style="font-style:normal;font-variant:normal;font-weight:bold;font-stretch:normal;font-size:4.23333px;line-height:1.25;font-family:'DejaVu Sans';-inkscape-font-specification:'DejaVu Sans Bold';letter-spacing:0px;word-spacing:0px;fill:#000000;fill-opacity:1;stroke:none;stroke-width:0.264583"
       id="path845-3-3" />
    <path
       d="M 55.933733,45.444426 H 52.69879 l 1.143082,-3.086113 h 0.94878 z M 53.70958,44.842913 h 1.207162 l -0.599446,-1.761131 z"
       style="font-style:normal;font-variant:normal;font-weight:bold;font-stretch:normal;font-size:4.23333px;line-height:1.25;font-family:'DejaVu Sans';-inkscape-font-specification:'DejaVu Sans Bold';letter-spacing:0px;word-spacing:0px;fill:#000000;fill-opacity:1;stroke:none;stroke-width:0.264583"
       id="path847-7-76" />
    <path
       d="m 58.174421,44.882187 h -1.244367 l -0.196371,0.562239 h -0.79995 l 1.143082,-3.086113 h 0.948778 l 1.143082,3.086113 h -0.799951 z m -1.04593,-0.572574 h 0.845426 l -0.42168,-1.227831 z"
       style="font-style:normal;font-variant:normal;font-weight:bold;font-stretch:normal;font-size:4.23333px;line-height:1.25;font-family:'DejaVu Sans';-inkscape-font-specification:'DejaVu Sans Bold';letter-spacing:0px;word-spacing:0px;fill:#000000;fill-opacity:1;stroke:none;stroke-width:0.264583"
       id="path849-1-1" />
    <path
       id="path1085-3"
       style="font-style:normal;font-variant:normal;font-weight:bold;font-stretch:normal;font-size:4.23333px;line-height:1.25;font-family:'DejaVu Sans';-inkscape-font-specification:'DejaVu Sans Bold';letter-spacing:0px;word-spacing:0px;fill:#000000;fill-opacity:1;stroke:none;stroke-width:0.264583"
       d="m 16.879536,28.799561 q -0.223242,-0.05168 -0.33693,-0.181901 -0.115755,-0.132291 -0.115755,-0.332795 0,-0.312126 0.239779,-0.458887 0.239778,-0.148828 0.719335,-0.148828 0.179834,0 0.363802,0.02481 0.186035,0.0248 0.374137,0.07441 v 0.494026 q -0.124023,-0.05581 -0.299723,-0.08888 -0.1757,-0.03307 -0.297656,-0.03307 -0.19637,0 -0.310058,0.07235 -0.115756,0.07441 -0.115756,0.16123 0,0.09095 0.117823,0.16123 0.103352,0.06201 0.345198,0.06201 h 0.256315 v 0.463021 h -0.243913 q -0.26665,0 -0.394807,0.07648 -0.138493,0.08061 -0.138493,0.204638 0,0.119889 0.136426,0.202572 0.134358,0.08061 0.374137,0.08061 0.159163,0 0.334863,-0.04134 0.194303,-0.04548 0.341064,-0.11989 v 0.520898 q -0.186035,0.05788 -0.376204,0.08682 -0.192237,0.02894 -0.382406,0.02894 -0.539501,0 -0.820621,-0.179834 -0.281119,-0.179834 -0.281119,-0.537435 0,-0.23151 0.130224,-0.380338 0.130225,-0.148828 0.380338,-0.21084 z" />
    <path
       id="path1087-4"
       style="font-style:normal;font-variant:normal;font-weight:bold;font-stretch:normal;font-size:4.23333px;line-height:1.25;font-family:'DejaVu Sans';-inkscape-font-specification:'DejaVu Sans Bold';letter-spacing:0px;word-spacing:0px;fill:#000000;fill-opacity:1;stroke:none;stroke-width:0.264583"
       d="m 19.183269,27.999621 -0.128157,-0.347265 q -0.05788,-0.159163 -0.136426,-0.217041 -0.07648,-0.05788 -0.270784,-0.05788 h -0.23151 v -0.485759 h 0.42788 q 0.376204,0 0.578776,0.159164 0.204638,0.159163 0.345198,0.535367 l 0.946712,2.521808 h -0.740006 l -0.460954,-1.215429 -0.485758,1.215429 h -0.740006 z" />
    <path
       id="path1089-2"
       style="font-style:normal;font-variant:normal;font-weight:bold;font-stretch:normal;font-size:4.23333px;line-height:1.25;font-family:'DejaVu Sans';-inkscape-font-specification:'DejaVu Sans Bold';letter-spacing:0px;word-spacing:0px;fill:#000000;fill-opacity:1;stroke:none;stroke-width:0.264583"
       d="m 20.773869,27.712324 h 2.920749 v 0.529166 h -0.405143 v 1.037662 q 0,0.26665 0.04961,0.332796 0.05168,0.06408 0.167431,0.06408 0.117822,0 0.183968,-0.0083 v 0.388607 q -0.128157,0.05168 -0.566373,0.05168 -0.138493,0 -0.272851,-0.03927 -0.214974,-0.06408 -0.274919,-0.252181 -0.02687,-0.08888 -0.02687,-0.270784 v -1.304312 h -0.630452 v 1.785936 H 21.179013 V 28.241468 H 20.77387 Z" />
    <path
       id="path1091-4"
       style="font-style:normal;font-variant:normal;font-weight:bold;font-stretch:normal;font-size:4.23333px;line-height:1.25;font-family:'DejaVu Sans';-inkscape-font-specification:'DejaVu Sans Bold';letter-spacing:0px;word-spacing:0px;fill:#000000;fill-opacity:1;stroke:none;stroke-width:0.264583"
       d="m 17.298116,30.108015 h 0.584976 l -0.762744,0.777213 h -0.405142 z m 0.16123,2.637563 q 0,0.264583 0.04961,0.330729 0.05168,0.06614 0.169498,0.06614 0.115755,0 0.181901,-0.0083 v 0.388607 q -0.128157,0.05168 -0.566373,0.05168 -0.138493,0 -0.272851,-0.03927 -0.214974,-0.06408 -0.272852,-0.252181 -0.02894,-0.08888 -0.02894,-0.270784 v -1.833478 h 0.740006 z" />
    <path
       id="path1093-0"
       style="font-style:normal;font-variant:normal;font-weight:bold;font-stretch:normal;font-size:4.23333px;line-height:1.25;font-family:'DejaVu Sans';-inkscape-font-specification:'DejaVu Sans Bold';letter-spacing:0px;word-spacing:0px;fill:#000000;fill-opacity:1;stroke:none;stroke-width:0.264583"
       d="m 20.434872,30.901731 q -0.25218,-0.144694 -0.911571,-0.144694 -0.3514,0 -0.3514,0.202571 0,0.192236 0.481624,0.264583 0.479557,0.07235 0.768945,0.303858 0.351399,0.279052 0.351399,0.839224 0,0.560172 -0.338997,0.8847 -0.338997,0.322461 -0.930175,0.322461 -0.593245,0 -0.934309,-0.322461 -0.341064,-0.324528 -0.341064,-0.892968 0,-0.429948 0.338997,-0.762744 0.10542,-0.103352 0.237712,-0.169498 -0.305925,-0.163298 -0.305925,-0.491959 0,-0.669726 1.091406,-0.669726 0.547769,0 0.843358,0.144693 z m -1.107941,0.793749 q -0.109554,0.04547 -0.196371,0.16123 -0.136425,0.179834 -0.136425,0.504362 0,0.324528 0.134358,0.506429 0.136426,0.1819 0.37207,0.1819 0.233578,0 0.370003,-0.183968 0.136426,-0.186035 0.136426,-0.496093 0,-0.307991 -0.146761,-0.46302 -0.146761,-0.157097 -0.3514,-0.179834 -0.09508,-0.01033 -0.1819,-0.03101 z" />
    <path
       id="path1095-1"
       style="font-style:normal;font-variant:normal;font-weight:bold;font-stretch:normal;font-size:4.23333px;line-height:1.25;font-family:'DejaVu Sans';-inkscape-font-specification:'DejaVu Sans Bold';letter-spacing:0px;word-spacing:0px;fill:#000000;fill-opacity:1;stroke:none;stroke-width:0.264583"
       d="m 22.755144,31.430693 0.07441,-0.223242 h 0.640787 l -0.398941,1.192691 0.05581,0.316259 q 0.05995,0.341064 0.200505,0.341064 h 0.169498 v 0.465088 h -0.210839 q -0.328662,0 -0.496094,-0.173633 -0.03721,-0.03927 -0.04754,-0.05994 -0.09922,0.12609 -0.198437,0.208772 -0.09715,0.08062 -0.611849,0.07648 -0.51263,-0.0041 -0.737939,-0.316259 -0.223242,-0.312126 -0.223242,-0.921907 0,-0.607714 0.233578,-0.855761 0.295589,-0.318327 0.861962,-0.324528 0.47749,-0.0062 0.688329,0.274919 z m -0.285253,0.874364 -0.06201,-0.33693 q -0.05788,-0.314192 -0.330729,-0.316259 -0.138493,0 -0.254248,0.179833 -0.113688,0.177767 -0.113688,0.539502 0,0.363802 0.103353,0.527099 0.103353,0.163298 0.256315,0.167432 0.16123,0.0041 0.260449,-0.312126 z" />
  </g>
</svg>
