<?xml version="1.0" encoding="UTF-8"?>
<svg width="96" height="40" version="1.1" viewBox="0 0 96 40" xmlns="http://www.w3.org/2000/svg">
 <title>Elpida</title>
 <g fill="#717ede" stroke-width="3.7127">
  <path d="m0 40h26.971l13.814-37.955-26.977 0.01485-2.6869 7.3824h17.185l-2.5722 7.0671h-12.576l-2.6925 7.3976h12.576l-3.1644 8.6941h-17.185z"/>
  <path d="m46.966 10.941-10.067 29.057h20.108z"/>
  <path d="m66.903 40-13.938-37.955h9.8379l2.3896 6.9146h15.304l2.4151-6.9146h9.8379l-14.058 37.955zm5.9414-8.8975 5.2115-15.1h-10.397z"/>
 </g>
 <g fill="#e5e8fd" stroke-width="3.7127">
  <path d="m2.8944 37.955h26.971l13.814-37.955-26.977 0.01485-2.6869 7.3824h17.185l-2.5722 7.0671h-12.576l-2.6925 7.3976h12.576l-3.1644 8.6941h-17.185z"/>
  <path d="m49.86 8.8957-10.067 29.057h20.108z"/>
  <path d="m69.797 37.955-13.938-37.955h9.8379l2.3896 6.9146h15.304l2.4151-6.9146h9.8379l-14.058 37.955zm5.9414-8.8975 5.2115-15.1h-10.397z"/>
 </g>
</svg>
